<?xml version="1.0" encoding="UTF-8" standalone="no"?>
<!DOCTYPE svg PUBLIC "-//W3C//DTD SVG 1.1//EN" "http://www.w3.org/Graphics/SVG/1.1/DTD/svg11.dtd">
<!-- Generated by Microsoft Visio, SVG Export EngagementApproach.svg Page-1 -->
<svg xmlns="http://www.w3.org/2000/svg" xmlns:xlink="http://www.w3.org/1999/xlink" xmlns:ev="http://www.w3.org/2001/xml-events"
		xmlns:v="http://schemas.microsoft.com/visio/2003/SVGExtensions/" width="18.4689in" height="5.69469in"
		viewBox="0 0 1329.76 410.017" xml:space="preserve" color-interpolation-filters="sRGB" class="st14">
	<v:documentProperties v:langID="1033" v:metric="true" v:viewMarkup="false"/>

	<style type="text/css">
	<![CDATA[
		.st1 {fill:#005eb8;stroke:#ffffff;stroke-linecap:round;stroke-linejoin:round;stroke-width:0.5}
		.st2 {fill:#00a2c9}
		.st3 {fill:#000bae}
		.st4 {stroke:#ffffff;stroke-linecap:round;stroke-linejoin:round;stroke-width:0.5}
		.st5 {fill:#000bae;stroke:#ffffff;stroke-linecap:round;stroke-linejoin:round;stroke-width:0.5}
		.st6 {fill:#005eb8}
		.st7 {fill:#000bae;font-family:Segoe UI;font-size:0.833336em}
		.st8 {marker-end:url(#mrkr4-41);stroke:#005db7;stroke-linecap:round;stroke-linejoin:round;stroke-opacity:0.6;stroke-width:0.75}
		.st9 {fill:#005db7;fill-opacity:0.6;stroke:#005db7;stroke-opacity:0.6;stroke-width:0.22935779816514}
		.st10 {fill:#ffffff}
		.st11 {font-size:1em}
		.st12 {stroke:#000c9d;stroke-linecap:round;stroke-linejoin:round;stroke-width:0.5}
		.st13 {fill:#feffff}
		.st14 {fill:none;fill-rule:evenodd;font-size:12px;overflow:visible;stroke-linecap:square;stroke-miterlimit:3}
	]]>
	</style>

	<defs id="Markers">
		<g id="lend4">
			<path d="M 2 1 L 0 0 L 2 -1 L 2 1 " style="stroke:none"/>
		</g>
		<marker id="mrkr4-41" class="st9" v:arrowType="4" v:arrowSize="2" v:setback="8.72" refX="-8.72" orient="auto"
				markerUnits="strokeWidth" overflow="visible">
			<use xlink:href="#lend4" transform="scale(-4.36,-4.36) "/>
		</marker>
	</defs>
	<g v:mID="0" v:index="1" v:groupContext="foregroundPage">
		<title>Page-1</title>
		<v:pageProperties v:drawingScale="0.0393701" v:pageScale="0.0393701" v:drawingUnits="24" v:shadowOffsetX="9"
				v:shadowOffsetY="-9"/>
		<v:layer v:name="Flowchart" v:index="0"/>
		<v:layer v:name="Connector" v:index="1"/>
		<g id="group203-1" transform="translate(303.465,-338.901)" v:mID="203" v:groupContext="group" v:layerMember="0">
			<v:userDefs>
				<v:ud v:nameU="visVersion" v:prompt="" v:val="VT0(15):26"/>
				<v:ud v:nameU="ConnGap" v:prompt="" v:val="VT0(0.00012908222537757):24"/>
			</v:userDefs>
			<title>Start.44</title>
			<g id="shape204-2" v:mID="204" v:groupContext="shape" v:layerMember="0">
				<title>Sheet.204</title>
				<path d="M35.43 410.02 C15.9 410.02 0 394.12 0 374.58 C0 355.05 15.9 339.15 35.43 339.15 C54.97 339.15 70.87 355.05
							 70.87 374.58 C70.87 394.12 54.97 410.02 35.43 410.02 Z" class="st1"/>
			</g>
			<g id="shape205-4" v:mID="205" v:groupContext="shape" v:layerMember="0" transform="translate(28.3465,-19.8269)">
				<title>Sheet.205</title>
				<v:userDefs>
					<v:ud v:nameU="SurroundingRegionColor" v:prompt="" v:val="VT0(1):26"/>
					<v:ud v:nameU="SurroundingRegionColor" v:prompt="" v:val="VT5(#005eb8)"/>
				</v:userDefs>
				<path d="M0 410.02 L24.8 394.41 L0 378.81 L0 410.02 Z" class="st2"/>
			</g>
		</g>
		<g id="group210-7" transform="translate(502.953,-348.823)" v:mID="210" v:groupContext="group" v:layerMember="0">
			<v:userDefs>
				<v:ud v:nameU="visVersion" v:prompt="" v:val="VT0(15):26"/>
				<v:ud v:nameU="ConnGap" v:prompt="" v:val="VT0(0.00012908222537757):24"/>
			</v:userDefs>
			<title>Meeting</title>
			<desc>Document Client Context</desc>
			<g id="shape211-8" v:mID="211" v:groupContext="shape" v:layerMember="0" transform="translate(18.0118,-12.4022)">
				<title>Sheet.211</title>
				<path d="M13.67 384.6 L3.25 384.6 C2.5 384.6 1.81 384.86 1.26 385.29 C0.88 385.59 0.56 385.98 0.34 386.42 C0.12 386.86
							 0 387.36 0 387.89 L0 400.37 L2.85 400.37 L2.85 410.02 L13.97 410.02 L13.97 400.37 L16.93 400.37 L16.93
							 387.89 C16.93 387.13 16.67 386.43 16.24 385.87 C15.94 385.48 15.56 385.17 15.12 384.94 C14.69 384.72
							 14.2 384.6 13.67 384.6 ZM40.5 382.44 L30.08 382.44 C29.33 382.44 28.64 382.7 28.09 383.13 C27.71 383.43
							 27.39 383.82 27.17 384.26 C26.95 384.7 26.83 385.2 26.83 385.73 L26.83 398.22 L29.68 398.22 L29.68 407.86
							 L40.79 407.86 L40.79 398.22 L43.76 398.22 L43.76 385.73 C43.76 384.97 43.5 384.27 43.07 383.71 C42.77
							 383.33 42.39 383.01 41.95 382.79 C41.52 382.57 41.02 382.44 40.5 382.44 ZM13.33 378.42 A4.81307 4.8663
							 -180 1 0 3.71 378.42 A4.81307 4.8663 -180 1 0 13.33 378.42 ZM40.16 376.26 A4.81307 4.86244 -180 1 0
							 30.53 376.26 A4.81307 4.86244 -180 1 0 40.16 376.26 Z" class="st3"/>
				<path d="M13.67 384.6 L3.25 384.6 C2.5 384.6 1.81 384.86 1.26 385.29 C0.88 385.59 0.56 385.98 0.34 386.42 C0.12 386.86
							 0 387.36 0 387.89 L0 400.37 L2.85 400.37 L2.85 410.02 L13.97 410.02 L13.97 400.37 L16.93 400.37 L16.93
							 387.89 C16.93 387.13 16.67 386.43 16.24 385.87 C15.94 385.48 15.56 385.17 15.12 384.94 C14.69 384.72
							 14.2 384.6 13.67 384.6" class="st4"/>
				<path d="M8.46 410.02 L8.46 402.31" class="st4"/>
				<path d="M2.85 400.37 L2.85 393.72" class="st4"/>
				<path d="M13.97 400.37 L13.97 393.72" class="st4"/>
				<path d="M40.5 382.44 L30.08 382.44 C29.33 382.44 28.64 382.7 28.09 383.13 C27.71 383.43 27.39 383.82 27.17 384.26
							 C26.95 384.7 26.83 385.2 26.83 385.73 L26.83 398.22 L29.68 398.22 L29.68 407.86 L40.79 407.86 L40.79
							 398.22 L43.76 398.22 L43.76 385.73 C43.76 384.97 43.5 384.27 43.07 383.71 C42.77 383.33 42.39 383.01
							 41.95 382.79 C41.52 382.57 41.02 382.44 40.5 382.44" class="st4"/>
				<path d="M35.29 407.86 L35.29 400.15" class="st4"/>
				<path d="M29.68 398.22 L29.68 391.57" class="st4"/>
				<path d="M40.79 398.22 L40.79 391.57" class="st4"/>
				<path d="M13.33 378.42 A4.81307 4.8663 -180 1 0 3.71 378.42 A4.81307 4.8663 -180 1 0 13.33 378.42" class="st4"/>
				<path d="M40.16 376.26 A4.81307 4.86244 -180 1 0 30.53 376.26 A4.81307 4.86244 -180 1 0 40.16 376.26" class="st4"/>
			</g>
			<g id="shape212-20" v:mID="212" v:groupContext="shape" v:layerMember="0" transform="translate(0,-10.9224)">
				<title>Sheet.212</title>
				<path d="M29.02 410.02 L70.87 393.5 L42.26 387.53 L0 398.23 L29.02 410.02 Z" class="st5"/>
			</g>
			<g id="shape213-22" v:mID="213" v:groupContext="shape" v:layerMember="0" transform="translate(6.42108,2.84217E-13)">
				<title>Sheet.213</title>
				<path d="M13.67 384.6 L3.25 384.6 C2.5 384.6 1.81 384.86 1.26 385.29 C0.88 385.59 0.56 385.98 0.34 386.42 C0.12 386.86
							 0 387.36 0 387.89 L0 400.37 L2.85 400.37 L2.85 410.02 L13.97 410.02 L13.97 400.37 L16.93 400.37 L16.93
							 387.89 C16.93 387.13 16.67 386.43 16.24 385.87 C15.94 385.48 15.56 385.17 15.12 384.94 C14.69 384.72
							 14.2 384.6 13.67 384.6 ZM44.47 382.78 L34.05 382.78 C33.3 382.78 32.61 383.04 32.06 383.47 C31.68 383.77
							 31.36 384.16 31.14 384.6 C30.92 385.04 30.8 385.54 30.8 386.07 L30.8 398.55 L33.65 398.55 L33.65 408.2
							 L44.77 408.2 L44.77 398.55 L47.73 398.55 L47.73 386.07 C47.73 385.31 47.47 384.61 47.04 384.05 C46.74
							 383.66 46.36 383.35 45.93 383.12 C45.49 382.9 45 382.78 44.47 382.78 ZM13.33 378.42 A4.81089 4.86602
							 -180 1 0 3.71 378.42 A4.81089 4.86602 -180 1 0 13.33 378.42 ZM44.13 376.59 A4.81566 4.86219 -180 1 0
							 34.5 376.59 A4.81566 4.86219 -180 1 0 44.13 376.59 Z" class="st6"/>
				<path d="M13.67 384.6 L3.25 384.6 C2.5 384.6 1.81 384.86 1.26 385.29 C0.88 385.59 0.56 385.98 0.34 386.42 C0.12 386.86
							 0 387.36 0 387.89 L0 400.37 L2.85 400.37 L2.85 410.02 L13.97 410.02 L13.97 400.37 L16.93 400.37 L16.93
							 387.89 C16.93 387.13 16.67 386.43 16.24 385.87 C15.94 385.48 15.56 385.17 15.12 384.94 C14.69 384.72
							 14.2 384.6 13.67 384.6" class="st4"/>
				<path d="M8.46 410.02 L8.46 402.31" class="st4"/>
				<path d="M2.85 400.37 L2.85 393.72" class="st4"/>
				<path d="M13.97 400.37 L13.97 393.72" class="st4"/>
				<path d="M44.47 382.78 L34.05 382.78 C33.3 382.78 32.61 383.04 32.06 383.47 C31.68 383.77 31.36 384.16 31.14 384.6
							 C30.92 385.04 30.8 385.54 30.8 386.07 L30.8 398.55 L33.65 398.55 L33.65 408.2 L44.77 408.2 L44.77 398.55
							 L47.73 398.55 L47.73 386.07 C47.73 385.31 47.47 384.61 47.04 384.05 C46.74 383.66 46.36 383.35 45.93
							 383.12 C45.49 382.9 45 382.78 44.47 382.78" class="st4"/>
				<path d="M39.26 408.2 L39.26 400.49" class="st4"/>
				<path d="M33.65 398.55 L33.65 391.9" class="st4"/>
				<path d="M44.77 398.55 L44.77 391.9" class="st4"/>
				<path d="M13.33 378.42 A4.81089 4.86602 -180 1 0 3.71 378.42 A4.81089 4.86602 -180 1 0 13.33 378.42" class="st4"/>
				<path d="M44.13 376.59 A4.81566 4.86219 -180 1 0 34.5 376.59 A4.81566 4.86219 -180 1 0 44.13 376.59" class="st4"/>
			</g>
			<g id="shape210-34" v:mID="210" v:groupContext="groupContent" v:layerMember="0">
				<v:textBlock v:margins="rect(4,4,4,4)" v:tabSpace="42.5197"/>
				<v:textRect cx="35.4331" cy="420.019" width="121.89" height="20.0036"/>
				<text x="-20.14" y="423.02" class="st7" v:langID="2057"><v:paragraph v:horizAlign="1"/><v:tabList/>Document Client Context</text>			</g>
		</g>
		<g id="shape214-36" v:mID="214" v:groupContext="shape" v:layerMember="1" transform="translate(374.34,-367.248)">
			<title>Dynamic connector</title>
			<path d="M0 402.93 L122.06 402.93" class="st8"/>
		</g>
		<g id="group215-42" transform="translate(680.561,-348.823)" v:mID="215" v:groupContext="group" v:layerMember="0">
			<v:userDefs>
				<v:ud v:nameU="visVersion" v:prompt="" v:val="VT0(15):26"/>
				<v:ud v:nameU="ConnGap" v:prompt="" v:val="VT0(0.00012908222537757):24"/>
			</v:userDefs>
			<title>Meeting.215</title>
			<desc>Document Case Overview</desc>
			<g id="shape216-43" v:mID="216" v:groupContext="shape" v:layerMember="0" transform="translate(18.0118,-12.4022)">
				<title>Sheet.216</title>
				<path d="M13.67 384.6 L3.25 384.6 C2.5 384.6 1.81 384.86 1.26 385.29 C0.88 385.59 0.56 385.98 0.34 386.42 C0.12 386.86
							 0 387.36 0 387.89 L0 400.37 L2.85 400.37 L2.85 410.02 L13.97 410.02 L13.97 400.37 L16.93 400.37 L16.93
							 387.89 C16.93 387.13 16.67 386.43 16.24 385.87 C15.94 385.48 15.56 385.17 15.12 384.94 C14.69 384.72
							 14.2 384.6 13.67 384.6 ZM40.5 382.44 L30.08 382.44 C29.33 382.44 28.64 382.7 28.09 383.13 C27.71 383.43
							 27.39 383.82 27.17 384.26 C26.95 384.7 26.83 385.2 26.83 385.73 L26.83 398.22 L29.68 398.22 L29.68 407.86
							 L40.79 407.86 L40.79 398.22 L43.76 398.22 L43.76 385.73 C43.76 384.97 43.5 384.27 43.07 383.71 C42.77
							 383.33 42.39 383.01 41.95 382.79 C41.52 382.57 41.02 382.44 40.5 382.44 ZM13.33 378.42 A4.81307 4.8663
							 -180 1 0 3.71 378.42 A4.81307 4.8663 -180 1 0 13.33 378.42 ZM40.16 376.26 A4.81307 4.86244 -180 1 0
							 30.53 376.26 A4.81307 4.86244 -180 1 0 40.16 376.26 Z" class="st3"/>
				<path d="M13.67 384.6 L3.25 384.6 C2.5 384.6 1.81 384.86 1.26 385.29 C0.88 385.59 0.56 385.98 0.34 386.42 C0.12 386.86
							 0 387.36 0 387.89 L0 400.37 L2.85 400.37 L2.85 410.02 L13.97 410.02 L13.97 400.37 L16.93 400.37 L16.93
							 387.89 C16.93 387.13 16.67 386.43 16.24 385.87 C15.94 385.48 15.56 385.17 15.12 384.94 C14.69 384.72
							 14.2 384.6 13.67 384.6" class="st4"/>
				<path d="M8.46 410.02 L8.46 402.31" class="st4"/>
				<path d="M2.85 400.37 L2.85 393.72" class="st4"/>
				<path d="M13.97 400.37 L13.97 393.72" class="st4"/>
				<path d="M40.5 382.44 L30.08 382.44 C29.33 382.44 28.64 382.7 28.09 383.13 C27.71 383.43 27.39 383.82 27.17 384.26
							 C26.95 384.7 26.83 385.2 26.83 385.73 L26.83 398.22 L29.68 398.22 L29.68 407.86 L40.79 407.86 L40.79
							 398.22 L43.76 398.22 L43.76 385.73 C43.76 384.97 43.5 384.27 43.07 383.71 C42.77 383.33 42.39 383.01
							 41.95 382.79 C41.52 382.57 41.02 382.44 40.5 382.44" class="st4"/>
				<path d="M35.29 407.86 L35.29 400.15" class="st4"/>
				<path d="M29.68 398.22 L29.68 391.57" class="st4"/>
				<path d="M40.79 398.22 L40.79 391.57" class="st4"/>
				<path d="M13.33 378.42 A4.81307 4.8663 -180 1 0 3.71 378.42 A4.81307 4.8663 -180 1 0 13.33 378.42" class="st4"/>
				<path d="M40.16 376.26 A4.81307 4.86244 -180 1 0 30.53 376.26 A4.81307 4.86244 -180 1 0 40.16 376.26" class="st4"/>
			</g>
			<g id="shape217-55" v:mID="217" v:groupContext="shape" v:layerMember="0" transform="translate(0,-10.9224)">
				<title>Sheet.217</title>
				<path d="M29.02 410.02 L70.87 393.5 L42.26 387.53 L0 398.23 L29.02 410.02 Z" class="st5"/>
			</g>
			<g id="shape218-57" v:mID="218" v:groupContext="shape" v:layerMember="0" transform="translate(6.42108,2.84217E-13)">
				<title>Sheet.218</title>
				<path d="M13.67 384.6 L3.25 384.6 C2.5 384.6 1.81 384.86 1.26 385.29 C0.88 385.59 0.56 385.98 0.34 386.42 C0.12 386.86
							 0 387.36 0 387.89 L0 400.37 L2.85 400.37 L2.85 410.02 L13.97 410.02 L13.97 400.37 L16.93 400.37 L16.93
							 387.89 C16.93 387.13 16.67 386.43 16.24 385.87 C15.94 385.48 15.56 385.17 15.12 384.94 C14.69 384.72
							 14.2 384.6 13.67 384.6 ZM44.47 382.78 L34.05 382.78 C33.3 382.78 32.61 383.04 32.06 383.47 C31.68 383.77
							 31.36 384.16 31.14 384.6 C30.92 385.04 30.8 385.54 30.8 386.07 L30.8 398.55 L33.65 398.55 L33.65 408.2
							 L44.77 408.2 L44.77 398.55 L47.73 398.55 L47.73 386.07 C47.73 385.31 47.47 384.61 47.04 384.05 C46.74
							 383.66 46.36 383.35 45.93 383.12 C45.49 382.9 45 382.78 44.47 382.78 ZM13.33 378.42 A4.81089 4.86602
							 -180 1 0 3.71 378.42 A4.81089 4.86602 -180 1 0 13.33 378.42 ZM44.13 376.59 A4.81566 4.86219 -180 1 0
							 34.5 376.59 A4.81566 4.86219 -180 1 0 44.13 376.59 Z" class="st6"/>
				<path d="M13.67 384.6 L3.25 384.6 C2.5 384.6 1.81 384.86 1.26 385.29 C0.88 385.59 0.56 385.98 0.34 386.42 C0.12 386.86
							 0 387.36 0 387.89 L0 400.37 L2.85 400.37 L2.85 410.02 L13.97 410.02 L13.97 400.37 L16.93 400.37 L16.93
							 387.89 C16.93 387.13 16.67 386.43 16.24 385.87 C15.94 385.48 15.56 385.17 15.12 384.94 C14.69 384.72
							 14.2 384.6 13.67 384.6" class="st4"/>
				<path d="M8.46 410.02 L8.46 402.31" class="st4"/>
				<path d="M2.85 400.37 L2.85 393.72" class="st4"/>
				<path d="M13.97 400.37 L13.97 393.72" class="st4"/>
				<path d="M44.47 382.78 L34.05 382.78 C33.3 382.78 32.61 383.04 32.06 383.47 C31.68 383.77 31.36 384.16 31.14 384.6
							 C30.92 385.04 30.8 385.54 30.8 386.07 L30.8 398.55 L33.65 398.55 L33.65 408.2 L44.77 408.2 L44.77 398.55
							 L47.73 398.55 L47.73 386.07 C47.73 385.31 47.47 384.61 47.04 384.05 C46.74 383.66 46.36 383.35 45.93
							 383.12 C45.49 382.9 45 382.78 44.47 382.78" class="st4"/>
				<path d="M39.26 408.2 L39.26 400.49" class="st4"/>
				<path d="M33.65 398.55 L33.65 391.9" class="st4"/>
				<path d="M44.77 398.55 L44.77 391.9" class="st4"/>
				<path d="M13.33 378.42 A4.81089 4.86602 -180 1 0 3.71 378.42 A4.81089 4.86602 -180 1 0 13.33 378.42" class="st4"/>
				<path d="M44.13 376.59 A4.81566 4.86219 -180 1 0 34.5 376.59 A4.81566 4.86219 -180 1 0 44.13 376.59" class="st4"/>
			</g>
			<g id="shape215-69" v:mID="215" v:groupContext="groupContent" v:layerMember="0">
				<v:textBlock v:margins="rect(4,4,4,4)" v:tabSpace="42.5197"/>
				<v:textRect cx="35.4331" cy="420.019" width="123.72" height="20.0036"/>
				<text x="-21.05" y="423.02" class="st7" v:langID="2057"><v:paragraph v:horizAlign="1"/><v:tabList/>Document Case Overview</text>			</g>
		</g>
		<g id="shape219-71" v:mID="219" v:groupContext="shape" v:layerMember="1" transform="translate(573.828,-367.248)">
			<title>Dynamic connector.219</title>
			<path d="M0 402.93 L100.18 402.93" class="st8"/>
		</g>
		<g id="group220-76" transform="translate(858.169,-348.823)" v:mID="220" v:groupContext="group" v:layerMember="0">
			<v:userDefs>
				<v:ud v:nameU="visVersion" v:prompt="" v:val="VT0(15):26"/>
				<v:ud v:nameU="ConnGap" v:prompt="" v:val="VT0(0.00012908222537757):24"/>
			</v:userDefs>
			<title>Meeting.220</title>
			<desc>Document Problem Statement</desc>
			<g id="shape221-77" v:mID="221" v:groupContext="shape" v:layerMember="0" transform="translate(18.0118,-12.4022)">
				<title>Sheet.221</title>
				<path d="M13.67 384.6 L3.25 384.6 C2.5 384.6 1.81 384.86 1.26 385.29 C0.88 385.59 0.56 385.98 0.34 386.42 C0.12 386.86
							 0 387.36 0 387.89 L0 400.37 L2.85 400.37 L2.85 410.02 L13.97 410.02 L13.97 400.37 L16.93 400.37 L16.93
							 387.89 C16.93 387.13 16.67 386.43 16.24 385.87 C15.94 385.48 15.56 385.17 15.12 384.94 C14.69 384.72
							 14.2 384.6 13.67 384.6 ZM40.5 382.44 L30.08 382.44 C29.33 382.44 28.64 382.7 28.09 383.13 C27.71 383.43
							 27.39 383.82 27.17 384.26 C26.95 384.7 26.83 385.2 26.83 385.73 L26.83 398.22 L29.68 398.22 L29.68 407.86
							 L40.79 407.86 L40.79 398.22 L43.76 398.22 L43.76 385.73 C43.76 384.97 43.5 384.27 43.07 383.71 C42.77
							 383.33 42.39 383.01 41.95 382.79 C41.52 382.57 41.02 382.44 40.5 382.44 ZM13.33 378.42 A4.81307 4.8663
							 -180 1 0 3.71 378.42 A4.81307 4.8663 -180 1 0 13.33 378.42 ZM40.16 376.26 A4.81307 4.86244 -180 1 0
							 30.53 376.26 A4.81307 4.86244 -180 1 0 40.16 376.26 Z" class="st3"/>
				<path d="M13.67 384.6 L3.25 384.6 C2.5 384.6 1.81 384.86 1.26 385.29 C0.88 385.59 0.56 385.98 0.34 386.42 C0.12 386.86
							 0 387.36 0 387.89 L0 400.37 L2.85 400.37 L2.85 410.02 L13.97 410.02 L13.97 400.37 L16.93 400.37 L16.93
							 387.89 C16.93 387.13 16.67 386.43 16.24 385.87 C15.94 385.48 15.56 385.17 15.12 384.94 C14.69 384.72
							 14.2 384.6 13.67 384.6" class="st4"/>
				<path d="M8.46 410.02 L8.46 402.31" class="st4"/>
				<path d="M2.85 400.37 L2.85 393.72" class="st4"/>
				<path d="M13.97 400.37 L13.97 393.72" class="st4"/>
				<path d="M40.5 382.44 L30.08 382.44 C29.33 382.44 28.64 382.7 28.09 383.13 C27.71 383.43 27.39 383.82 27.17 384.26
							 C26.95 384.7 26.83 385.2 26.83 385.73 L26.83 398.22 L29.68 398.22 L29.68 407.86 L40.79 407.86 L40.79
							 398.22 L43.76 398.22 L43.76 385.73 C43.76 384.97 43.5 384.27 43.07 383.71 C42.77 383.33 42.39 383.01
							 41.95 382.79 C41.52 382.57 41.02 382.44 40.5 382.44" class="st4"/>
				<path d="M35.29 407.86 L35.29 400.15" class="st4"/>
				<path d="M29.68 398.22 L29.68 391.57" class="st4"/>
				<path d="M40.79 398.22 L40.79 391.57" class="st4"/>
				<path d="M13.33 378.42 A4.81307 4.8663 -180 1 0 3.71 378.42 A4.81307 4.8663 -180 1 0 13.33 378.42" class="st4"/>
				<path d="M40.16 376.26 A4.81307 4.86244 -180 1 0 30.53 376.26 A4.81307 4.86244 -180 1 0 40.16 376.26" class="st4"/>
			</g>
			<g id="shape222-89" v:mID="222" v:groupContext="shape" v:layerMember="0" transform="translate(0,-10.9224)">
				<title>Sheet.222</title>
				<path d="M29.02 410.02 L70.87 393.5 L42.26 387.53 L0 398.23 L29.02 410.02 Z" class="st5"/>
			</g>
			<g id="shape223-91" v:mID="223" v:groupContext="shape" v:layerMember="0" transform="translate(6.42108,2.84217E-13)">
				<title>Sheet.223</title>
				<path d="M13.67 384.6 L3.25 384.6 C2.5 384.6 1.81 384.86 1.26 385.29 C0.88 385.59 0.56 385.98 0.34 386.42 C0.12 386.86
							 0 387.36 0 387.89 L0 400.37 L2.85 400.37 L2.85 410.02 L13.97 410.02 L13.97 400.37 L16.93 400.37 L16.93
							 387.89 C16.93 387.13 16.67 386.43 16.24 385.87 C15.94 385.48 15.56 385.17 15.12 384.94 C14.69 384.72
							 14.2 384.6 13.67 384.6 ZM44.47 382.78 L34.05 382.78 C33.3 382.78 32.61 383.04 32.06 383.47 C31.68 383.77
							 31.36 384.16 31.14 384.6 C30.92 385.04 30.8 385.54 30.8 386.07 L30.8 398.55 L33.65 398.55 L33.65 408.2
							 L44.77 408.2 L44.77 398.55 L47.73 398.55 L47.73 386.07 C47.73 385.31 47.47 384.61 47.04 384.05 C46.74
							 383.66 46.36 383.35 45.93 383.12 C45.49 382.9 45 382.78 44.47 382.78 ZM13.33 378.42 A4.81089 4.86602
							 -180 1 0 3.71 378.42 A4.81089 4.86602 -180 1 0 13.33 378.42 ZM44.13 376.59 A4.81566 4.86219 -180 1 0
							 34.5 376.59 A4.81566 4.86219 -180 1 0 44.13 376.59 Z" class="st6"/>
				<path d="M13.67 384.6 L3.25 384.6 C2.5 384.6 1.81 384.86 1.26 385.29 C0.88 385.59 0.56 385.98 0.34 386.42 C0.12 386.86
							 0 387.36 0 387.89 L0 400.37 L2.85 400.37 L2.85 410.02 L13.97 410.02 L13.97 400.37 L16.93 400.37 L16.93
							 387.89 C16.93 387.13 16.67 386.43 16.24 385.87 C15.94 385.48 15.56 385.17 15.12 384.94 C14.69 384.72
							 14.2 384.6 13.67 384.6" class="st4"/>
				<path d="M8.46 410.02 L8.46 402.31" class="st4"/>
				<path d="M2.85 400.37 L2.85 393.72" class="st4"/>
				<path d="M13.97 400.37 L13.97 393.72" class="st4"/>
				<path d="M44.47 382.78 L34.05 382.78 C33.3 382.78 32.61 383.04 32.06 383.47 C31.68 383.77 31.36 384.16 31.14 384.6
							 C30.92 385.04 30.8 385.54 30.8 386.07 L30.8 398.55 L33.65 398.55 L33.65 408.2 L44.77 408.2 L44.77 398.55
							 L47.73 398.55 L47.73 386.07 C47.73 385.31 47.47 384.61 47.04 384.05 C46.74 383.66 46.36 383.35 45.93
							 383.12 C45.49 382.9 45 382.78 44.47 382.78" class="st4"/>
				<path d="M39.26 408.2 L39.26 400.49" class="st4"/>
				<path d="M33.65 398.55 L33.65 391.9" class="st4"/>
				<path d="M44.77 398.55 L44.77 391.9" class="st4"/>
				<path d="M13.33 378.42 A4.81089 4.86602 -180 1 0 3.71 378.42 A4.81089 4.86602 -180 1 0 13.33 378.42" class="st4"/>
				<path d="M44.13 376.59 A4.81566 4.86219 -180 1 0 34.5 376.59 A4.81566 4.86219 -180 1 0 44.13 376.59" class="st4"/>
			</g>
			<g id="shape220-103" v:mID="220" v:groupContext="groupContent" v:layerMember="0">
				<v:textBlock v:margins="rect(4,4,4,4)" v:tabSpace="42.5197"/>
				<v:textRect cx="35.4331" cy="420.019" width="144.65" height="20.0036"/>
				<text x="-31.52" y="423.02" class="st7" v:langID="2057"><v:paragraph v:horizAlign="1"/><v:tabList/>Document Problem Statement</text>			</g>
		</g>
		<g id="shape224-105" v:mID="224" v:groupContext="shape" v:layerMember="1" transform="translate(751.436,-367.248)">
			<title>Dynamic connector.224</title>
			<path d="M0 402.93 L100.18 402.93" class="st8"/>
		</g>
		<g id="group225-110" transform="translate(1035.78,-338.901)" v:mID="225" v:groupContext="group" v:layerMember="0">
			<v:userDefs>
				<v:ud v:nameU="visVersion" v:prompt="" v:val="VT0(15):26"/>
				<v:ud v:nameU="ConnGap" v:prompt="" v:val="VT0(0.00012908222537757):24"/>
			</v:userDefs>
			<title>Analyze</title>
			<desc>Identify the Business Requirements</desc>
			<g id="shape226-111" v:mID="226" v:groupContext="shape" v:layerMember="0" transform="translate(0,-22.2882)">
				<title>Sheet.226</title>
				<path d="M33.22 370.25 L24.96 361.44 L0 361.44 L0 407.7 L19.09 407.7 L21.72 410.02 L36.56 410.02 L36.56 391.51 L33.24
							 389.67 L33.22 370.25 Z" class="st1"/>
			</g>
			<g id="shape227-113" v:mID="227" v:groupContext="shape" v:layerMember="0" transform="translate(6.17567,-31.8303)">
				<title>Sheet.227</title>
				<v:userDefs>
					<v:ud v:nameU="SurroundingRegionColor" v:prompt="" v:val="VT0(1):26"/>
					<v:ud v:nameU="SurroundingRegionColor" v:prompt="" v:val="VT5(#005eb8)"/>
				</v:userDefs>
				<path d="M18.55 371.29 L26.54 379.82 L18.55 379.82 L18.55 371.29 ZM0 380.36 L8.24 380.36 L8.24 379.39 L0 379.39 L-0
							 380.36 ZM0 385.88 L8.24 385.88 L8.24 384.91 L0 384.91 L-0 385.88 ZM0 391.4 L20.87 391.4 L20.87 390.44
							 L0 390.44 L-0 391.4 ZM0 396.93 L20.87 396.93 L20.87 395.96 L0 395.96 L-0 396.93 ZM0 402.45 L20.87 402.45
							 L20.87 401.48 L0 401.48 L-0 402.45 ZM12.63 407.91 L13.55 407.91 L13.55 406.94 L12.63 406.94 L12.63 407.91
							 L12.63 407.91 ZM15.93 410.02 L24.42 410.02 L24.42 408.47 L15.93 408.47 L15.93 410.02 Z" class="st10"/>
			</g>
			<g id="shape228-116" v:mID="228" v:groupContext="shape" v:layerMember="0" transform="translate(18.6889,5.68434E-14)">
				<title>Sheet.228</title>
				<path d="M16.82 395.27 L26.75 384.91 C27 383.82 27.14 382.68 27.14 381.51 C27.14 373.69 21.06 367.34 13.57 367.34
							 C6.07 367.34 0 373.69 0 381.51 C0 389.34 6.07 395.68 13.57 395.68 C14.69 395.68 15.78 395.54 16.82 395.27
							 ZM21 389.28 C16.9 393.56 10.23 393.56 6.14 389.28 C2.04 385 2.04 378.03 6.13 373.75 C10.23 369.47 16.9
							 369.47 21 373.75 C25.1 378.03 25.1 385 21 389.28 ZM26.75 384.91 L16.76 395.34 C18.24 396.89 18.85 398.08
							 21.32 395.47 C25.01 391.6 22.27 394.89 23.66 396.36 C35.07 408.44 37.25 412.03 40.15 409 L40.15 409
							 C40.15 409 40.16 409 40.16 408.99 C40.16 408.99 40.16 408.98 40.16 408.98 C42.54 406.51 38.7 403.5 27.8
							 392.04 C26.4 390.58 23.23 393.45 26.95 389.6 C29.43 387.02 28.29 386.39 26.81 384.84 L26.75 384.91 Z"
						class="st5"/>
			</g>
			<g id="shape225-118" v:mID="225" v:groupContext="groupContent" v:layerMember="0">
				<v:textBlock v:margins="rect(4,4,4,4)" v:tabSpace="42.5197"/>
				<v:textRect cx="29.7638" cy="426.019" width="148.82" height="32.0037"/>
				<text x="-15.44" y="423.02" class="st7" v:langID="2057"><v:paragraph v:horizAlign="1"/><v:tabList/>Identify the Business <tspan
							x="-0.75" dy="1.2em" class="st11">Requirements</tspan></text>			</g>
		</g>
		<g id="shape229-121" v:mID="229" v:groupContext="shape" v:layerMember="1" transform="translate(929.045,-367.248)">
			<title>Dynamic connector.229</title>
			<path d="M0 402.93 L100.18 402.93" class="st8"/>
		</g>
		<g id="group234-126" transform="translate(1202.05,-338.901)" v:mID="234" v:groupContext="group" v:layerMember="0">
			<v:userDefs>
				<v:ud v:nameU="visVersion" v:prompt="" v:val="VT0(15):26"/>
				<v:ud v:nameU="ConnGap" v:prompt="" v:val="VT0(0.00012908222537757):24"/>
			</v:userDefs>
			<title>Request</title>
			<desc>Identify Dataset</desc>
			<g id="shape235-127" v:mID="235" v:groupContext="shape" v:layerMember="0">
				<title>Sheet.235</title>
				<path d="M28.42 410.02 L28.34 392.69 L3.64 392.69 C1.63 392.69 0 391.15 0 389.27 L0 342.57 C0 340.69 1.63 339.15
							 3.64 339.15 L55.89 339.15 C57.9 339.15 59.53 340.69 59.53 342.57 L59.53 389.27 C59.53 391.15 57.9 392.69
							 55.89 392.69 L39.89 392.69 L28.42 410.02 Z" class="st1"/>
			</g>
			<g id="shape236-129" v:mID="236" v:groupContext="shape" v:layerMember="0" transform="translate(23.4278,-26.9603)">
				<title>Sheet.236</title>
				<path d="M10.11 398.77 L10.12 395.09 C10.13 394.72 10.49 393.68 10.91 392.99 L14.37 388.26 C14.98 387.42 15.29 386.43
							 15.29 385.29 L15.29 378.98 C15.29 376.72 14.06 375.49 11.84 375.49 L3.44 375.49 C1.22 375.49 0 376.72
							 0 378.98 L0 385.06 L5.77 385.06 L5.77 381.09 C5.81 380.89 5.94 380.73 6.13 380.67 L9.06 380.67 C9.28
							 380.7 9.45 380.87 9.5 381.08 L9.5 384.56 C9.5 384.94 9.1 386.04 8.66 386.73 L8.46 387.01 L5.29 391.36
							 C4.69 392.21 4.37 393.23 4.37 394.4 L4.37 398.77 L10.11 398.77 ZM10.24 410.02 L10.24 400.8 L4.24 400.8
							 L4.24 410.02 L10.24 410.02 Z" class="st5"/>
			</g>
			<g id="shape234-131" v:mID="234" v:groupContext="groupContent" v:layerMember="0">
				<v:textBlock v:margins="rect(4,4,4,4)" v:tabSpace="42.5197"/>
				<v:textRect cx="29.7638" cy="420.019" width="80.14" height="20.0036"/>
				<text x="-4.93" y="423.02" class="st7" v:langID="2057"><v:paragraph v:horizAlign="1"/><v:tabList/>Identify Dataset</text>			</g>
		</g>
		<g id="shape237-133" v:mID="237" v:groupContext="shape" v:layerMember="1" transform="translate(1095.31,-367.248)">
			<title>Dynamic connector.237</title>
			<path d="M0 402.93 L100.18 402.93" class="st8"/>
		</g>
		<g id="group238-138" transform="translate(1196.38,-197.169)" v:mID="238" v:groupContext="group" v:layerMember="0">
			<v:userDefs>
				<v:ud v:nameU="visVersion" v:prompt="" v:val="VT0(15):26"/>
				<v:ud v:nameU="ConnGap" v:prompt="" v:val="VT0(0.00012908222537757):24"/>
			</v:userDefs>
			<title>Brainstorm</title>
			<desc>Identify Profiles and Resources</desc>
			<g id="shape239-139" v:mID="239" v:groupContext="shape" v:layerMember="0">
				<title>Sheet.239</title>
				<path d="M63.49 360.13 C63.81 359.11 63.97 358.05 63.97 356.97 C63.97 350.89 58.92 345.93 52.72 345.91 C50.97 341.84
							 46.88 339.15 42.33 339.15 C39.83 339.15 37.41 339.97 35.43 341.47 C33.46 339.97 31.04 339.15 28.53 339.15
							 C23.99 339.15 19.9 341.84 18.14 345.91 C11.94 345.93 6.9 350.89 6.9 356.97 C6.9 358.05 7.06 359.1 7.38
							 360.13 C2.99 361.72 0 365.85 0 370.5 C0 376.6 5.06 381.56 11.28 381.56 C12.49 381.56 13.67 381.38 14.8
							 381.01 C16.17 383.43 18.77 384.94 21.63 384.94 C21.67 384.94 21.7 384.94 21.73 384.94 L19.72 392.08
							 L26.49 392.08 L25.37 398.81 L31.6 398.99 L30.02 410.02 L53.09 390.15 L45.17 390.15 L48.32 384.89 C48.62
							 384.93 48.93 384.94 49.23 384.94 C52.1 384.94 54.7 383.43 56.07 381.01 C57.2 381.38 58.38 381.56 59.58
							 381.56 C65.8 381.56 70.87 376.6 70.87 370.5 C70.87 365.85 67.88 361.72 63.49 360.13 Z" class="st1"/>
			</g>
			<g id="shape240-141" v:mID="240" v:groupContext="shape" v:layerMember="0" transform="translate(23.6515,-17.9131)">
				<title>Sheet.240</title>
				<v:userDefs>
					<v:ud v:nameU="SurroundingRegionColor" v:prompt="" v:val="VT0(1):26"/>
					<v:ud v:nameU="SurroundingRegionColor" v:prompt="" v:val="VT5(#005eb8)"/>
				</v:userDefs>
				<path d="M12.16 378.29 L12.02 378.29 C5.39 378.29 0 383.58 0 390.07 C0 393.77 1.8 397.29 4.82 399.51 C5.96 400.44
							 6.4 400.9 6.63 401.38 L6.79 401.71 C6.46 402.19 6.25 402.77 6.25 403.41 C6.25 404.93 7.39 406.16 8.8
							 406.23 L8.81 406.33 C8.83 407.26 8.87 408.55 9.67 409.16 C10.26 409.71 11.11 410.02 12.07 410.02 C13.37
							 410.02 14.46 409.47 14.99 408.56 L15.18 408.22 C15.18 408.22 15.36 406.46 15.37 406.38 L15.38 406.23
							 C16.79 406.15 17.91 404.92 17.91 403.41 C17.91 402.78 17.71 402.2 17.38 401.72 L17.54 401.38 C17.77
							 400.9 18.22 400.44 19.36 399.51 C22.38 397.3 24.18 393.77 24.18 390.08 C24.18 383.58 18.78 378.29 12.16
							 378.29 Z" class="st10"/>
				<path d="M6.79 401.72 L17.38 401.72" class="st4"/>
				<path d="M8.81 406.33 L15.37 406.33" class="st4"/>
			</g>
			<g id="shape241-145" v:mID="241" v:groupContext="shape" v:layerMember="0" transform="translate(7.24466,-36.8885)">
				<title>Sheet.241</title>
				<path d="M46 410.02 L57.7 410.02" class="st12"/>
				<path d="M49.94 392.11 L41.68 400.22" class="st12"/>
				<path d="M28.65 383.95 L28.65 395.42" class="st12"/>
				<path d="M7.76 391.54 L16.03 399.64" class="st12"/>
				<path d="M0 410.02 L11.7 410.02" class="st12"/>
			</g>
			<g id="shape238-152" v:mID="238" v:groupContext="groupContent" v:layerMember="0">
				<v:textBlock v:margins="rect(4,4,4,4)" v:tabSpace="42.5197"/>
				<v:textRect cx="35.4331" cy="420.019" width="145.74" height="20.0036"/>
				<text x="-32.06" y="423.02" class="st7" v:langID="2057"><v:paragraph v:horizAlign="1"/><v:tabList/>Identify Profiles and Resources</text>			</g>
		</g>
		<g id="shape242-154" v:mID="242" v:groupContext="shape" v:layerMember="1" transform="translate(1257.33,-374.334)">
			<title>Dynamic connector.242</title>
			<path d="M4.25 410.02 L52.43 410.02 L52.43 551.75 L16.46 551.75" class="st8"/>
		</g>
		<g id="group243-159" transform="translate(1026.3,-197.169)" v:mID="243" v:groupContext="group" v:layerMember="0">
			<v:userDefs>
				<v:ud v:nameU="visVersion" v:prompt="" v:val="VT0(15):26"/>
				<v:ud v:nameU="ConnGap" v:prompt="" v:val="VT0(0.00012908222537757):24"/>
			</v:userDefs>
			<title>Transaction</title>
			<desc>Map Dataset</desc>
			<g id="shape244-160" v:mID="244" v:groupContext="shape" v:layerMember="0" transform="translate(0,-38.7549)">
				<title>Sheet.244</title>
				<ellipse cx="16.0556" cy="393.962" rx="16.0556" ry="16.0556" class="st1"/>
			</g>
			<g id="shape245-162" v:mID="245" v:groupContext="shape" v:layerMember="0" transform="translate(7.76324,5.68434E-14)">
				<title>Sheet.245</title>
				<path d="M63.1 377.69 L31.07 377.69 L31.07 410.02 L63.1 410.02 L63.1 377.69 ZM10.05 392.65 C10.01 392.65 9.97 392.6
							 9.97 392.56 L9.97 372.57 L16.67 379.33 L16.67 373.87 L8.34 365.45 L0 373.87 L0 379.34 L6.18 373.1 L6.18
							 392.56 C6.18 394.72 7.92 396.47 10.05 396.47 L29.31 396.47 L29.31 392.65 L10.05 392.65 L10.05 392.65
							 Z" class="st5"/>
			</g>
			<g id="shape246-164" v:mID="246" v:groupContext="shape" v:layerMember="0" transform="translate(34.1671,-25.6931)">
				<title>Sheet.246</title>
				<path d="M23.13 402.37 L23.13 382.91 C23.13 380.75 21.39 379 19.25 379 L0 379 L0 382.83 L19.25 382.83 C19.3 382.83
							 19.34 382.87 19.34 382.91 L19.34 402.9 L12.64 396.14 L12.64 401.6 L20.97 410.02 L29.31 401.6 L29.31
							 396.13 L23.13 402.37 Z" class="st1"/>
			</g>
			<g id="shape243-166" v:mID="243" v:groupContext="groupContent" v:layerMember="0">
				<v:textBlock v:margins="rect(4,4,4,4)" v:tabSpace="42.5197"/>
				<v:textRect cx="35.4331" cy="420.019" width="66.87" height="20.0036"/>
				<text x="7.37" y="423.02" class="st7" v:langID="2057"><v:paragraph v:horizAlign="1"/><v:tabList/>Map Dataset</text>			</g>
		</g>
		<g id="shape247-168" v:mID="247" v:groupContext="shape" v:layerMember="1" transform="translate(1196.37,-225.515)">
			<title>Dynamic connector.247</title>
			<path d="M0 402.93 L-92.65 402.93" class="st8"/>
		</g>
		<g id="group248-173" transform="translate(856.22,-197.169)" v:mID="248" v:groupContext="group" v:layerMember="0">
			<v:userDefs>
				<v:ud v:nameU="visVersion" v:prompt="" v:val="VT0(15):26"/>
				<v:ud v:nameU="ConnGap" v:prompt="" v:val="VT0(0.00012908222537757):24"/>
			</v:userDefs>
			<title>Agreement</title>
			<desc>Obtain Approval</desc>
			<g id="shape249-174" v:mID="249" v:groupContext="shape" v:layerMember="0" transform="translate(0,-28.6299)">
				<title>Sheet.249</title>
				<path d="M45.13 398.42 L51.64 398.42 L52.6 404.69 L60.6 398.42 L62.89 398.42 C67.29 398.42 70.87 394.91 70.87 390.59
							 L70.87 375.62 C70.87 371.3 67.29 367.78 62.89 367.78 L33.3 367.78 A8.37736 8.23058 -180 0 0 25.67 373.11
							 L7.98 373.11 C3.58 373.11 0 376.63 0 380.95 L0 395.92 C0 400.24 3.58 403.76 7.98 403.76 L26.32 403.76
							 L27.28 410.02 L35.29 403.76 L37.57 403.76 C41.08 403.76 44.06 401.52 45.13 398.42 Z" class="st3"/>
			</g>
			<g id="shape250-177" v:mID="250" v:groupContext="shape" v:layerMember="0" transform="translate(25.3183,-40.2229)">
				<title>Sheet.250</title>
				<path d="M19.81 410.02 C20.08 409.23 20.23 408.39 20.23 407.51 L20.23 392.54 C20.23 388.22 16.65 384.7 12.25 384.7
							 L0.4 384.7 L0 386.56 L12.25 386.56 C14.93 386.56 17.21 388.27 18.02 390.64 L18.02 390.63 C18.23 391.23
							 18.34 391.87 18.34 392.54 L18.34 407.51 C18.34 408.4 18.14 409.25 17.78 410.02 L19.81 410.02 ZM0 387.77
							 L0 402.18 C0 406.5 3.58 410.02 7.98 410.02 L16.37 410.02 C16.72 409.46 16.96 408.84 17.05 408.16 L7.98
							 408.16 C4.62 408.16 1.89 405.48 1.89 402.18 L1.89 387.77 L0 387.77 Z" class="st10"/>
			</g>
			<g id="shape251-180" v:mID="251" v:groupContext="shape" v:layerMember="0" transform="translate(29.5545,-46.1239)">
				<title>Sheet.251</title>
				<path d="M23.76 394.43 L20.87 391.59 L8.94 403.32 L7.91 404.33 L6.88 403.32 L2.89 399.4 L0 402.24 L7.91 410.02 L23.76
							 394.43 Z" class="st1"/>
			</g>
			<g id="shape252-182" v:mID="252" v:groupContext="shape" v:layerMember="0" transform="translate(4.09409,6.04871E-08)">
				<title>Sheet.252</title>
				<path d="M34.84 410.02 L39.14 410.02 L39.14 403.76 L40.58 403.76 L40.58 410.02 L57.78 410.02 L57.78 403.76 L59.22
							 403.76 L59.22 410.02 L63.52 410.02 L63.52 401.77 C63.52 398.57 60.88 395.98 57.63 395.98 L40.75 395.98
							 C37.5 395.98 34.86 398.57 34.84 401.77 L34.84 410.02 ZM0 410.02 L4.3 410.02 L4.3 403.76 L5.74 403.76
							 L5.74 410.02 L22.94 410.02 L22.94 403.76 L24.38 403.76 L24.38 410.02 L28.68 410.02 L28.68 401.77 C28.68
							 398.57 26.03 395.98 22.79 395.98 L5.91 395.98 C2.66 395.98 0.02 398.57 0 401.77 L0 410.02 ZM41.03 386.85
							 A8.25121 8.10437 -180 1 1 57.53 386.85 A8.25121 8.10437 -180 1 1 41.03 386.85 ZM6.19 386.85 A8.25121
							 8.10437 -180 1 1 22.69 386.85 A8.25121 8.10437 -180 1 1 6.19 386.85 Z" class="st6"/>
			</g>
			<g id="shape248-185" v:mID="248" v:groupContext="groupContent" v:layerMember="0">
				<v:textBlock v:margins="rect(4,4,4,4)" v:tabSpace="42.5197"/>
				<v:textRect cx="35.4331" cy="420.019" width="83.31" height="20.0036"/>
				<text x="-0.85" y="423.02" class="st7" v:langID="2057"><v:paragraph v:horizAlign="1"/><v:tabList/>Obtain Approval</text>			</g>
		</g>
		<g id="shape253-187" v:mID="253" v:groupContext="shape" v:layerMember="1" transform="translate(1026.29,-225.515)">
			<title>Dynamic connector.253</title>
			<path d="M0 402.93 L-92.65 402.93" class="st8"/>
		</g>
		<g id="group259-192" transform="translate(686.142,-197.169)" v:mID="259" v:groupContext="group" v:layerMember="0">
			<v:userDefs>
				<v:ud v:nameU="visVersion" v:prompt="" v:val="VT0(15):26"/>
				<v:ud v:nameU="ConnGap" v:prompt="" v:val="VT0(0.00012908222537757):24"/>
			</v:userDefs>
			<title>Brainstorm.259</title>
			<desc>Design API</desc>
			<g id="shape260-193" v:mID="260" v:groupContext="shape" v:layerMember="0">
				<title>Sheet.260</title>
				<path d="M63.49 360.13 C63.81 359.11 63.97 358.05 63.97 356.97 C63.97 350.89 58.92 345.93 52.72 345.91 C50.97 341.84
							 46.88 339.15 42.33 339.15 C39.83 339.15 37.41 339.97 35.43 341.47 C33.46 339.97 31.04 339.15 28.53 339.15
							 C23.99 339.15 19.9 341.84 18.14 345.91 C11.94 345.93 6.9 350.89 6.9 356.97 C6.9 358.05 7.06 359.1 7.38
							 360.13 C2.99 361.72 0 365.85 0 370.5 C0 376.6 5.06 381.56 11.28 381.56 C12.49 381.56 13.67 381.38 14.8
							 381.01 C16.17 383.43 18.77 384.94 21.63 384.94 C21.67 384.94 21.7 384.94 21.73 384.94 L19.72 392.08
							 L26.49 392.08 L25.37 398.81 L31.6 398.99 L30.02 410.02 L53.09 390.15 L45.17 390.15 L48.32 384.89 C48.62
							 384.93 48.93 384.94 49.23 384.94 C52.1 384.94 54.7 383.43 56.07 381.01 C57.2 381.38 58.38 381.56 59.58
							 381.56 C65.8 381.56 70.87 376.6 70.87 370.5 C70.87 365.85 67.88 361.72 63.49 360.13 Z" class="st1"/>
			</g>
			<g id="shape261-195" v:mID="261" v:groupContext="shape" v:layerMember="0" transform="translate(23.6515,-17.9131)">
				<title>Sheet.261</title>
				<v:userDefs>
					<v:ud v:nameU="SurroundingRegionColor" v:prompt="" v:val="VT0(1):26"/>
					<v:ud v:nameU="SurroundingRegionColor" v:prompt="" v:val="VT5(#005eb8)"/>
				</v:userDefs>
				<path d="M12.16 378.29 L12.02 378.29 C5.39 378.29 0 383.58 0 390.07 C0 393.77 1.8 397.29 4.82 399.51 C5.96 400.44
							 6.4 400.9 6.63 401.38 L6.79 401.71 C6.46 402.19 6.25 402.77 6.25 403.41 C6.25 404.93 7.39 406.16 8.8
							 406.23 L8.81 406.33 C8.83 407.26 8.87 408.55 9.67 409.16 C10.26 409.71 11.11 410.02 12.07 410.02 C13.37
							 410.02 14.46 409.47 14.99 408.56 L15.18 408.22 C15.18 408.22 15.36 406.46 15.37 406.38 L15.38 406.23
							 C16.79 406.15 17.91 404.92 17.91 403.41 C17.91 402.78 17.71 402.2 17.38 401.72 L17.54 401.38 C17.77
							 400.9 18.22 400.44 19.36 399.51 C22.38 397.3 24.18 393.77 24.18 390.08 C24.18 383.58 18.78 378.29 12.16
							 378.29 Z" class="st10"/>
				<path d="M6.79 401.72 L17.38 401.72" class="st4"/>
				<path d="M8.81 406.33 L15.37 406.33" class="st4"/>
			</g>
			<g id="shape262-199" v:mID="262" v:groupContext="shape" v:layerMember="0" transform="translate(7.24466,-36.8885)">
				<title>Sheet.262</title>
				<path d="M46 410.02 L57.7 410.02" class="st12"/>
				<path d="M49.94 392.11 L41.68 400.22" class="st12"/>
				<path d="M28.65 383.95 L28.65 395.42" class="st12"/>
				<path d="M7.76 391.54 L16.03 399.64" class="st12"/>
				<path d="M0 410.02 L11.7 410.02" class="st12"/>
			</g>
			<g id="shape259-206" v:mID="259" v:groupContext="groupContent" v:layerMember="0">
				<v:textBlock v:margins="rect(4,4,4,4)" v:tabSpace="42.5197"/>
				<v:textRect cx="35.4331" cy="420.019" width="58.65" height="20.0036"/>
				<text x="11.48" y="423.02" class="st7" v:langID="2057"><v:paragraph v:horizAlign="1"/><v:tabList/>Design API</text>			</g>
		</g>
		<g id="shape263-208" v:mID="263" v:groupContext="shape" v:layerMember="1" transform="translate(856.211,-225.515)">
			<title>Dynamic connector.263</title>
			<path d="M0 402.93 L-92.65 402.93" class="st8"/>
		</g>
		<g id="group264-213" transform="translate(501.89,-197.169)" v:mID="264" v:groupContext="group" v:layerMember="0">
			<v:userDefs>
				<v:ud v:nameU="visVersion" v:prompt="" v:val="VT0(15):26"/>
				<v:ud v:nameU="ConnGap" v:prompt="" v:val="VT0(0.00012908222537757):24"/>
			</v:userDefs>
			<title>Author</title>
			<desc>Document Interaction Flow</desc>
			<g id="shape265-214" v:mID="265" v:groupContext="shape" v:layerMember="0"
					transform="translate(345.553,56.8717) rotate(45)">
				<title>Sheet.265</title>
				<rect x="0" y="408.606" width="10.7368" height="1.41164" class="st1"/>
			</g>
			<g id="shape266-216" v:mID="266" v:groupContext="shape" v:layerMember="0"
					transform="translate(-227.494,645.185) rotate(-135.008)">
				<title>Sheet.266</title>
				<rect x="0" y="408.609" width="10.7354" height="1.4088" class="st1"/>
			</g>
			<g id="shape267-218" v:mID="267" v:groupContext="shape" v:layerMember="0" transform="translate(7.20633,-7.20638)">
				<title>Sheet.267</title>
				<path d="M46.61 355.83 L0 402.44 L7.58 410.02 L54.18 363.41 L46.61 355.83 Z" class="st5"/>
			</g>
			<g id="shape268-220" v:mID="268" v:groupContext="shape" v:layerMember="0">
				<title>Sheet.268</title>
				<path d="M70.1 347.5 C71.12 346.49 71.12 344.84 70.1 343.82 L66.19 339.91 C65.18 338.9 63.53 338.9 62.51 339.91 L58.65
							 343.77 L66.25 351.36 L70.1 347.5 ZM56.62 345.8 L64.22 353.39 L65.02 352.59 L57.42 345 L56.62 345.8 ZM62.39
							 355.22 L63.22 354.39 L55.63 346.8 L54.8 347.62 L62.39 355.22 ZM0 408.23 L1.79 410.02 C6.96 406.48 10.97
							 404.49 13.08 403.56 L6.45 396.94 C5.52 399.04 3.54 403.06 0 408.23 Z" class="st1"/>
			</g>
			<g id="shape264-222" v:mID="264" v:groupContext="groupContent" v:layerMember="0">
				<v:textBlock v:margins="rect(4,4,4,4)" v:tabSpace="42.5197"/>
				<v:textRect cx="35.4331" cy="420.019" width="130.11" height="20.0036"/>
				<text x="-24.25" y="423.02" class="st7" v:langID="2057"><v:paragraph v:horizAlign="1"/><v:tabList/>Document Interaction Flow</text>			</g>
		</g>
		<g id="shape269-224" v:mID="269" v:groupContext="shape" v:layerMember="1" transform="translate(686.132,-225.515)">
			<title>Dynamic connector.269</title>
			<path d="M0 402.93 L-106.83 402.93" class="st8"/>
		</g>
		<g id="group270-229" transform="translate(303.465,-197.169)" v:mID="270" v:groupContext="group" v:layerMember="0">
			<v:userDefs>
				<v:ud v:nameU="visVersion" v:prompt="" v:val="VT0(15):26"/>
				<v:ud v:nameU="ConnGap" v:prompt="" v:val="VT0(0.00012908222537757):24"/>
			</v:userDefs>
			<title>Author.270</title>
			<desc>Document Additional Technical Context</desc>
			<g id="shape271-230" v:mID="271" v:groupContext="shape" v:layerMember="0"
					transform="translate(345.553,56.8717) rotate(45)">
				<title>Sheet.271</title>
				<rect x="0" y="408.606" width="10.7368" height="1.41164" class="st1"/>
			</g>
			<g id="shape272-232" v:mID="272" v:groupContext="shape" v:layerMember="0"
					transform="translate(-227.494,645.185) rotate(-135.008)">
				<title>Sheet.272</title>
				<rect x="0" y="408.609" width="10.7354" height="1.4088" class="st1"/>
			</g>
			<g id="shape273-234" v:mID="273" v:groupContext="shape" v:layerMember="0" transform="translate(7.20633,-7.20638)">
				<title>Sheet.273</title>
				<path d="M46.61 355.83 L0 402.44 L7.58 410.02 L54.18 363.41 L46.61 355.83 Z" class="st5"/>
			</g>
			<g id="shape274-236" v:mID="274" v:groupContext="shape" v:layerMember="0">
				<title>Sheet.274</title>
				<path d="M70.1 347.5 C71.12 346.49 71.12 344.84 70.1 343.82 L66.19 339.91 C65.18 338.9 63.53 338.9 62.51 339.91 L58.65
							 343.77 L66.25 351.36 L70.1 347.5 ZM56.62 345.8 L64.22 353.39 L65.02 352.59 L57.42 345 L56.62 345.8 ZM62.39
							 355.22 L63.22 354.39 L55.63 346.8 L54.8 347.62 L62.39 355.22 ZM0 408.23 L1.79 410.02 C6.96 406.48 10.97
							 404.49 13.08 403.56 L6.45 396.94 C5.52 399.04 3.54 403.06 0 408.23 Z" class="st1"/>
			</g>
			<g id="shape270-238" v:mID="270" v:groupContext="groupContent" v:layerMember="0">
				<v:textBlock v:margins="rect(4,4,4,4)" v:tabSpace="42.5197"/>
				<v:textRect cx="35.4331" cy="426.019" width="177.17" height="32.0037"/>
				<text x="-33.55" y="423.02" class="st7" v:langID="2057"><v:paragraph v:horizAlign="1"/><v:tabList/>Document Additional Technical <tspan
							x="18.28" dy="1.2em" class="st11">Context</tspan></text>			</g>
		</g>
		<g id="shape275-241" v:mID="275" v:groupContext="shape" v:layerMember="1" transform="translate(501.88,-225.515)">
			<title>Dynamic connector.275</title>
			<path d="M0 402.93 L-121 402.93" class="st8"/>
		</g>
		<g id="group276-246" transform="translate(105.039,-197.169)" v:mID="276" v:groupContext="group" v:layerMember="0">
			<v:userDefs>
				<v:ud v:nameU="visVersion" v:prompt="" v:val="VT0(15):26"/>
				<v:ud v:nameU="ConnGap" v:prompt="" v:val="VT0(0.00012908222537757):24"/>
			</v:userDefs>
			<title>Agreement.276</title>
			<desc>Resolve Curation Requirements</desc>
			<g id="shape277-247" v:mID="277" v:groupContext="shape" v:layerMember="0" transform="translate(0,-28.6299)">
				<title>Sheet.277</title>
				<path d="M45.13 398.42 L51.64 398.42 L52.6 404.69 L60.6 398.42 L62.89 398.42 C67.29 398.42 70.87 394.91 70.87 390.59
							 L70.87 375.62 C70.87 371.3 67.29 367.78 62.89 367.78 L33.3 367.78 A8.37736 8.23058 -180 0 0 25.67 373.11
							 L7.98 373.11 C3.58 373.11 0 376.63 0 380.95 L0 395.92 C0 400.24 3.58 403.76 7.98 403.76 L26.32 403.76
							 L27.28 410.02 L35.29 403.76 L37.57 403.76 C41.08 403.76 44.06 401.52 45.13 398.42 Z" class="st3"/>
			</g>
			<g id="shape278-250" v:mID="278" v:groupContext="shape" v:layerMember="0" transform="translate(25.3183,-40.2229)">
				<title>Sheet.278</title>
				<path d="M19.81 410.02 C20.08 409.23 20.23 408.39 20.23 407.51 L20.23 392.54 C20.23 388.22 16.65 384.7 12.25 384.7
							 L0.4 384.7 L0 386.56 L12.25 386.56 C14.93 386.56 17.21 388.27 18.02 390.64 L18.02 390.63 C18.23 391.23
							 18.34 391.87 18.34 392.54 L18.34 407.51 C18.34 408.4 18.14 409.25 17.78 410.02 L19.81 410.02 ZM0 387.77
							 L0 402.18 C0 406.5 3.58 410.02 7.98 410.02 L16.37 410.02 C16.72 409.46 16.96 408.84 17.05 408.16 L7.98
							 408.16 C4.62 408.16 1.89 405.48 1.89 402.18 L1.89 387.77 L0 387.77 Z" class="st10"/>
			</g>
			<g id="shape279-253" v:mID="279" v:groupContext="shape" v:layerMember="0" transform="translate(29.5545,-46.1239)">
				<title>Sheet.279</title>
				<path d="M23.76 394.43 L20.87 391.59 L8.94 403.32 L7.91 404.33 L6.88 403.32 L2.89 399.4 L0 402.24 L7.91 410.02 L23.76
							 394.43 Z" class="st1"/>
			</g>
			<g id="shape280-255" v:mID="280" v:groupContext="shape" v:layerMember="0" transform="translate(4.09409,6.04871E-08)">
				<title>Sheet.280</title>
				<path d="M34.84 410.02 L39.14 410.02 L39.14 403.76 L40.58 403.76 L40.58 410.02 L57.78 410.02 L57.78 403.76 L59.22
							 403.76 L59.22 410.02 L63.52 410.02 L63.52 401.77 C63.52 398.57 60.88 395.98 57.63 395.98 L40.75 395.98
							 C37.5 395.98 34.86 398.57 34.84 401.77 L34.84 410.02 ZM0 410.02 L4.3 410.02 L4.3 403.76 L5.74 403.76
							 L5.74 410.02 L22.94 410.02 L22.94 403.76 L24.38 403.76 L24.38 410.02 L28.68 410.02 L28.68 401.77 C28.68
							 398.57 26.03 395.98 22.79 395.98 L5.91 395.98 C2.66 395.98 0.02 398.57 0 401.77 L0 410.02 ZM41.03 386.85
							 A8.25121 8.10437 -180 1 1 57.53 386.85 A8.25121 8.10437 -180 1 1 41.03 386.85 ZM6.19 386.85 A8.25121
							 8.10437 -180 1 1 22.69 386.85 A8.25121 8.10437 -180 1 1 6.19 386.85 Z" class="st6"/>
			</g>
			<g id="shape276-258" v:mID="276" v:groupContext="groupContent" v:layerMember="0">
				<v:textBlock v:margins="rect(4,4,4,4)" v:tabSpace="42.5197"/>
				<v:textRect cx="35.4331" cy="420.019" width="148.75" height="20.0036"/>
				<text x="-33.57" y="423.02" class="st7" v:langID="2057"><v:paragraph v:horizAlign="1"/><v:tabList/>Resolve Curation Requirements</text>			</g>
		</g>
		<g id="shape281-260" v:mID="281" v:groupContext="shape" v:layerMember="1" transform="translate(97.9435,-232.602)">
			<title>Dynamic connector.281</title>
			<path d="M7.09 410.02 L-77.94 410.02 L-77.94 587.18 L0.55 587.18" class="st8"/>
		</g>
		<g id="group282-265" transform="translate(105.039,-20.0036)" v:mID="282" v:groupContext="group" v:layerMember="0">
			<v:userDefs>
				<v:ud v:nameU="visVersion" v:prompt="" v:val="VT0(15):26"/>
				<v:ud v:nameU="ConnGap" v:prompt="" v:val="VT0(0.00012908222537757):24"/>
			</v:userDefs>
			<title>Present</title>
			<desc>Present Case Study</desc>
			<g id="shape283-266" v:mID="283" v:groupContext="shape" v:layerMember="0" transform="translate(0,-35.083)">
				<title>Sheet.283</title>
				<rect x="0" y="374.234" width="70.8661" height="35.7831" class="st5"/>
			</g>
			<g id="shape284-268" v:mID="284" v:groupContext="shape" v:layerMember="0" transform="translate(44.7739,-31.315)">
				<title>Sheet.284</title>
				<path d="M18.46 385.09 C18.46 385.09 2.47 385.08 0 385.08 L0 389.53 L0 389.53 L6 389.53 C7.55 389.53 8.19 390.2 8.21
							 391.35 L8.23 410.02 L12.95 410.02 L12.95 402.74 C12.95 402.48 13.16 402.28 13.41 402.28 C13.66 402.28
							 13.87 402.48 13.87 402.74 L13.87 410.02 L18.33 410.02 L18.33 393.73 L19.24 393.73 L19.24 400.86 L21.98
							 400.86 L21.98 388.6 C21.98 386.66 20.4 385.09 18.46 385.09 ZM8.39 379.61 A5.02191 5.02077 -180 1 1 18.43
							 379.61 A5.02191 5.02077 -180 1 1 8.39 379.61 Z" class="st1"/>
			</g>
			<g id="shape285-270" v:mID="285" v:groupContext="shape" v:layerMember="0" transform="translate(1.06654,5.68434E-14)">
				<title>Sheet.285</title>
				<path d="M64.64 394.64 L52.3 394.64 C49.9 394.64 47.96 396.58 47.96 398.97 L47.96 410.02 L51.34 410.02 L51.34 403.86
							 L52.47 403.86 L52.47 410.02 L64.92 410.02 L64.92 403.86 L66.05 403.86 L66.05 410.02 L68.98 410.02 L68.98
							 398.97 C68.98 396.58 67.03 394.64 64.64 394.64 ZM40.66 394.64 L28.32 394.64 C25.92 394.64 23.98 396.58
							 23.98 398.97 L23.98 410.02 L27.36 410.02 L27.36 403.86 L28.49 403.86 L28.49 410.02 L40.94 410.02 L40.94
							 403.86 L42.07 403.86 L42.07 410.02 L45 410.02 L45 398.97 C45 396.58 43.05 394.64 40.66 394.64 ZM16.68
							 394.64 L4.34 394.64 C1.94 394.64 0 396.58 0 398.97 L0 410.02 L3.38 410.02 L3.38 403.86 L4.51 403.86
							 L4.51 410.02 L16.96 410.02 L16.96 403.86 L18.09 403.86 L18.09 410.02 L21.02 410.02 L21.02 398.97 C21.02
							 396.58 19.07 394.64 16.68 394.64 ZM52.33 387.87 A6.20118 6.19654 -180 1 1 64.74 387.87 A6.20118 6.19654
							 -180 1 1 52.33 387.87 ZM28.36 387.87 A6.19428 6.19654 -180 1 1 40.75 387.87 A6.19428 6.19654 -180 1
							 1 28.36 387.87 ZM4.38 387.87 A6.19428 6.19654 -180 1 1 16.77 387.87 A6.19428 6.19654 -180 1 1 4.38 387.87
							 Z" class="st6"/>
			</g>
			<g id="shape282-273" v:mID="282" v:groupContext="groupContent" v:layerMember="0">
				<v:textBlock v:margins="rect(4,4,4,4)" v:tabSpace="42.5197"/>
				<v:textRect cx="35.4331" cy="420.019" width="94.89" height="20.0036"/>
				<text x="-6.64" y="423.02" class="st7" v:langID="2057"><v:paragraph v:horizAlign="1"/><v:tabList/>Present Case Study</text>			</g>
		</g>
		<g id="shape290-275" v:mID="290" v:groupContext="shape" v:layerMember="1" transform="translate(303.455,-225.515)">
			<title>Dynamic connector.290</title>
			<path d="M0 402.93 L-121 402.93" class="st8"/>
		</g>
		<g id="group295-280" transform="translate(303.465,-20.0036)" v:mID="295" v:groupContext="group" v:layerMember="0">
			<v:userDefs>
				<v:ud v:nameU="visVersion" v:prompt="" v:val="VT0(15):26"/>
				<v:ud v:nameU="ConnGap" v:prompt="" v:val="VT0(0.00012908222537757):24"/>
			</v:userDefs>
			<title>Transaction.295</title>
			<desc>Implement Solution</desc>
			<g id="shape296-281" v:mID="296" v:groupContext="shape" v:layerMember="0" transform="translate(0,-38.7549)">
				<title>Sheet.296</title>
				<ellipse cx="16.0556" cy="393.962" rx="16.0556" ry="16.0556" class="st1"/>
			</g>
			<g id="shape297-283" v:mID="297" v:groupContext="shape" v:layerMember="0" transform="translate(7.76324,5.68434E-14)">
				<title>Sheet.297</title>
				<path d="M63.1 377.69 L31.07 377.69 L31.07 410.02 L63.1 410.02 L63.1 377.69 ZM10.05 392.65 C10.01 392.65 9.97 392.6
							 9.97 392.56 L9.97 372.57 L16.67 379.33 L16.67 373.87 L8.34 365.45 L0 373.87 L0 379.34 L6.18 373.1 L6.18
							 392.56 C6.18 394.72 7.92 396.47 10.05 396.47 L29.31 396.47 L29.31 392.65 L10.05 392.65 L10.05 392.65
							 Z" class="st5"/>
			</g>
			<g id="shape298-285" v:mID="298" v:groupContext="shape" v:layerMember="0" transform="translate(34.1671,-25.6931)">
				<title>Sheet.298</title>
				<path d="M23.13 402.37 L23.13 382.91 C23.13 380.75 21.39 379 19.25 379 L0 379 L0 382.83 L19.25 382.83 C19.3 382.83
							 19.34 382.87 19.34 382.91 L19.34 402.9 L12.64 396.14 L12.64 401.6 L20.97 410.02 L29.31 401.6 L29.31
							 396.13 L23.13 402.37 Z" class="st1"/>
			</g>
			<g id="shape295-287" v:mID="295" v:groupContext="groupContent" v:layerMember="0">
				<v:textBlock v:margins="rect(4,4,4,4)" v:tabSpace="42.5197"/>
				<v:textRect cx="35.4331" cy="420.019" width="97.76" height="20.0036"/>
				<text x="-8.08" y="423.02" class="st7" v:langID="2057"><v:paragraph v:horizAlign="1"/><v:tabList/>Implement Solution</text>			</g>
		</g>
		<g id="shape299-289" v:mID="299" v:groupContext="shape" v:layerMember="1" transform="translate(175.915,-48.3501)">
			<title>Dynamic connector.299</title>
			<path d="M0 402.93 L121 402.93" class="st8"/>
		</g>
		<g id="group300-294" transform="translate(501.89,-20.0036)" v:mID="300" v:groupContext="group" v:layerMember="0">
			<v:userDefs>
				<v:ud v:nameU="visVersion" v:prompt="" v:val="VT0(15):26"/>
				<v:ud v:nameU="ConnGap" v:prompt="" v:val="VT0(0.00012908222537757):24"/>
			</v:userDefs>
			<title>Review</title>
			<desc>Lessons Learnt</desc>
			<g id="shape301-295" v:mID="301" v:groupContext="shape" v:layerMember="0" transform="translate(28.7894,5.68434E-14)">
				<title>Sheet.301</title>
				<path d="M42.08 364.6 L31.62 353.92 L0 353.92 L0 410.02 L42.08 410.02 L42.08 364.6 Z" class="st1"/>
			</g>
			<g id="shape302-297" v:mID="302" v:groupContext="shape" v:layerMember="0" transform="translate(36.4596,-11.2862)">
				<title>Sheet.302</title>
				<v:userDefs>
					<v:ud v:nameU="SurroundingRegionColor" v:prompt="" v:val="VT5(1)"/>
					<v:ud v:nameU="SurroundingRegionColor" v:prompt="" v:val="VT5(#005eb8)"/>
				</v:userDefs>
				<path d="M15.78 410.02 L26.52 410.02 L26.52 408.59 L15.78 408.59 L15.78 410.02 ZM0 403.33 L26.52 403.33 L26.52 401.91
							 L0 401.91 L0 403.33 ZM0 396.65 L26.52 396.65 L26.52 395.22 L0 395.22 L0 396.65 ZM0 389.97 L26.52 389.97
							 L26.52 388.54 L0 388.54 L0 389.97 ZM0 383.28 L10.74 383.28 L10.74 381.86 L0 381.86 L0 383.28 ZM0 376.6
							 L10.74 376.6 L10.74 375.17 L0 375.17 L0 376.6 ZM23.64 365.58 L23.64 375.92 L33.77 375.92 L23.64 365.58
							 Z" class="st10"/>
			</g>
			<g id="shape303-300" v:mID="303" v:groupContext="shape" v:layerMember="0" transform="translate(0,-38.8578)">
				<title>Sheet.303</title>
				<path d="M42.3 394.69 L36.92 383.11 C35.63 379.92 33.27 378.01 30.63 378.01 L30.5 378.01 C26.37 378.1 22.98 381.07
							 22.44 385.05 L22.25 386.38 L25.82 386.38 L25.98 385.4 C26.35 383.17 28.26 381.55 30.53 381.55 C31.21
							 381.55 32.61 382.42 33.43 384.03 L33.6 384.39 C33.78 384.81 34.21 385.7 34.21 385.7 L35.99 389.53 C35.04
							 389.25 34.04 389.11 33.03 389.11 C28.07 389.11 23.79 392.66 22.77 397.39 C22.1 397.33 21.42 397.33 20.75
							 397.4 C19.74 392.66 15.45 389.11 10.49 389.11 C9.5 389.11 8.52 389.25 7.58 389.52 L9.34 385.72 C9.34
							 385.72 9.78 384.81 9.94 384.43 L10.11 384.07 C10.95 382.43 12.24 381.55 13.04 381.55 C15.3 381.55 17.22
							 383.17 17.58 385.4 L17.75 386.38 L21.31 386.38 L21.13 385.05 C20.58 381.04 17.1 378.01 13.04 378.01
							 C10.61 378.01 7.8 380.25 6.67 383.06 L1.5 394.18 C0.52 395.8 0 397.66 0 399.56 C0 405.33 4.71 410.02
							 10.49 410.02 C15.8 410.02 20.2 406.1 20.89 400.95 C21.46 400.87 22.05 400.86 22.62 400.93 C23.29 406.1
							 27.69 410.02 33.02 410.02 C38.81 410.02 43.51 405.33 43.51 399.56 C43.51 397.85 43.08 396.14 42.3 394.69
							 Z" class="st3"/>
			</g>
			<g id="shape304-303" v:mID="304" v:groupContext="shape" v:layerMember="0" transform="translate(3.55143,-42.3973)">
				<title>Sheet.304</title>
				<v:userDefs>
					<v:ud v:nameU="SurroundingRegionColor" v:prompt="" v:val="VT5(0)"/>
					<v:ud v:nameU="SurroundingRegionColor" v:prompt="" v:val="VT5(#000bae)"/>
				</v:userDefs>
				<path d="M29.47 410.02 C33.3 410.02 36.41 406.92 36.41 403.1 C36.41 402.25 36.26 401.41 35.95 400.62 L35.53 399.74
							 C34.35 397.58 32.01 396.19 29.47 396.19 C25.65 396.19 22.53 399.29 22.53 403.1 C22.53 406.92 25.65 410.02
							 29.47 410.02 ZM6.94 410.02 C10.76 410.02 13.88 406.92 13.88 403.1 C13.88 399.29 10.76 396.19 6.94 396.19
							 C4.54 396.19 2.35 397.4 1.07 399.43 L0.54 400.42 C0.18 401.27 0 402.17 0 403.1 C0 406.92 3.11 410.02
							 6.94 410.02 Z" class="st13"/>
			</g>
			<g id="shape300-306" v:mID="300" v:groupContext="groupContent" v:layerMember="0">
				<v:textBlock v:margins="rect(4,4,4,4)" v:tabSpace="42.5197"/>
				<v:textRect cx="35.4331" cy="420.019" width="75.22" height="20.0036"/>
				<text x="3.2" y="423.02" class="st7" v:langID="2057"><v:paragraph v:horizAlign="1"/><v:tabList/>Lessons Learnt</text>			</g>
		</g>
		<g id="shape305-308" v:mID="305" v:groupContext="shape" v:layerMember="1" transform="translate(374.34,-48.3501)">
			<title>Dynamic connector.305</title>
			<path d="M0 402.93 L121 402.93" class="st8"/>
		</g>
		<g id="group306-313" transform="translate(686.142,-20.0036)" v:mID="306" v:groupContext="group" v:layerMember="0">
			<v:userDefs>
				<v:ud v:nameU="visVersion" v:prompt="" v:val="VT0(15):26"/>
				<v:ud v:nameU="ConnGap" v:prompt="" v:val="VT0(0.00012908222537757):24"/>
			</v:userDefs>
			<title>End.43</title>
			<g id="shape307-314" v:mID="307" v:groupContext="shape" v:layerMember="0">
				<title>Sheet.307</title>
				<path d="M35.43 410.02 C15.9 410.02 0 394.12 0 374.58 C0 355.05 15.9 339.15 35.43 339.15 C54.97 339.15 70.87 355.05
							 70.87 374.58 C70.87 394.12 54.97 410.02 35.43 410.02 Z" class="st1"/>
			</g>
			<g id="shape308-316" v:mID="308" v:groupContext="shape" v:layerMember="0" transform="translate(19.8425,-19.8425)">
				<title>Sheet.308</title>
				<v:userDefs>
					<v:ud v:nameU="SurroundingRegionColor" v:prompt="" v:val="VT0(1):26"/>
					<v:ud v:nameU="SurroundingRegionColor" v:prompt="" v:val="VT5(#005eb8)"/>
				</v:userDefs>
				<path d="M0 410.02 L31.18 410.02 L31.18 378.84 L0 378.84 L0 410.02 Z" class="st2"/>
			</g>
		</g>
		<g id="shape309-319" v:mID="309" v:groupContext="shape" v:layerMember="1" transform="translate(572.765,-62.5233)">
			<title>Dynamic connector.309</title>
			<path d="M0 417.1 L106.83 417.1" class="st8"/>
		</g>
	</g>
</svg>
