<?xml version="1.0" encoding="UTF-8" standalone="no"?>
<!DOCTYPE svg PUBLIC "-//W3C//DTD SVG 1.1//EN" "http://www.w3.org/Graphics/SVG/1.1/DTD/svg11.dtd">
<!-- Generated by Microsoft Visio, SVG Export EngagementApproach.svg Page-1 -->
<svg xmlns="http://www.w3.org/2000/svg" xmlns:xlink="http://www.w3.org/1999/xlink" xmlns:ev="http://www.w3.org/2001/xml-events"
		xmlns:v="http://schemas.microsoft.com/visio/2003/SVGExtensions/" width="34.0787in" height="8.26772in"
		viewBox="0 0 2453.67 595.276" xml:space="preserve" color-interpolation-filters="sRGB" class="st14">
	<v:documentProperties v:langID="1033" v:metric="true" v:viewMarkup="false">
		<v:userDefs>
			<v:ud v:nameU="msvNoAutoConnect" v:val="VT0(0):26"/>
		</v:userDefs>
	</v:documentProperties>

	<style type="text/css">
	<![CDATA[
		.st1 {fill:#005eb8;stroke:#ffffff;stroke-linecap:round;stroke-linejoin:round;stroke-width:0.5}
		.st2 {fill:#00a2c9}
		.st3 {fill:#000bae}
		.st4 {stroke:#ffffff;stroke-linecap:round;stroke-linejoin:round;stroke-width:0.5}
		.st5 {fill:#000bae;stroke:#ffffff;stroke-linecap:round;stroke-linejoin:round;stroke-width:0.5}
		.st6 {fill:#005eb8}
		.st7 {fill:#000bae;font-family:Segoe UI;font-size:1.16666em}
		.st8 {marker-end:url(#mrkr4-41);stroke:#005db7;stroke-linecap:round;stroke-linejoin:round;stroke-opacity:0.6;stroke-width:0.75}
		.st9 {fill:#005db7;fill-opacity:0.6;stroke:#005db7;stroke-opacity:0.6;stroke-width:0.22935779816514}
		.st10 {font-size:1em}
		.st11 {fill:#ffffff}
		.st12 {stroke:#000c9d;stroke-linecap:round;stroke-linejoin:round;stroke-width:0.5}
		.st13 {fill:#feffff}
		.st14 {fill:none;fill-rule:evenodd;font-size:12px;overflow:visible;stroke-linecap:square;stroke-miterlimit:3}
	]]>
	</style>

	<defs id="Markers">
		<g id="lend4">
			<path d="M 2 1 L 0 0 L 2 -1 L 2 1 " style="stroke:none"/>
		</g>
		<marker id="mrkr4-41" class="st9" v:arrowType="4" v:arrowSize="2" v:setback="8.72" refX="-8.72" orient="auto"
				markerUnits="strokeWidth" overflow="visible">
			<use xlink:href="#lend4" transform="scale(-4.36,-4.36) "/>
		</marker>
	</defs>
	<g v:mID="0" v:index="1" v:groupContext="foregroundPage">
		<v:userDefs>
			<v:ud v:nameU="msvThemeOrder" v:val="VT0(0):26"/>
		</v:userDefs>
		<title>Page-1</title>
		<v:pageProperties v:drawingScale="0.0393701" v:pageScale="0.0393701" v:drawingUnits="24" v:shadowOffsetX="9"
				v:shadowOffsetY="-9"/>
		<v:layer v:name="Connector" v:index="0"/>
		<v:layer v:name="Flowchart" v:index="1"/>
		<g id="group203-1" transform="translate(862.583,-446.457)" v:mID="203" v:groupContext="group" v:layerMember="1">
			<v:userDefs>
				<v:ud v:nameU="visVersion" v:prompt="" v:val="VT0(15):26"/>
				<v:ud v:nameU="ConnGap" v:prompt="" v:val="VT0(0.00012908222537757):24"/>
			</v:userDefs>
			<title>Start.44</title>
			<g id="shape204-2" v:mID="204" v:groupContext="shape" v:layerMember="1">
				<title>Sheet.204</title>
				<path d="M35.43 595.28 C15.9 595.28 0 579.38 0 559.84 C0 540.3 15.9 524.41 35.43 524.41 C54.97 524.41 70.87 540.3
							 70.87 559.84 C70.87 579.38 54.97 595.28 35.43 595.28 Z" class="st1"/>
			</g>
			<g id="shape205-4" v:mID="205" v:groupContext="shape" v:layerMember="1" transform="translate(28.3465,-19.8269)">
				<title>Sheet.205</title>
				<v:userDefs>
					<v:ud v:nameU="SurroundingRegionColor" v:prompt="" v:val="VT0(1):26"/>
					<v:ud v:nameU="SurroundingRegionColor" v:prompt="" v:val="VT5(#005eb8)"/>
				</v:userDefs>
				<path d="M0 595.28 L24.8 579.67 L0 564.06 L0 595.28 Z" class="st2"/>
			</g>
		</g>
		<g id="group210-7" transform="translate(1062.07,-456.378)" v:mID="210" v:groupContext="group" v:layerMember="1">
			<v:userDefs>
				<v:ud v:nameU="visVersion" v:prompt="" v:val="VT0(15):26"/>
				<v:ud v:nameU="ConnGap" v:prompt="" v:val="VT0(0.00012908222537757):24"/>
			</v:userDefs>
			<title>Meeting</title>
			<desc>Document Client Context</desc>
			<g id="shape211-8" v:mID="211" v:groupContext="shape" v:layerMember="1" transform="translate(18.0118,-12.4022)">
				<title>Sheet.211</title>
				<path d="M13.67 569.86 L3.25 569.86 C2.5 569.86 1.81 570.11 1.26 570.55 C0.88 570.85 0.56 571.23 0.34 571.68 C0.12
							 572.12 0 572.62 0 573.14 L0 585.63 L2.85 585.63 L2.85 595.28 L13.97 595.28 L13.97 585.63 L16.93 585.63
							 L16.93 573.14 C16.93 572.38 16.67 571.69 16.24 571.13 C15.94 570.74 15.56 570.42 15.12 570.2 C14.69
							 569.98 14.2 569.86 13.67 569.86 ZM40.5 567.7 L30.08 567.7 C29.33 567.7 28.64 567.96 28.09 568.39 C27.71
							 568.69 27.39 569.08 27.17 569.52 C26.95 569.96 26.83 570.46 26.83 570.99 L26.83 583.47 L29.68 583.47
							 L29.68 593.12 L40.79 593.12 L40.79 583.47 L43.76 583.47 L43.76 570.99 C43.76 570.23 43.5 569.53 43.07
							 568.97 C42.77 568.59 42.39 568.27 41.95 568.05 C41.52 567.82 41.02 567.7 40.5 567.7 ZM13.33 563.68 A4.81307
							 4.8663 -180 1 0 3.71 563.68 A4.81307 4.8663 -180 1 0 13.33 563.68 ZM40.16 561.52 A4.81307 4.86244 -180
							 1 0 30.53 561.52 A4.81307 4.86244 -180 1 0 40.16 561.52 Z" class="st3"/>
				<path d="M13.67 569.86 L3.25 569.86 C2.5 569.86 1.81 570.11 1.26 570.55 C0.88 570.85 0.56 571.23 0.34 571.68 C0.12
							 572.12 0 572.62 0 573.14 L0 585.63 L2.85 585.63 L2.85 595.28 L13.97 595.28 L13.97 585.63 L16.93 585.63
							 L16.93 573.14 C16.93 572.38 16.67 571.69 16.24 571.13 C15.94 570.74 15.56 570.42 15.12 570.2 C14.69
							 569.98 14.2 569.86 13.67 569.86" class="st4"/>
				<path d="M8.46 595.28 L8.46 587.57" class="st4"/>
				<path d="M2.85 585.63 L2.85 578.98" class="st4"/>
				<path d="M13.97 585.63 L13.97 578.98" class="st4"/>
				<path d="M40.5 567.7 L30.08 567.7 C29.33 567.7 28.64 567.96 28.09 568.39 C27.71 568.69 27.39 569.08 27.17 569.52
							 C26.95 569.96 26.83 570.46 26.83 570.99 L26.83 583.47 L29.68 583.47 L29.68 593.12 L40.79 593.12 L40.79
							 583.47 L43.76 583.47 L43.76 570.99 C43.76 570.23 43.5 569.53 43.07 568.97 C42.77 568.59 42.39 568.27
							 41.95 568.05 C41.52 567.82 41.02 567.7 40.5 567.7" class="st4"/>
				<path d="M35.29 593.12 L35.29 585.41" class="st4"/>
				<path d="M29.68 583.47 L29.68 576.82" class="st4"/>
				<path d="M40.79 583.47 L40.79 576.82" class="st4"/>
				<path d="M13.33 563.68 A4.81307 4.8663 -180 1 0 3.71 563.68 A4.81307 4.8663 -180 1 0 13.33 563.68" class="st4"/>
				<path d="M40.16 561.52 A4.81307 4.86244 -180 1 0 30.53 561.52 A4.81307 4.86244 -180 1 0 40.16 561.52" class="st4"/>
			</g>
			<g id="shape212-20" v:mID="212" v:groupContext="shape" v:layerMember="1" transform="translate(0,-10.9224)">
				<title>Sheet.212</title>
				<path d="M29.02 595.28 L70.87 578.76 L42.26 572.79 L0 583.49 L29.02 595.28 Z" class="st5"/>
			</g>
			<g id="shape213-22" v:mID="213" v:groupContext="shape" v:layerMember="1" transform="translate(6.42108,2.27374E-13)">
				<title>Sheet.213</title>
				<path d="M13.67 569.86 L3.25 569.86 C2.5 569.86 1.81 570.11 1.26 570.55 C0.88 570.85 0.56 571.23 0.34 571.68 C0.12
							 572.12 0 572.62 0 573.14 L0 585.63 L2.85 585.63 L2.85 595.28 L13.97 595.28 L13.97 585.63 L16.93 585.63
							 L16.93 573.14 C16.93 572.38 16.67 571.69 16.24 571.13 C15.94 570.74 15.56 570.42 15.12 570.2 C14.69
							 569.98 14.2 569.86 13.67 569.86 ZM44.47 568.04 L34.05 568.04 C33.3 568.04 32.61 568.29 32.06 568.73
							 C31.68 569.03 31.36 569.41 31.14 569.86 C30.92 570.3 30.8 570.8 30.8 571.32 L30.8 583.81 L33.65 583.81
							 L33.65 593.46 L44.77 593.46 L44.77 583.81 L47.73 583.81 L47.73 571.32 C47.73 570.56 47.47 569.87 47.04
							 569.31 C46.74 568.92 46.36 568.6 45.93 568.38 C45.49 568.16 45 568.04 44.47 568.04 ZM13.33 563.68 A4.81089
							 4.86602 -180 1 0 3.71 563.68 A4.81089 4.86602 -180 1 0 13.33 563.68 ZM44.13 561.85 A4.81566 4.86219
							 -180 1 0 34.5 561.85 A4.81566 4.86219 -180 1 0 44.13 561.85 Z" class="st6"/>
				<path d="M13.67 569.86 L3.25 569.86 C2.5 569.86 1.81 570.11 1.26 570.55 C0.88 570.85 0.56 571.23 0.34 571.68 C0.12
							 572.12 0 572.62 0 573.14 L0 585.63 L2.85 585.63 L2.85 595.28 L13.97 595.28 L13.97 585.63 L16.93 585.63
							 L16.93 573.14 C16.93 572.38 16.67 571.69 16.24 571.13 C15.94 570.74 15.56 570.42 15.12 570.2 C14.69
							 569.98 14.2 569.86 13.67 569.86" class="st4"/>
				<path d="M8.46 595.28 L8.46 587.57" class="st4"/>
				<path d="M2.85 585.63 L2.85 578.98" class="st4"/>
				<path d="M13.97 585.63 L13.97 578.98" class="st4"/>
				<path d="M44.47 568.04 L34.05 568.04 C33.3 568.04 32.61 568.29 32.06 568.73 C31.68 569.03 31.36 569.41 31.14 569.86
							 C30.92 570.3 30.8 570.8 30.8 571.32 L30.8 583.81 L33.65 583.81 L33.65 593.46 L44.77 593.46 L44.77 583.81
							 L47.73 583.81 L47.73 571.32 C47.73 570.56 47.47 569.87 47.04 569.31 C46.74 568.92 46.36 568.6 45.93
							 568.38 C45.49 568.16 45 568.04 44.47 568.04" class="st4"/>
				<path d="M39.26 593.46 L39.26 585.75" class="st4"/>
				<path d="M33.65 583.81 L33.65 577.16" class="st4"/>
				<path d="M44.77 583.81 L44.77 577.16" class="st4"/>
				<path d="M13.33 563.68 A4.81089 4.86602 -180 1 0 3.71 563.68 A4.81089 4.86602 -180 1 0 13.33 563.68" class="st4"/>
				<path d="M44.13 561.85 A4.81566 4.86219 -180 1 0 34.5 561.85 A4.81566 4.86219 -180 1 0 44.13 561.85" class="st4"/>
			</g>
			<g id="shape210-34" v:mID="210" v:groupContext="groupContent" v:layerMember="1">
				<v:textBlock v:margins="rect(4,4,4,4)" v:tabSpace="42.5197"/>
				<v:textRect cx="35.4331" cy="607.677" width="167.44" height="24.8035"/>
				<text x="-42.36" y="611.88" class="st7" v:langID="2057"><v:paragraph v:horizAlign="1"/><v:tabList/>Document Client Context</text>			</g>
		</g>
		<g id="shape214-36" v:mID="214" v:groupContext="shape" v:layerMember="0" transform="translate(933.458,-474.803)">
			<title>Dynamic connector</title>
			<path d="M0 588.19 L122.06 588.19" class="st8"/>
		</g>
		<g id="group215-42" transform="translate(1239.68,-456.378)" v:mID="215" v:groupContext="group" v:layerMember="1">
			<v:userDefs>
				<v:ud v:nameU="visVersion" v:prompt="" v:val="VT0(15):26"/>
				<v:ud v:nameU="ConnGap" v:prompt="" v:val="VT0(0.00012908222537757):24"/>
			</v:userDefs>
			<title>Meeting.215</title>
			<desc>Document Case Overview</desc>
			<g id="shape216-43" v:mID="216" v:groupContext="shape" v:layerMember="1" transform="translate(18.0118,-12.4022)">
				<title>Sheet.216</title>
				<path d="M13.67 569.86 L3.25 569.86 C2.5 569.86 1.81 570.11 1.26 570.55 C0.88 570.85 0.56 571.23 0.34 571.68 C0.12
							 572.12 0 572.62 0 573.14 L0 585.63 L2.85 585.63 L2.85 595.28 L13.97 595.28 L13.97 585.63 L16.93 585.63
							 L16.93 573.14 C16.93 572.38 16.67 571.69 16.24 571.13 C15.94 570.74 15.56 570.42 15.12 570.2 C14.69
							 569.98 14.2 569.86 13.67 569.86 ZM40.5 567.7 L30.08 567.7 C29.33 567.7 28.64 567.96 28.09 568.39 C27.71
							 568.69 27.39 569.08 27.17 569.52 C26.95 569.96 26.83 570.46 26.83 570.99 L26.83 583.47 L29.68 583.47
							 L29.68 593.12 L40.79 593.12 L40.79 583.47 L43.76 583.47 L43.76 570.99 C43.76 570.23 43.5 569.53 43.07
							 568.97 C42.77 568.59 42.39 568.27 41.95 568.05 C41.52 567.82 41.02 567.7 40.5 567.7 ZM13.33 563.68 A4.81307
							 4.8663 -180 1 0 3.71 563.68 A4.81307 4.8663 -180 1 0 13.33 563.68 ZM40.16 561.52 A4.81307 4.86244 -180
							 1 0 30.53 561.52 A4.81307 4.86244 -180 1 0 40.16 561.52 Z" class="st3"/>
				<path d="M13.67 569.86 L3.25 569.86 C2.5 569.86 1.81 570.11 1.26 570.55 C0.88 570.85 0.56 571.23 0.34 571.68 C0.12
							 572.12 0 572.62 0 573.14 L0 585.63 L2.85 585.63 L2.85 595.28 L13.97 595.28 L13.97 585.63 L16.93 585.63
							 L16.93 573.14 C16.93 572.38 16.67 571.69 16.24 571.13 C15.94 570.74 15.56 570.42 15.12 570.2 C14.69
							 569.98 14.2 569.86 13.67 569.86" class="st4"/>
				<path d="M8.46 595.28 L8.46 587.57" class="st4"/>
				<path d="M2.85 585.63 L2.85 578.98" class="st4"/>
				<path d="M13.97 585.63 L13.97 578.98" class="st4"/>
				<path d="M40.5 567.7 L30.08 567.7 C29.33 567.7 28.64 567.96 28.09 568.39 C27.71 568.69 27.39 569.08 27.17 569.52
							 C26.95 569.96 26.83 570.46 26.83 570.99 L26.83 583.47 L29.68 583.47 L29.68 593.12 L40.79 593.12 L40.79
							 583.47 L43.76 583.47 L43.76 570.99 C43.76 570.23 43.5 569.53 43.07 568.97 C42.77 568.59 42.39 568.27
							 41.95 568.05 C41.52 567.82 41.02 567.7 40.5 567.7" class="st4"/>
				<path d="M35.29 593.12 L35.29 585.41" class="st4"/>
				<path d="M29.68 583.47 L29.68 576.82" class="st4"/>
				<path d="M40.79 583.47 L40.79 576.82" class="st4"/>
				<path d="M13.33 563.68 A4.81307 4.8663 -180 1 0 3.71 563.68 A4.81307 4.8663 -180 1 0 13.33 563.68" class="st4"/>
				<path d="M40.16 561.52 A4.81307 4.86244 -180 1 0 30.53 561.52 A4.81307 4.86244 -180 1 0 40.16 561.52" class="st4"/>
			</g>
			<g id="shape217-55" v:mID="217" v:groupContext="shape" v:layerMember="1" transform="translate(0,-10.9224)">
				<title>Sheet.217</title>
				<path d="M29.02 595.28 L70.87 578.76 L42.26 572.79 L0 583.49 L29.02 595.28 Z" class="st5"/>
			</g>
			<g id="shape218-57" v:mID="218" v:groupContext="shape" v:layerMember="1" transform="translate(6.42108,2.27374E-13)">
				<title>Sheet.218</title>
				<path d="M13.67 569.86 L3.25 569.86 C2.5 569.86 1.81 570.11 1.26 570.55 C0.88 570.85 0.56 571.23 0.34 571.68 C0.12
							 572.12 0 572.62 0 573.14 L0 585.63 L2.85 585.63 L2.85 595.28 L13.97 595.28 L13.97 585.63 L16.93 585.63
							 L16.93 573.14 C16.93 572.38 16.67 571.69 16.24 571.13 C15.94 570.74 15.56 570.42 15.12 570.2 C14.69
							 569.98 14.2 569.86 13.67 569.86 ZM44.47 568.04 L34.05 568.04 C33.3 568.04 32.61 568.29 32.06 568.73
							 C31.68 569.03 31.36 569.41 31.14 569.86 C30.92 570.3 30.8 570.8 30.8 571.32 L30.8 583.81 L33.65 583.81
							 L33.65 593.46 L44.77 593.46 L44.77 583.81 L47.73 583.81 L47.73 571.32 C47.73 570.56 47.47 569.87 47.04
							 569.31 C46.74 568.92 46.36 568.6 45.93 568.38 C45.49 568.16 45 568.04 44.47 568.04 ZM13.33 563.68 A4.81089
							 4.86602 -180 1 0 3.71 563.68 A4.81089 4.86602 -180 1 0 13.33 563.68 ZM44.13 561.85 A4.81566 4.86219
							 -180 1 0 34.5 561.85 A4.81566 4.86219 -180 1 0 44.13 561.85 Z" class="st6"/>
				<path d="M13.67 569.86 L3.25 569.86 C2.5 569.86 1.81 570.11 1.26 570.55 C0.88 570.85 0.56 571.23 0.34 571.68 C0.12
							 572.12 0 572.62 0 573.14 L0 585.63 L2.85 585.63 L2.85 595.28 L13.97 595.28 L13.97 585.63 L16.93 585.63
							 L16.93 573.14 C16.93 572.38 16.67 571.69 16.24 571.13 C15.94 570.74 15.56 570.42 15.12 570.2 C14.69
							 569.98 14.2 569.86 13.67 569.86" class="st4"/>
				<path d="M8.46 595.28 L8.46 587.57" class="st4"/>
				<path d="M2.85 585.63 L2.85 578.98" class="st4"/>
				<path d="M13.97 585.63 L13.97 578.98" class="st4"/>
				<path d="M44.47 568.04 L34.05 568.04 C33.3 568.04 32.61 568.29 32.06 568.73 C31.68 569.03 31.36 569.41 31.14 569.86
							 C30.92 570.3 30.8 570.8 30.8 571.32 L30.8 583.81 L33.65 583.81 L33.65 593.46 L44.77 593.46 L44.77 583.81
							 L47.73 583.81 L47.73 571.32 C47.73 570.56 47.47 569.87 47.04 569.31 C46.74 568.92 46.36 568.6 45.93
							 568.38 C45.49 568.16 45 568.04 44.47 568.04" class="st4"/>
				<path d="M39.26 593.46 L39.26 585.75" class="st4"/>
				<path d="M33.65 583.81 L33.65 577.16" class="st4"/>
				<path d="M44.77 583.81 L44.77 577.16" class="st4"/>
				<path d="M13.33 563.68 A4.81089 4.86602 -180 1 0 3.71 563.68 A4.81089 4.86602 -180 1 0 13.33 563.68" class="st4"/>
				<path d="M44.13 561.85 A4.81566 4.86219 -180 1 0 34.5 561.85 A4.81566 4.86219 -180 1 0 44.13 561.85" class="st4"/>
			</g>
			<g id="shape215-69" v:mID="215" v:groupContext="groupContent" v:layerMember="1">
				<v:textBlock v:margins="rect(4,4,4,4)" v:tabSpace="42.5197"/>
				<v:textRect cx="35.4331" cy="607.677" width="170.01" height="24.8035"/>
				<text x="-43.65" y="611.88" class="st7" v:langID="2057"><v:paragraph v:horizAlign="1"/><v:tabList/>Document Case Overview</text>			</g>
		</g>
		<g id="shape219-71" v:mID="219" v:groupContext="shape" v:layerMember="0" transform="translate(1132.95,-474.803)">
			<title>Dynamic connector.219</title>
			<path d="M0 588.19 L100.18 588.19" class="st8"/>
		</g>
		<g id="group220-76" transform="translate(1417.29,-456.378)" v:mID="220" v:groupContext="group" v:layerMember="1">
			<v:userDefs>
				<v:ud v:nameU="visVersion" v:prompt="" v:val="VT0(15):26"/>
				<v:ud v:nameU="ConnGap" v:prompt="" v:val="VT0(0.00012908222537757):24"/>
			</v:userDefs>
			<title>Meeting.220</title>
			<desc>Document Problem Statement</desc>
			<g id="shape221-77" v:mID="221" v:groupContext="shape" v:layerMember="1" transform="translate(18.0118,-12.4022)">
				<title>Sheet.221</title>
				<path d="M13.67 569.86 L3.25 569.86 C2.5 569.86 1.81 570.11 1.26 570.55 C0.88 570.85 0.56 571.23 0.34 571.68 C0.12
							 572.12 0 572.62 0 573.14 L0 585.63 L2.85 585.63 L2.85 595.28 L13.97 595.28 L13.97 585.63 L16.93 585.63
							 L16.93 573.14 C16.93 572.38 16.67 571.69 16.24 571.13 C15.94 570.74 15.56 570.42 15.12 570.2 C14.69
							 569.98 14.2 569.86 13.67 569.86 ZM40.5 567.7 L30.08 567.7 C29.33 567.7 28.64 567.96 28.09 568.39 C27.71
							 568.69 27.39 569.08 27.17 569.52 C26.95 569.96 26.83 570.46 26.83 570.99 L26.83 583.47 L29.68 583.47
							 L29.68 593.12 L40.79 593.12 L40.79 583.47 L43.76 583.47 L43.76 570.99 C43.76 570.23 43.5 569.53 43.07
							 568.97 C42.77 568.59 42.39 568.27 41.95 568.05 C41.52 567.82 41.02 567.7 40.5 567.7 ZM13.33 563.68 A4.81307
							 4.8663 -180 1 0 3.71 563.68 A4.81307 4.8663 -180 1 0 13.33 563.68 ZM40.16 561.52 A4.81307 4.86244 -180
							 1 0 30.53 561.52 A4.81307 4.86244 -180 1 0 40.16 561.52 Z" class="st3"/>
				<path d="M13.67 569.86 L3.25 569.86 C2.5 569.86 1.81 570.11 1.26 570.55 C0.88 570.85 0.56 571.23 0.34 571.68 C0.12
							 572.12 0 572.62 0 573.14 L0 585.63 L2.85 585.63 L2.85 595.28 L13.97 595.28 L13.97 585.63 L16.93 585.63
							 L16.93 573.14 C16.93 572.38 16.67 571.69 16.24 571.13 C15.94 570.74 15.56 570.42 15.12 570.2 C14.69
							 569.98 14.2 569.86 13.67 569.86" class="st4"/>
				<path d="M8.46 595.28 L8.46 587.57" class="st4"/>
				<path d="M2.85 585.63 L2.85 578.98" class="st4"/>
				<path d="M13.97 585.63 L13.97 578.98" class="st4"/>
				<path d="M40.5 567.7 L30.08 567.7 C29.33 567.7 28.64 567.96 28.09 568.39 C27.71 568.69 27.39 569.08 27.17 569.52
							 C26.95 569.96 26.83 570.46 26.83 570.99 L26.83 583.47 L29.68 583.47 L29.68 593.12 L40.79 593.12 L40.79
							 583.47 L43.76 583.47 L43.76 570.99 C43.76 570.23 43.5 569.53 43.07 568.97 C42.77 568.59 42.39 568.27
							 41.95 568.05 C41.52 567.82 41.02 567.7 40.5 567.7" class="st4"/>
				<path d="M35.29 593.12 L35.29 585.41" class="st4"/>
				<path d="M29.68 583.47 L29.68 576.82" class="st4"/>
				<path d="M40.79 583.47 L40.79 576.82" class="st4"/>
				<path d="M13.33 563.68 A4.81307 4.8663 -180 1 0 3.71 563.68 A4.81307 4.8663 -180 1 0 13.33 563.68" class="st4"/>
				<path d="M40.16 561.52 A4.81307 4.86244 -180 1 0 30.53 561.52 A4.81307 4.86244 -180 1 0 40.16 561.52" class="st4"/>
			</g>
			<g id="shape222-89" v:mID="222" v:groupContext="shape" v:layerMember="1" transform="translate(0,-10.9224)">
				<title>Sheet.222</title>
				<path d="M29.02 595.28 L70.87 578.76 L42.26 572.79 L0 583.49 L29.02 595.28 Z" class="st5"/>
			</g>
			<g id="shape223-91" v:mID="223" v:groupContext="shape" v:layerMember="1" transform="translate(6.42108,2.27374E-13)">
				<title>Sheet.223</title>
				<path d="M13.67 569.86 L3.25 569.86 C2.5 569.86 1.81 570.11 1.26 570.55 C0.88 570.85 0.56 571.23 0.34 571.68 C0.12
							 572.12 0 572.62 0 573.14 L0 585.63 L2.85 585.63 L2.85 595.28 L13.97 595.28 L13.97 585.63 L16.93 585.63
							 L16.93 573.14 C16.93 572.38 16.67 571.69 16.24 571.13 C15.94 570.74 15.56 570.42 15.12 570.2 C14.69
							 569.98 14.2 569.86 13.67 569.86 ZM44.47 568.04 L34.05 568.04 C33.3 568.04 32.61 568.29 32.06 568.73
							 C31.68 569.03 31.36 569.41 31.14 569.86 C30.92 570.3 30.8 570.8 30.8 571.32 L30.8 583.81 L33.65 583.81
							 L33.65 593.46 L44.77 593.46 L44.77 583.81 L47.73 583.81 L47.73 571.32 C47.73 570.56 47.47 569.87 47.04
							 569.31 C46.74 568.92 46.36 568.6 45.93 568.38 C45.49 568.16 45 568.04 44.47 568.04 ZM13.33 563.68 A4.81089
							 4.86602 -180 1 0 3.71 563.68 A4.81089 4.86602 -180 1 0 13.33 563.68 ZM44.13 561.85 A4.81566 4.86219
							 -180 1 0 34.5 561.85 A4.81566 4.86219 -180 1 0 44.13 561.85 Z" class="st6"/>
				<path d="M13.67 569.86 L3.25 569.86 C2.5 569.86 1.81 570.11 1.26 570.55 C0.88 570.85 0.56 571.23 0.34 571.68 C0.12
							 572.12 0 572.62 0 573.14 L0 585.63 L2.85 585.63 L2.85 595.28 L13.97 595.28 L13.97 585.63 L16.93 585.63
							 L16.93 573.14 C16.93 572.38 16.67 571.69 16.24 571.13 C15.94 570.74 15.56 570.42 15.12 570.2 C14.69
							 569.98 14.2 569.86 13.67 569.86" class="st4"/>
				<path d="M8.46 595.28 L8.46 587.57" class="st4"/>
				<path d="M2.85 585.63 L2.85 578.98" class="st4"/>
				<path d="M13.97 585.63 L13.97 578.98" class="st4"/>
				<path d="M44.47 568.04 L34.05 568.04 C33.3 568.04 32.61 568.29 32.06 568.73 C31.68 569.03 31.36 569.41 31.14 569.86
							 C30.92 570.3 30.8 570.8 30.8 571.32 L30.8 583.81 L33.65 583.81 L33.65 593.46 L44.77 593.46 L44.77 583.81
							 L47.73 583.81 L47.73 571.32 C47.73 570.56 47.47 569.87 47.04 569.31 C46.74 568.92 46.36 568.6 45.93
							 568.38 C45.49 568.16 45 568.04 44.47 568.04" class="st4"/>
				<path d="M39.26 593.46 L39.26 585.75" class="st4"/>
				<path d="M33.65 583.81 L33.65 577.16" class="st4"/>
				<path d="M44.77 583.81 L44.77 577.16" class="st4"/>
				<path d="M13.33 563.68 A4.81089 4.86602 -180 1 0 3.71 563.68 A4.81089 4.86602 -180 1 0 13.33 563.68" class="st4"/>
				<path d="M44.13 561.85 A4.81566 4.86219 -180 1 0 34.5 561.85 A4.81566 4.86219 -180 1 0 44.13 561.85" class="st4"/>
			</g>
			<g id="shape220-103" v:mID="220" v:groupContext="groupContent" v:layerMember="1">
				<v:textBlock v:margins="rect(4,4,4,4)" v:tabSpace="42.5197"/>
				<v:textRect cx="35.4331" cy="616.077" width="177.17" height="41.6033"/>
				<text x="-24.67" y="611.88" class="st7" v:langID="2057"><v:paragraph v:horizAlign="1"/><v:tabList/>Document Problem <tspan
							x="3.72" dy="1.2em" class="st10">Statement</tspan></text>			</g>
		</g>
		<g id="shape224-106" v:mID="224" v:groupContext="shape" v:layerMember="0" transform="translate(1310.55,-474.803)">
			<title>Dynamic connector.224</title>
			<path d="M0 588.19 L100.18 588.19" class="st8"/>
		</g>
		<g id="group225-111" transform="translate(1594.9,-446.457)" v:mID="225" v:groupContext="group" v:layerMember="1">
			<v:userDefs>
				<v:ud v:nameU="visVersion" v:prompt="" v:val="VT0(15):26"/>
				<v:ud v:nameU="ConnGap" v:prompt="" v:val="VT0(0.00012908222537757):24"/>
			</v:userDefs>
			<title>Analyze</title>
			<desc>Identify the Business Requirements</desc>
			<g id="shape226-112" v:mID="226" v:groupContext="shape" v:layerMember="1" transform="translate(0,-22.2882)">
				<title>Sheet.226</title>
				<path d="M33.22 555.51 L24.96 546.7 L0 546.7 L0 592.96 L19.09 592.96 L21.72 595.28 L36.56 595.28 L36.56 576.77 L33.24
							 574.92 L33.22 555.51 Z" class="st1"/>
			</g>
			<g id="shape227-114" v:mID="227" v:groupContext="shape" v:layerMember="1" transform="translate(6.17567,-31.8303)">
				<title>Sheet.227</title>
				<v:userDefs>
					<v:ud v:nameU="SurroundingRegionColor" v:prompt="" v:val="VT0(1):26"/>
					<v:ud v:nameU="SurroundingRegionColor" v:prompt="" v:val="VT5(#005eb8)"/>
				</v:userDefs>
				<path d="M18.55 556.55 L26.54 565.08 L18.55 565.08 L18.55 556.55 ZM0 565.62 L8.24 565.62 L8.24 564.65 L0 564.65 L-0
							 565.62 ZM0 571.14 L8.24 571.14 L8.24 570.17 L0 570.17 L-0 571.14 ZM0 576.66 L20.87 576.66 L20.87 575.7
							 L0 575.7 L-0 576.66 ZM0 582.19 L20.87 582.19 L20.87 581.22 L0 581.22 L-0 582.19 ZM0 587.71 L20.87 587.71
							 L20.87 586.74 L0 586.74 L-0 587.71 ZM12.63 593.17 L13.55 593.17 L13.55 592.2 L12.63 592.2 L12.63 593.17
							 L12.63 593.17 ZM15.93 595.28 L24.42 595.28 L24.42 593.73 L15.93 593.73 L15.93 595.28 Z" class="st11"/>
			</g>
			<g id="shape228-117" v:mID="228" v:groupContext="shape" v:layerMember="1" transform="translate(18.6889,0)">
				<title>Sheet.228</title>
				<path d="M16.82 580.53 L26.75 570.17 C27 569.08 27.14 567.94 27.14 566.77 C27.14 558.94 21.06 552.6 13.57 552.6 C6.07
							 552.6 0 558.94 0 566.77 C0 574.6 6.07 580.94 13.57 580.94 C14.69 580.94 15.78 580.8 16.82 580.53 ZM21
							 574.53 C16.9 578.82 10.23 578.82 6.14 574.53 C2.04 570.26 2.04 563.29 6.13 559.01 C10.23 554.73 16.9
							 554.73 21 559.01 C25.1 563.29 25.1 570.25 21 574.53 ZM26.75 570.17 L16.76 580.6 C18.24 582.15 18.85
							 583.34 21.32 580.73 C25.01 576.85 22.27 580.15 23.66 581.62 C35.07 593.7 37.25 597.29 40.15 594.26 L40.15
							 594.26 C40.15 594.26 40.16 594.25 40.16 594.25 C40.16 594.25 40.16 594.24 40.16 594.24 C42.54 591.77
							 38.7 588.75 27.8 577.3 C26.4 575.84 23.23 578.71 26.95 574.86 C29.43 572.28 28.29 571.65 26.81 570.1
							 L26.75 570.17 Z" class="st5"/>
			</g>
			<g id="shape225-119" v:mID="225" v:groupContext="groupContent" v:layerMember="1">
				<v:textBlock v:margins="rect(4,4,4,4)" v:tabSpace="42.5197"/>
				<v:textRect cx="29.7638" cy="616.077" width="148.82" height="41.6033"/>
				<text x="-33.52" y="611.88" class="st7" v:langID="2057"><v:paragraph v:horizAlign="1"/><v:tabList/>Identify the Business <tspan
							x="-12.95" dy="1.2em" class="st10">Requirements</tspan></text>			</g>
		</g>
		<g id="shape229-122" v:mID="229" v:groupContext="shape" v:layerMember="0" transform="translate(1488.16,-474.803)">
			<title>Dynamic connector.229</title>
			<path d="M0 588.19 L100.18 588.19" class="st8"/>
		</g>
		<g id="group234-127" transform="translate(1761.17,-446.457)" v:mID="234" v:groupContext="group" v:layerMember="1">
			<v:userDefs>
				<v:ud v:nameU="visVersion" v:prompt="" v:val="VT0(15):26"/>
				<v:ud v:nameU="ConnGap" v:prompt="" v:val="VT0(0.00012908222537757):24"/>
			</v:userDefs>
			<title>Request</title>
			<desc>Identify Dataset</desc>
			<g id="shape235-128" v:mID="235" v:groupContext="shape" v:layerMember="1">
				<title>Sheet.235</title>
				<path d="M28.42 595.28 L28.34 577.95 L3.64 577.95 C1.63 577.95 0 576.41 0 574.53 L0 527.83 C0 525.94 1.63 524.41
							 3.64 524.41 L55.89 524.41 C57.9 524.41 59.53 525.94 59.53 527.83 L59.53 574.53 C59.53 576.41 57.9 577.95
							 55.89 577.95 L39.89 577.95 L28.42 595.28 Z" class="st1"/>
			</g>
			<g id="shape236-130" v:mID="236" v:groupContext="shape" v:layerMember="1" transform="translate(23.4278,-26.9603)">
				<title>Sheet.236</title>
				<path d="M10.11 584.03 L10.12 580.35 C10.13 579.98 10.49 578.94 10.91 578.25 L14.37 573.52 C14.98 572.68 15.29 571.68
							 15.29 570.55 L15.29 564.24 C15.29 561.98 14.06 560.75 11.84 560.75 L3.44 560.75 C1.22 560.75 0 561.98
							 0 564.24 L0 570.32 L5.77 570.32 L5.77 566.35 C5.81 566.15 5.94 565.99 6.13 565.93 L9.06 565.93 C9.28
							 565.96 9.45 566.13 9.5 566.34 L9.5 569.82 C9.5 570.2 9.1 571.3 8.66 571.99 L8.46 572.27 L5.29 576.62
							 C4.69 577.46 4.37 578.49 4.37 579.66 L4.37 584.03 L10.11 584.03 ZM10.24 595.28 L10.24 586.06 L4.24 586.06
							 L4.24 595.28 L10.24 595.28 Z" class="st5"/>
			</g>
			<g id="shape234-132" v:mID="234" v:groupContext="groupContent" v:layerMember="1">
				<v:textBlock v:margins="rect(4,4,4,4)" v:tabSpace="42.5197"/>
				<v:textRect cx="29.7638" cy="607.677" width="109" height="24.8035"/>
				<text x="-18.81" y="611.88" class="st7" v:langID="2057"><v:paragraph v:horizAlign="1"/><v:tabList/>Identify Dataset</text>			</g>
		</g>
		<g id="shape237-134" v:mID="237" v:groupContext="shape" v:layerMember="0" transform="translate(1654.43,-474.803)">
			<title>Dynamic connector.237</title>
			<path d="M0 588.19 L100.18 588.19" class="st8"/>
		</g>
		<g id="group238-139" transform="translate(1755.5,-304.724)" v:mID="238" v:groupContext="group" v:layerMember="1">
			<v:userDefs>
				<v:ud v:nameU="visVersion" v:prompt="" v:val="VT0(15):26"/>
				<v:ud v:nameU="ConnGap" v:prompt="" v:val="VT0(0.00012908222537757):24"/>
			</v:userDefs>
			<title>Brainstorm</title>
			<desc>Identify Profiles and Resources</desc>
			<g id="shape239-140" v:mID="239" v:groupContext="shape" v:layerMember="1">
				<title>Sheet.239</title>
				<path d="M63.49 545.39 C63.81 544.36 63.97 543.31 63.97 542.23 C63.97 536.15 58.92 531.19 52.72 531.17 C50.97 527.1
							 46.88 524.41 42.33 524.41 C39.83 524.41 37.41 525.23 35.43 526.73 C33.46 525.23 31.04 524.41 28.53 524.41
							 C23.99 524.41 19.9 527.1 18.14 531.17 C11.94 531.19 6.9 536.15 6.9 542.23 C6.9 543.3 7.06 544.36 7.38
							 545.39 C2.99 546.98 0 551.11 0 555.76 C0 561.86 5.06 566.82 11.28 566.82 C12.49 566.82 13.67 566.64
							 14.8 566.27 C16.17 568.69 18.77 570.2 21.63 570.2 C21.67 570.2 21.7 570.2 21.73 570.2 L19.72 577.34
							 L26.49 577.34 L25.37 584.07 L31.6 584.25 L30.02 595.28 L53.09 575.4 L45.17 575.4 L48.32 570.15 C48.62
							 570.18 48.93 570.2 49.23 570.2 C52.1 570.2 54.7 568.69 56.07 566.27 C57.2 566.64 58.38 566.82 59.58
							 566.82 C65.8 566.82 70.87 561.86 70.87 555.76 C70.87 551.11 67.88 546.98 63.49 545.39 Z" class="st1"/>
			</g>
			<g id="shape240-142" v:mID="240" v:groupContext="shape" v:layerMember="1" transform="translate(23.6515,-17.9131)">
				<title>Sheet.240</title>
				<v:userDefs>
					<v:ud v:nameU="SurroundingRegionColor" v:prompt="" v:val="VT0(1):26"/>
					<v:ud v:nameU="SurroundingRegionColor" v:prompt="" v:val="VT5(#005eb8)"/>
				</v:userDefs>
				<path d="M12.16 563.55 L12.02 563.55 C5.39 563.55 0 568.83 0 575.33 C0 579.03 1.8 582.55 4.82 584.77 C5.96 585.7
							 6.4 586.16 6.63 586.64 L6.79 586.97 C6.46 587.45 6.25 588.03 6.25 588.67 C6.25 590.19 7.39 591.42 8.8
							 591.49 L8.81 591.59 C8.83 592.52 8.87 593.8 9.67 594.42 C10.26 594.96 11.11 595.28 12.07 595.28 C13.37
							 595.28 14.46 594.73 14.99 593.82 L15.18 593.48 C15.18 593.48 15.36 591.72 15.37 591.64 L15.38 591.49
							 C16.79 591.41 17.91 590.18 17.91 588.67 C17.91 588.04 17.71 587.45 17.38 586.98 L17.54 586.64 C17.77
							 586.16 18.22 585.7 19.36 584.77 C22.38 582.55 24.18 579.03 24.18 575.33 C24.18 568.83 18.78 563.55 12.16
							 563.55 Z" class="st11"/>
				<path d="M6.79 586.98 L17.38 586.98" class="st4"/>
				<path d="M8.81 591.59 L15.37 591.59" class="st4"/>
			</g>
			<g id="shape241-146" v:mID="241" v:groupContext="shape" v:layerMember="1" transform="translate(7.24466,-36.8885)">
				<title>Sheet.241</title>
				<path d="M46 595.28 L57.7 595.28" class="st12"/>
				<path d="M49.94 577.37 L41.68 585.48" class="st12"/>
				<path d="M28.65 569.21 L28.65 580.68" class="st12"/>
				<path d="M7.76 576.8 L16.03 584.9" class="st12"/>
				<path d="M0 595.28 L11.7 595.28" class="st12"/>
			</g>
			<g id="shape238-153" v:mID="238" v:groupContext="groupContent" v:layerMember="1">
				<v:textBlock v:margins="rect(4,4,4,4)" v:tabSpace="42.5197"/>
				<v:textRect cx="35.4331" cy="616.077" width="177.17" height="41.6033"/>
				<text x="-25.97" y="611.88" class="st7" v:langID="2057"><v:paragraph v:horizAlign="1"/><v:tabList/>Identify Profiles and <tspan
							x="4.25" dy="1.2em" class="st10">Resources</tspan></text>			</g>
		</g>
		<g id="shape242-156" v:mID="242" v:groupContext="shape" v:layerMember="0" transform="translate(1816.45,-481.89)">
			<title>Dynamic connector.242</title>
			<path d="M4.25 595.28 L52.43 595.28 L52.43 737.01 L16.46 737.01" class="st8"/>
		</g>
		<g id="group243-161" transform="translate(1585.42,-304.724)" v:mID="243" v:groupContext="group" v:layerMember="1">
			<v:userDefs>
				<v:ud v:nameU="visVersion" v:prompt="" v:val="VT0(15):26"/>
				<v:ud v:nameU="ConnGap" v:prompt="" v:val="VT0(0.00012908222537757):24"/>
			</v:userDefs>
			<title>Transaction</title>
			<desc>Map Dataset</desc>
			<g id="shape244-162" v:mID="244" v:groupContext="shape" v:layerMember="1" transform="translate(0,-38.7549)">
				<title>Sheet.244</title>
				<ellipse cx="16.0556" cy="579.22" rx="16.0556" ry="16.0556" class="st1"/>
			</g>
			<g id="shape245-164" v:mID="245" v:groupContext="shape" v:layerMember="1" transform="translate(7.76324,0)">
				<title>Sheet.245</title>
				<path d="M63.1 562.95 L31.07 562.95 L31.07 595.28 L63.1 595.28 L63.1 562.95 ZM10.05 577.9 C10.01 577.9 9.97 577.86
							 9.97 577.82 L9.97 557.83 L16.67 564.59 L16.67 559.12 L8.34 550.71 L0 559.12 L0 564.59 L6.18 558.36 L6.18
							 577.82 C6.18 579.98 7.92 581.73 10.05 581.73 L29.31 581.73 L29.31 577.91 L10.05 577.91 L10.05 577.9
							 Z" class="st5"/>
			</g>
			<g id="shape246-166" v:mID="246" v:groupContext="shape" v:layerMember="1" transform="translate(34.1671,-25.6931)">
				<title>Sheet.246</title>
				<path d="M23.13 587.63 L23.13 568.17 C23.13 566.01 21.39 564.26 19.25 564.26 L0 564.26 L0 568.08 L19.25 568.08 C19.3
							 568.08 19.34 568.13 19.34 568.17 L19.34 588.16 L12.64 581.39 L12.64 586.86 L20.97 595.28 L29.31 586.86
							 L29.31 581.39 L23.13 587.63 Z" class="st1"/>
			</g>
			<g id="shape243-168" v:mID="243" v:groupContext="groupContent" v:layerMember="1">
				<v:textBlock v:margins="rect(4,4,4,4)" v:tabSpace="42.5197"/>
				<v:textRect cx="35.4331" cy="607.677" width="90.42" height="24.8035"/>
				<text x="-3.85" y="611.88" class="st7" v:langID="2057"><v:paragraph v:horizAlign="1"/><v:tabList/>Map Dataset</text>			</g>
		</g>
		<g id="shape247-170" v:mID="247" v:groupContext="shape" v:layerMember="0" transform="translate(1755.49,-333.071)">
			<title>Dynamic connector.247</title>
			<path d="M0 588.19 L-92.65 588.19" class="st8"/>
		</g>
		<g id="group248-175" transform="translate(1415.34,-304.724)" v:mID="248" v:groupContext="group" v:layerMember="1">
			<v:userDefs>
				<v:ud v:nameU="visVersion" v:prompt="" v:val="VT0(15):26"/>
				<v:ud v:nameU="ConnGap" v:prompt="" v:val="VT0(0.00012908222537757):24"/>
			</v:userDefs>
			<title>Agreement</title>
			<desc>Obtain Approval</desc>
			<g id="shape249-176" v:mID="249" v:groupContext="shape" v:layerMember="1" transform="translate(0,-28.6299)">
				<title>Sheet.249</title>
				<path d="M45.13 583.68 L51.64 583.68 L52.6 589.94 L60.6 583.68 L62.89 583.68 C67.29 583.68 70.87 580.17 70.87 575.85
							 L70.87 560.88 C70.87 556.55 67.29 553.04 62.89 553.04 L33.3 553.04 A8.37736 8.23058 -180 0 0 25.67 558.37
							 L7.98 558.37 C3.58 558.37 0 561.88 0 566.21 L0 581.18 C0 585.5 3.58 589.01 7.98 589.01 L26.32 589.01
							 L27.28 595.28 L35.29 589.01 L37.57 589.01 C41.08 589.01 44.06 586.78 45.13 583.68 Z" class="st3"/>
			</g>
			<g id="shape250-179" v:mID="250" v:groupContext="shape" v:layerMember="1" transform="translate(25.3183,-40.2229)">
				<title>Sheet.250</title>
				<path d="M19.81 595.28 C20.08 594.49 20.23 593.64 20.23 592.77 L20.23 577.8 C20.23 573.48 16.65 569.96 12.25 569.96
							 L0.4 569.96 L0 571.82 L12.25 571.82 C14.93 571.82 17.21 573.53 18.02 575.9 L18.02 575.89 C18.23 576.49
							 18.34 577.13 18.34 577.8 L18.34 592.77 C18.34 593.66 18.14 594.51 17.78 595.28 L19.81 595.28 ZM0 573.03
							 L0 587.44 C0 591.76 3.58 595.28 7.98 595.28 L16.37 595.28 C16.72 594.72 16.96 594.09 17.05 593.42 L7.98
							 593.42 C4.62 593.42 1.89 590.74 1.89 587.44 L1.89 573.03 L0 573.03 Z" class="st11"/>
			</g>
			<g id="shape251-182" v:mID="251" v:groupContext="shape" v:layerMember="1" transform="translate(29.5545,-46.1239)">
				<title>Sheet.251</title>
				<path d="M23.76 579.69 L20.87 576.85 L8.94 588.58 L7.91 589.59 L6.88 588.58 L2.89 584.66 L0 587.5 L7.91 595.28 L23.76
							 579.69 Z" class="st1"/>
			</g>
			<g id="shape252-184" v:mID="252" v:groupContext="shape" v:layerMember="1" transform="translate(4.09409,6.0487E-08)">
				<title>Sheet.252</title>
				<path d="M34.84 595.28 L39.14 595.28 L39.14 589.02 L40.58 589.02 L40.58 595.28 L57.78 595.28 L57.78 589.02 L59.22
							 589.02 L59.22 595.28 L63.52 595.28 L63.52 587.02 C63.52 583.83 60.88 581.23 57.63 581.23 L40.75 581.23
							 C37.5 581.23 34.86 583.83 34.84 587.02 L34.84 595.28 ZM0 595.28 L4.3 595.28 L4.3 589.02 L5.74 589.02
							 L5.74 595.28 L22.94 595.28 L22.94 589.02 L24.38 589.02 L24.38 595.28 L28.68 595.28 L28.68 587.02 C28.68
							 583.83 26.03 581.23 22.79 581.23 L5.91 581.23 C2.66 581.23 0.02 583.83 0 587.02 L0 595.28 ZM41.03 572.11
							 A8.25121 8.10437 -180 1 1 57.53 572.11 A8.25121 8.10437 -180 1 1 41.03 572.11 ZM6.19 572.11 A8.25121
							 8.10437 -180 1 1 22.69 572.11 A8.25121 8.10437 -180 1 1 6.19 572.11 Z" class="st6"/>
			</g>
			<g id="shape248-187" v:mID="248" v:groupContext="groupContent" v:layerMember="1">
				<v:textBlock v:margins="rect(4,4,4,4)" v:tabSpace="42.5197"/>
				<v:textRect cx="35.4331" cy="607.677" width="113.43" height="24.8035"/>
				<text x="-15.36" y="611.88" class="st7" v:langID="2057"><v:paragraph v:horizAlign="1"/><v:tabList/>Obtain Approval</text>			</g>
		</g>
		<g id="shape253-189" v:mID="253" v:groupContext="shape" v:layerMember="0" transform="translate(1585.41,-333.071)">
			<title>Dynamic connector.253</title>
			<path d="M0 588.19 L-92.65 588.19" class="st8"/>
		</g>
		<g id="group259-194" transform="translate(1245.26,-304.724)" v:mID="259" v:groupContext="group" v:layerMember="1">
			<v:userDefs>
				<v:ud v:nameU="visVersion" v:prompt="" v:val="VT0(15):26"/>
				<v:ud v:nameU="ConnGap" v:prompt="" v:val="VT0(0.00012908222537757):24"/>
			</v:userDefs>
			<title>Brainstorm.259</title>
			<desc>Design API</desc>
			<g id="shape260-195" v:mID="260" v:groupContext="shape" v:layerMember="1">
				<title>Sheet.260</title>
				<path d="M63.49 545.39 C63.81 544.36 63.97 543.31 63.97 542.23 C63.97 536.15 58.92 531.19 52.72 531.17 C50.97 527.1
							 46.88 524.41 42.33 524.41 C39.83 524.41 37.41 525.23 35.43 526.73 C33.46 525.23 31.04 524.41 28.53 524.41
							 C23.99 524.41 19.9 527.1 18.14 531.17 C11.94 531.19 6.9 536.15 6.9 542.23 C6.9 543.3 7.06 544.36 7.38
							 545.39 C2.99 546.98 0 551.11 0 555.76 C0 561.86 5.06 566.82 11.28 566.82 C12.49 566.82 13.67 566.64
							 14.8 566.27 C16.17 568.69 18.77 570.2 21.63 570.2 C21.67 570.2 21.7 570.2 21.73 570.2 L19.72 577.34
							 L26.49 577.34 L25.37 584.07 L31.6 584.25 L30.02 595.28 L53.09 575.4 L45.17 575.4 L48.32 570.15 C48.62
							 570.18 48.93 570.2 49.23 570.2 C52.1 570.2 54.7 568.69 56.07 566.27 C57.2 566.64 58.38 566.82 59.58
							 566.82 C65.8 566.82 70.87 561.86 70.87 555.76 C70.87 551.11 67.88 546.98 63.49 545.39 Z" class="st1"/>
			</g>
			<g id="shape261-197" v:mID="261" v:groupContext="shape" v:layerMember="1" transform="translate(23.6515,-17.9131)">
				<title>Sheet.261</title>
				<v:userDefs>
					<v:ud v:nameU="SurroundingRegionColor" v:prompt="" v:val="VT0(1):26"/>
					<v:ud v:nameU="SurroundingRegionColor" v:prompt="" v:val="VT5(#005eb8)"/>
				</v:userDefs>
				<path d="M12.16 563.55 L12.02 563.55 C5.39 563.55 0 568.83 0 575.33 C0 579.03 1.8 582.55 4.82 584.77 C5.96 585.7
							 6.4 586.16 6.63 586.64 L6.79 586.97 C6.46 587.45 6.25 588.03 6.25 588.67 C6.25 590.19 7.39 591.42 8.8
							 591.49 L8.81 591.59 C8.83 592.52 8.87 593.8 9.67 594.42 C10.26 594.96 11.11 595.28 12.07 595.28 C13.37
							 595.28 14.46 594.73 14.99 593.82 L15.18 593.48 C15.18 593.48 15.36 591.72 15.37 591.64 L15.38 591.49
							 C16.79 591.41 17.91 590.18 17.91 588.67 C17.91 588.04 17.71 587.45 17.38 586.98 L17.54 586.64 C17.77
							 586.16 18.22 585.7 19.36 584.77 C22.38 582.55 24.18 579.03 24.18 575.33 C24.18 568.83 18.78 563.55 12.16
							 563.55 Z" class="st11"/>
				<path d="M6.79 586.98 L17.38 586.98" class="st4"/>
				<path d="M8.81 591.59 L15.37 591.59" class="st4"/>
			</g>
			<g id="shape262-201" v:mID="262" v:groupContext="shape" v:layerMember="1" transform="translate(7.24466,-36.8885)">
				<title>Sheet.262</title>
				<path d="M46 595.28 L57.7 595.28" class="st12"/>
				<path d="M49.94 577.37 L41.68 585.48" class="st12"/>
				<path d="M28.65 569.21 L28.65 580.68" class="st12"/>
				<path d="M7.76 576.8 L16.03 584.9" class="st12"/>
				<path d="M0 595.28 L11.7 595.28" class="st12"/>
			</g>
			<g id="shape259-208" v:mID="259" v:groupContext="groupContent" v:layerMember="1">
				<v:textBlock v:margins="rect(4,4,4,4)" v:tabSpace="42.5197"/>
				<v:textRect cx="35.4331" cy="607.677" width="78.91" height="24.8035"/>
				<text x="1.9" y="611.88" class="st7" v:langID="2057"><v:paragraph v:horizAlign="1"/><v:tabList/>Design API</text>			</g>
		</g>
		<g id="shape263-210" v:mID="263" v:groupContext="shape" v:layerMember="0" transform="translate(1415.33,-333.071)">
			<title>Dynamic connector.263</title>
			<path d="M0 588.19 L-92.65 588.19" class="st8"/>
		</g>
		<g id="group264-215" transform="translate(1061.01,-304.724)" v:mID="264" v:groupContext="group" v:layerMember="1">
			<v:userDefs>
				<v:ud v:nameU="visVersion" v:prompt="" v:val="VT0(15):26"/>
				<v:ud v:nameU="ConnGap" v:prompt="" v:val="VT0(0.00012908222537757):24"/>
			</v:userDefs>
			<title>Author</title>
			<desc>Document Interaction Flow</desc>
			<g id="shape265-216" v:mID="265" v:groupContext="shape" v:layerMember="1"
					transform="translate(476.55,111.133) rotate(45)">
				<title>Sheet.265</title>
				<rect x="0" y="593.864" width="10.7368" height="1.41164" class="st1"/>
			</g>
			<g id="shape266-218" v:mID="266" v:groupContext="shape" v:layerMember="1"
					transform="translate(-358.473,961.459) rotate(-135.008)">
				<title>Sheet.266</title>
				<rect x="0" y="593.867" width="10.7354" height="1.4088" class="st1"/>
			</g>
			<g id="shape267-220" v:mID="267" v:groupContext="shape" v:layerMember="1" transform="translate(7.20633,-7.20638)">
				<title>Sheet.267</title>
				<path d="M46.61 541.09 L0 587.7 L7.58 595.28 L54.18 548.67 L46.61 541.09 Z" class="st5"/>
			</g>
			<g id="shape268-222" v:mID="268" v:groupContext="shape" v:layerMember="1">
				<title>Sheet.268</title>
				<path d="M70.1 532.76 C71.12 531.75 71.12 530.1 70.1 529.08 L66.19 525.17 C65.18 524.16 63.53 524.16 62.51 525.17
							 L58.65 529.03 L66.25 536.62 L70.1 532.76 ZM56.62 531.06 L64.22 538.65 L65.02 537.85 L57.42 530.26 L56.62
							 531.06 ZM62.39 540.48 L63.22 539.65 L55.63 532.05 L54.8 532.88 L62.39 540.48 ZM0 593.49 L1.79 595.28
							 C6.96 591.73 10.97 589.75 13.08 588.82 L6.45 582.2 C5.52 584.3 3.54 588.31 0 593.49 Z" class="st1"/>
			</g>
			<g id="shape264-224" v:mID="264" v:groupContext="groupContent" v:layerMember="1">
				<v:textBlock v:margins="rect(4,4,4,4)" v:tabSpace="42.5197"/>
				<v:textRect cx="35.4331" cy="607.677" width="177.17" height="24.8035"/>
				<text x="-48.12" y="611.88" class="st7" v:langID="2057"><v:paragraph v:horizAlign="1"/><v:tabList/>Document Interaction Flow</text>			</g>
		</g>
		<g id="shape269-226" v:mID="269" v:groupContext="shape" v:layerMember="0" transform="translate(1245.25,-333.071)">
			<title>Dynamic connector.269</title>
			<path d="M0 588.19 L-106.83 588.19" class="st8"/>
		</g>
		<g id="group270-231" transform="translate(862.583,-304.724)" v:mID="270" v:groupContext="group" v:layerMember="1">
			<v:userDefs>
				<v:ud v:nameU="visVersion" v:prompt="" v:val="VT0(15):26"/>
				<v:ud v:nameU="ConnGap" v:prompt="" v:val="VT0(0.00012908222537757):24"/>
			</v:userDefs>
			<title>Author.270</title>
			<desc>Document Additional Technical Context</desc>
			<g id="shape271-232" v:mID="271" v:groupContext="shape" v:layerMember="1"
					transform="translate(476.55,111.133) rotate(45)">
				<title>Sheet.271</title>
				<rect x="0" y="593.864" width="10.7368" height="1.41164" class="st1"/>
			</g>
			<g id="shape272-234" v:mID="272" v:groupContext="shape" v:layerMember="1"
					transform="translate(-358.473,961.459) rotate(-135.008)">
				<title>Sheet.272</title>
				<rect x="0" y="593.867" width="10.7354" height="1.4088" class="st1"/>
			</g>
			<g id="shape273-236" v:mID="273" v:groupContext="shape" v:layerMember="1" transform="translate(7.20633,-7.20638)">
				<title>Sheet.273</title>
				<path d="M46.61 541.09 L0 587.7 L7.58 595.28 L54.18 548.67 L46.61 541.09 Z" class="st5"/>
			</g>
			<g id="shape274-238" v:mID="274" v:groupContext="shape" v:layerMember="1">
				<title>Sheet.274</title>
				<path d="M70.1 532.76 C71.12 531.75 71.12 530.1 70.1 529.08 L66.19 525.17 C65.18 524.16 63.53 524.16 62.51 525.17
							 L58.65 529.03 L66.25 536.62 L70.1 532.76 ZM56.62 531.06 L64.22 538.65 L65.02 537.85 L57.42 530.26 L56.62
							 531.06 ZM62.39 540.48 L63.22 539.65 L55.63 532.05 L54.8 532.88 L62.39 540.48 ZM0 593.49 L1.79 595.28
							 C6.96 591.73 10.97 589.75 13.08 588.82 L6.45 582.2 C5.52 584.3 3.54 588.31 0 593.49 Z" class="st1"/>
			</g>
			<g id="shape270-240" v:mID="270" v:groupContext="groupContent" v:layerMember="1">
				<v:textBlock v:margins="rect(4,4,4,4)" v:tabSpace="42.5197"/>
				<v:textRect cx="35.4331" cy="616.077" width="177.17" height="41.6033"/>
				<text x="-30.55" y="611.88" class="st7" v:langID="2057"><v:paragraph v:horizAlign="1"/><v:tabList/>Document Additional <tspan
							x="-19.17" dy="1.2em" class="st10">Technical Context</tspan></text>			</g>
		</g>
		<g id="shape275-243" v:mID="275" v:groupContext="shape" v:layerMember="0" transform="translate(1061,-333.071)">
			<title>Dynamic connector.275</title>
			<path d="M0 588.19 L-121 588.19" class="st8"/>
		</g>
		<g id="group276-248" transform="translate(664.157,-304.724)" v:mID="276" v:groupContext="group" v:layerMember="1">
			<v:userDefs>
				<v:ud v:nameU="visVersion" v:prompt="" v:val="VT0(15):26"/>
				<v:ud v:nameU="ConnGap" v:prompt="" v:val="VT0(0.00012908222537757):24"/>
			</v:userDefs>
			<title>Agreement.276</title>
			<desc>Resolve Curation Requirements</desc>
			<g id="shape277-249" v:mID="277" v:groupContext="shape" v:layerMember="1" transform="translate(0,-28.6299)">
				<title>Sheet.277</title>
				<path d="M45.13 583.68 L51.64 583.68 L52.6 589.94 L60.6 583.68 L62.89 583.68 C67.29 583.68 70.87 580.17 70.87 575.85
							 L70.87 560.88 C70.87 556.55 67.29 553.04 62.89 553.04 L33.3 553.04 A8.37736 8.23058 -180 0 0 25.67 558.37
							 L7.98 558.37 C3.58 558.37 0 561.88 0 566.21 L0 581.18 C0 585.5 3.58 589.01 7.98 589.01 L26.32 589.01
							 L27.28 595.28 L35.29 589.01 L37.57 589.01 C41.08 589.01 44.06 586.78 45.13 583.68 Z" class="st3"/>
			</g>
			<g id="shape278-252" v:mID="278" v:groupContext="shape" v:layerMember="1" transform="translate(25.3183,-40.2229)">
				<title>Sheet.278</title>
				<path d="M19.81 595.28 C20.08 594.49 20.23 593.64 20.23 592.77 L20.23 577.8 C20.23 573.48 16.65 569.96 12.25 569.96
							 L0.4 569.96 L0 571.82 L12.25 571.82 C14.93 571.82 17.21 573.53 18.02 575.9 L18.02 575.89 C18.23 576.49
							 18.34 577.13 18.34 577.8 L18.34 592.77 C18.34 593.66 18.14 594.51 17.78 595.28 L19.81 595.28 ZM0 573.03
							 L0 587.44 C0 591.76 3.58 595.28 7.98 595.28 L16.37 595.28 C16.72 594.72 16.96 594.09 17.05 593.42 L7.98
							 593.42 C4.62 593.42 1.89 590.74 1.89 587.44 L1.89 573.03 L0 573.03 Z" class="st11"/>
			</g>
			<g id="shape279-255" v:mID="279" v:groupContext="shape" v:layerMember="1" transform="translate(29.5545,-46.1239)">
				<title>Sheet.279</title>
				<path d="M23.76 579.69 L20.87 576.85 L8.94 588.58 L7.91 589.59 L6.88 588.58 L2.89 584.66 L0 587.5 L7.91 595.28 L23.76
							 579.69 Z" class="st1"/>
			</g>
			<g id="shape280-257" v:mID="280" v:groupContext="shape" v:layerMember="1" transform="translate(4.09409,6.0487E-08)">
				<title>Sheet.280</title>
				<path d="M34.84 595.28 L39.14 595.28 L39.14 589.02 L40.58 589.02 L40.58 595.28 L57.78 595.28 L57.78 589.02 L59.22
							 589.02 L59.22 595.28 L63.52 595.28 L63.52 587.02 C63.52 583.83 60.88 581.23 57.63 581.23 L40.75 581.23
							 C37.5 581.23 34.86 583.83 34.84 587.02 L34.84 595.28 ZM0 595.28 L4.3 595.28 L4.3 589.02 L5.74 589.02
							 L5.74 595.28 L22.94 595.28 L22.94 589.02 L24.38 589.02 L24.38 595.28 L28.68 595.28 L28.68 587.02 C28.68
							 583.83 26.03 581.23 22.79 581.23 L5.91 581.23 C2.66 581.23 0.02 583.83 0 587.02 L0 595.28 ZM41.03 572.11
							 A8.25121 8.10437 -180 1 1 57.53 572.11 A8.25121 8.10437 -180 1 1 41.03 572.11 ZM6.19 572.11 A8.25121
							 8.10437 -180 1 1 22.69 572.11 A8.25121 8.10437 -180 1 1 6.19 572.11 Z" class="st6"/>
			</g>
			<g id="shape276-260" v:mID="276" v:groupContext="groupContent" v:layerMember="1">
				<v:textBlock v:margins="rect(4,4,4,4)" v:tabSpace="42.5197"/>
				<v:textRect cx="35.4331" cy="616.077" width="177.17" height="41.6033"/>
				<text x="-16.53" y="611.88" class="st7" v:langID="2057"><v:paragraph v:horizAlign="1"/><v:tabList/>Resolve Curation <tspan
							x="-7.28" dy="1.2em" class="st10">Requirements</tspan></text>			</g>
		</g>
		<g id="shape281-263" v:mID="281" v:groupContext="shape" v:layerMember="0" transform="translate(657.062,-340.157)">
			<title>Dynamic connector.281</title>
			<path d="M7.09 595.28 L-77.94 595.28 L-77.94 772.44 L0.55 772.44" class="st8"/>
		</g>
		<g id="group282-268" transform="translate(664.157,-127.559)" v:mID="282" v:groupContext="group" v:layerMember="1">
			<v:userDefs>
				<v:ud v:nameU="visVersion" v:prompt="" v:val="VT0(15):26"/>
				<v:ud v:nameU="ConnGap" v:prompt="" v:val="VT0(0.00012908222537757):24"/>
			</v:userDefs>
			<title>Present</title>
			<desc>Present Case Study</desc>
			<g id="shape283-269" v:mID="283" v:groupContext="shape" v:layerMember="1" transform="translate(0,-35.083)">
				<title>Sheet.283</title>
				<rect x="0" y="559.492" width="70.8661" height="35.7831" class="st5"/>
			</g>
			<g id="shape284-271" v:mID="284" v:groupContext="shape" v:layerMember="1" transform="translate(44.7739,-31.315)">
				<title>Sheet.284</title>
				<path d="M18.46 570.35 C18.46 570.35 2.47 570.34 0 570.34 L0 574.79 L0 574.79 L6 574.79 C7.55 574.79 8.19 575.46
							 8.21 576.61 L8.23 595.27 L12.95 595.27 L12.95 587.99 C12.95 587.74 13.16 587.54 13.41 587.54 C13.66
							 587.54 13.87 587.74 13.87 587.99 L13.87 595.28 L18.33 595.28 L18.33 578.98 L19.24 578.98 L19.24 586.11
							 L21.98 586.11 L21.98 573.86 C21.98 571.92 20.4 570.35 18.46 570.35 ZM8.39 564.86 A5.02191 5.02077 -180
							 1 1 18.43 564.86 A5.02191 5.02077 -180 1 1 8.39 564.86 Z" class="st1"/>
			</g>
			<g id="shape285-273" v:mID="285" v:groupContext="shape" v:layerMember="1" transform="translate(1.06654,0)">
				<title>Sheet.285</title>
				<path d="M64.64 579.89 L52.3 579.89 C49.9 579.89 47.96 581.84 47.96 584.23 L47.96 595.28 L51.34 595.28 L51.34 589.12
							 L52.47 589.12 L52.47 595.28 L64.92 595.28 L64.92 589.12 L66.05 589.12 L66.05 595.28 L68.98 595.28 L68.98
							 584.23 C68.98 581.84 67.03 579.89 64.64 579.89 ZM40.66 579.89 L28.32 579.89 C25.92 579.89 23.98 581.84
							 23.98 584.23 L23.98 595.28 L27.36 595.28 L27.36 589.12 L28.49 589.12 L28.49 595.28 L40.94 595.28 L40.94
							 589.12 L42.07 589.12 L42.07 595.28 L45 595.28 L45 584.23 C45 581.84 43.05 579.89 40.66 579.89 ZM16.68
							 579.89 L4.34 579.89 C1.94 579.89 0 581.84 0 584.23 L0 595.28 L3.38 595.28 L3.38 589.12 L4.51 589.12
							 L4.51 595.28 L16.96 595.28 L16.96 589.12 L18.09 589.12 L18.09 595.28 L21.02 595.28 L21.02 584.23 C21.02
							 581.84 19.07 579.89 16.68 579.89 ZM52.33 573.13 A6.20118 6.19654 -180 1 1 64.74 573.13 A6.20118 6.19654
							 -180 1 1 52.33 573.13 ZM28.36 573.13 A6.19428 6.19654 -180 1 1 40.75 573.13 A6.19428 6.19654 -180 1
							 1 28.36 573.13 ZM4.38 573.13 A6.19428 6.19654 -180 1 1 16.77 573.13 A6.19428 6.19654 -180 1 1 4.38 573.13
							 Z" class="st6"/>
			</g>
			<g id="shape282-276" v:mID="282" v:groupContext="groupContent" v:layerMember="1">
				<v:textBlock v:margins="rect(4,4,4,4)" v:tabSpace="42.5197"/>
				<v:textRect cx="35.4331" cy="607.677" width="129.65" height="24.8035"/>
				<text x="-23.47" y="611.88" class="st7" v:langID="2057"><v:paragraph v:horizAlign="1"/><v:tabList/>Present Case Study</text>			</g>
		</g>
		<g id="shape290-278" v:mID="290" v:groupContext="shape" v:layerMember="0" transform="translate(862.573,-333.071)">
			<title>Dynamic connector.290</title>
			<path d="M0 588.19 L-121 588.19" class="st8"/>
		</g>
		<g id="group295-283" transform="translate(862.583,-127.559)" v:mID="295" v:groupContext="group" v:layerMember="1">
			<v:userDefs>
				<v:ud v:nameU="visVersion" v:prompt="" v:val="VT0(15):26"/>
				<v:ud v:nameU="ConnGap" v:prompt="" v:val="VT0(0.00012908222537757):24"/>
			</v:userDefs>
			<title>Transaction.295</title>
			<desc>Implement Solution</desc>
			<g id="shape296-284" v:mID="296" v:groupContext="shape" v:layerMember="1" transform="translate(0,-38.7549)">
				<title>Sheet.296</title>
				<ellipse cx="16.0556" cy="579.22" rx="16.0556" ry="16.0556" class="st1"/>
			</g>
			<g id="shape297-286" v:mID="297" v:groupContext="shape" v:layerMember="1" transform="translate(7.76324,0)">
				<title>Sheet.297</title>
				<path d="M63.1 562.95 L31.07 562.95 L31.07 595.28 L63.1 595.28 L63.1 562.95 ZM10.05 577.9 C10.01 577.9 9.97 577.86
							 9.97 577.82 L9.97 557.83 L16.67 564.59 L16.67 559.12 L8.34 550.71 L0 559.12 L0 564.59 L6.18 558.36 L6.18
							 577.82 C6.18 579.98 7.92 581.73 10.05 581.73 L29.31 581.73 L29.31 577.91 L10.05 577.91 L10.05 577.9
							 Z" class="st5"/>
			</g>
			<g id="shape298-288" v:mID="298" v:groupContext="shape" v:layerMember="1" transform="translate(34.1671,-25.6931)">
				<title>Sheet.298</title>
				<path d="M23.13 587.63 L23.13 568.17 C23.13 566.01 21.39 564.26 19.25 564.26 L0 564.26 L0 568.08 L19.25 568.08 C19.3
							 568.08 19.34 568.13 19.34 568.17 L19.34 588.16 L12.64 581.39 L12.64 586.86 L20.97 595.28 L29.31 586.86
							 L29.31 581.39 L23.13 587.63 Z" class="st1"/>
			</g>
			<g id="shape295-290" v:mID="295" v:groupContext="groupContent" v:layerMember="1">
				<v:textBlock v:margins="rect(4,4,4,4)" v:tabSpace="42.5197"/>
				<v:textRect cx="35.4331" cy="607.677" width="133.67" height="24.8035"/>
				<text x="-25.48" y="611.88" class="st7" v:langID="2057"><v:paragraph v:horizAlign="1"/><v:tabList/>Implement Solution</text>			</g>
		</g>
		<g id="shape299-292" v:mID="299" v:groupContext="shape" v:layerMember="0" transform="translate(735.033,-155.906)">
			<title>Dynamic connector.299</title>
			<path d="M0 588.19 L121 588.19" class="st8"/>
		</g>
		<g id="group300-297" transform="translate(1061.01,-127.559)" v:mID="300" v:groupContext="group" v:layerMember="1">
			<v:userDefs>
				<v:ud v:nameU="visVersion" v:prompt="" v:val="VT0(15):26"/>
				<v:ud v:nameU="ConnGap" v:prompt="" v:val="VT0(0.00012908222537757):24"/>
			</v:userDefs>
			<title>Review</title>
			<desc>Lessons Learnt</desc>
			<g id="shape301-298" v:mID="301" v:groupContext="shape" v:layerMember="1" transform="translate(28.7894,0)">
				<title>Sheet.301</title>
				<path d="M42.08 549.86 L31.62 539.17 L0 539.17 L0 595.28 L42.08 595.28 L42.08 549.86 Z" class="st1"/>
			</g>
			<g id="shape302-300" v:mID="302" v:groupContext="shape" v:layerMember="1" transform="translate(36.4596,-11.2862)">
				<title>Sheet.302</title>
				<v:userDefs>
					<v:ud v:nameU="SurroundingRegionColor" v:prompt="" v:val="VT5(1)"/>
					<v:ud v:nameU="SurroundingRegionColor" v:prompt="" v:val="VT5(#005eb8)"/>
				</v:userDefs>
				<path d="M15.78 595.28 L26.52 595.28 L26.52 593.85 L15.78 593.85 L15.78 595.28 ZM0 588.59 L26.52 588.59 L26.52 587.17
							 L0 587.17 L0 588.59 ZM0 581.91 L26.52 581.91 L26.52 580.48 L0 580.48 L0 581.91 ZM0 575.22 L26.52 575.22
							 L26.52 573.8 L0 573.8 L0 575.22 ZM0 568.54 L10.74 568.54 L10.74 567.11 L0 567.11 L0 568.54 ZM0 561.86
							 L10.74 561.86 L10.74 560.43 L0 560.43 L0 561.86 ZM23.64 550.83 L23.64 561.18 L33.77 561.18 L23.64 550.83
							 Z" class="st11"/>
			</g>
			<g id="shape303-303" v:mID="303" v:groupContext="shape" v:layerMember="1" transform="translate(0,-38.8578)">
				<title>Sheet.303</title>
				<path d="M42.3 579.95 L36.92 568.37 C35.63 565.17 33.27 563.27 30.63 563.27 L30.5 563.27 C26.37 563.36 22.98 566.33
							 22.44 570.31 L22.25 571.64 L25.82 571.64 L25.98 570.66 C26.35 568.43 28.26 566.81 30.53 566.81 C31.21
							 566.81 32.61 567.68 33.43 569.28 L33.6 569.65 C33.78 570.07 34.21 570.96 34.21 570.96 L35.99 574.79
							 C35.04 574.51 34.04 574.37 33.03 574.37 C28.07 574.37 23.79 577.92 22.77 582.65 C22.1 582.58 21.42 582.59
							 20.75 582.66 C19.74 577.92 15.45 574.37 10.49 574.37 C9.5 574.37 8.52 574.51 7.58 574.78 L9.34 570.98
							 C9.34 570.98 9.78 570.07 9.94 569.69 L10.11 569.33 C10.95 567.69 12.24 566.81 13.04 566.81 C15.3 566.81
							 17.22 568.43 17.58 570.66 L17.75 571.64 L21.31 571.64 L21.13 570.31 C20.58 566.3 17.1 563.27 13.04 563.27
							 C10.61 563.27 7.8 565.51 6.67 568.32 L1.5 579.44 C0.52 581.06 0 582.92 0 584.82 C0 590.59 4.71 595.28
							 10.49 595.28 C15.8 595.28 20.2 591.36 20.89 586.21 C21.46 586.13 22.05 586.12 22.62 586.19 C23.29 591.35
							 27.69 595.28 33.02 595.28 C38.81 595.28 43.51 590.59 43.51 584.82 C43.51 583.1 43.08 581.4 42.3 579.95
							 Z" class="st3"/>
			</g>
			<g id="shape304-306" v:mID="304" v:groupContext="shape" v:layerMember="1" transform="translate(3.55143,-42.3973)">
				<title>Sheet.304</title>
				<v:userDefs>
					<v:ud v:nameU="SurroundingRegionColor" v:prompt="" v:val="VT5(0)"/>
					<v:ud v:nameU="SurroundingRegionColor" v:prompt="" v:val="VT5(#000bae)"/>
				</v:userDefs>
				<path d="M29.47 595.28 C33.3 595.28 36.41 592.17 36.41 588.36 C36.41 587.5 36.26 586.67 35.95 585.88 L35.53 585 C34.35
							 582.83 32.01 581.45 29.47 581.45 C25.65 581.45 22.53 584.55 22.53 588.36 C22.53 592.17 25.65 595.28
							 29.47 595.28 ZM6.94 595.28 C10.76 595.28 13.88 592.17 13.88 588.36 C13.88 584.55 10.76 581.45 6.94 581.45
							 C4.54 581.45 2.35 582.66 1.07 584.69 L0.54 585.68 C0.18 586.53 0 587.43 0 588.36 C0 592.17 3.11 595.28
							 6.94 595.28 Z" class="st13"/>
			</g>
			<g id="shape300-309" v:mID="300" v:groupContext="groupContent" v:layerMember="1">
				<v:textBlock v:margins="rect(4,4,4,4)" v:tabSpace="42.5197"/>
				<v:textRect cx="35.4331" cy="607.677" width="102.1" height="24.8035"/>
				<text x="-9.7" y="611.88" class="st7" v:langID="2057"><v:paragraph v:horizAlign="1"/><v:tabList/>Lessons Learnt</text>			</g>
		</g>
		<g id="shape305-311" v:mID="305" v:groupContext="shape" v:layerMember="0" transform="translate(933.458,-155.906)">
			<title>Dynamic connector.305</title>
			<path d="M0 588.19 L121 588.19" class="st8"/>
		</g>
		<g id="group306-316" transform="translate(1245.26,-127.559)" v:mID="306" v:groupContext="group" v:layerMember="1">
			<v:userDefs>
				<v:ud v:nameU="visVersion" v:prompt="" v:val="VT0(15):26"/>
				<v:ud v:nameU="ConnGap" v:prompt="" v:val="VT0(0.00012908222537757):24"/>
			</v:userDefs>
			<title>End.43</title>
			<g id="shape307-317" v:mID="307" v:groupContext="shape" v:layerMember="1">
				<title>Sheet.307</title>
				<path d="M35.43 595.28 C15.9 595.28 0 579.38 0 559.84 C0 540.3 15.9 524.41 35.43 524.41 C54.97 524.41 70.87 540.3
							 70.87 559.84 C70.87 579.38 54.97 595.28 35.43 595.28 Z" class="st1"/>
			</g>
			<g id="shape308-319" v:mID="308" v:groupContext="shape" v:layerMember="1" transform="translate(19.8425,-19.8425)">
				<title>Sheet.308</title>
				<v:userDefs>
					<v:ud v:nameU="SurroundingRegionColor" v:prompt="" v:val="VT0(1):26"/>
					<v:ud v:nameU="SurroundingRegionColor" v:prompt="" v:val="VT5(#005eb8)"/>
				</v:userDefs>
				<path d="M0 595.28 L31.18 595.28 L31.18 564.09 L0 564.09 L0 595.28 Z" class="st2"/>
			</g>
		</g>
		<g id="shape309-322" v:mID="309" v:groupContext="shape" v:layerMember="0" transform="translate(1131.88,-170.079)">
			<title>Dynamic connector.309</title>
			<path d="M0 602.36 L106.83 602.36" class="st8"/>
		</g>
	</g>
</svg>
