<?xml version="1.0" encoding="UTF-8" standalone="no"?>
<!DOCTYPE svg PUBLIC "-//W3C//DTD SVG 1.1//EN" "http://www.w3.org/Graphics/SVG/1.1/DTD/svg11.dtd">
<!-- Generated by Microsoft Visio, SVG Export EngagementApproach.svg Page-1 -->
<svg xmlns="http://www.w3.org/2000/svg" xmlns:xlink="http://www.w3.org/1999/xlink" xmlns:ev="http://www.w3.org/2001/xml-events"
		xmlns:v="http://schemas.microsoft.com/visio/2003/SVGExtensions/" width="18.8856in" height="5.76135in"
		viewBox="0 0 1359.76 414.817" xml:space="preserve" color-interpolation-filters="sRGB" class="st14">
	<v:documentProperties v:langID="1033" v:metric="true" v:viewMarkup="false"/>

	<style type="text/css">
	<![CDATA[
		.st1 {fill:#005eb8;stroke:#ffffff;stroke-linecap:round;stroke-linejoin:round;stroke-width:0.5}
		.st2 {fill:#00a2c9}
		.st3 {fill:#000bae}
		.st4 {stroke:#ffffff;stroke-linecap:round;stroke-linejoin:round;stroke-width:0.5}
		.st5 {fill:#000bae;stroke:#ffffff;stroke-linecap:round;stroke-linejoin:round;stroke-width:0.5}
		.st6 {fill:#005eb8}
		.st7 {fill:#000bae;font-family:Segoe UI;font-size:1.16666em}
		.st8 {marker-end:url(#mrkr4-41);stroke:#005db7;stroke-linecap:round;stroke-linejoin:round;stroke-opacity:0.6;stroke-width:0.75}
		.st9 {fill:#005db7;fill-opacity:0.6;stroke:#005db7;stroke-opacity:0.6;stroke-width:0.22935779816514}
		.st10 {font-size:1em}
		.st11 {fill:#ffffff}
		.st12 {stroke:#000c9d;stroke-linecap:round;stroke-linejoin:round;stroke-width:0.5}
		.st13 {fill:#feffff}
		.st14 {fill:none;fill-rule:evenodd;font-size:12px;overflow:visible;stroke-linecap:square;stroke-miterlimit:3}
	]]>
	</style>

	<defs id="Markers">
		<g id="lend4">
			<path d="M 2 1 L 0 0 L 2 -1 L 2 1 " style="stroke:none"/>
		</g>
		<marker id="mrkr4-41" class="st9" v:arrowType="4" v:arrowSize="2" v:setback="8.72" refX="-8.72" orient="auto"
				markerUnits="strokeWidth" overflow="visible">
			<use xlink:href="#lend4" transform="scale(-4.36,-4.36) "/>
		</marker>
	</defs>
	<g v:mID="0" v:index="1" v:groupContext="foregroundPage">
		<title>Page-1</title>
		<v:pageProperties v:drawingScale="0.0393701" v:pageScale="0.0393701" v:drawingUnits="24" v:shadowOffsetX="9"
				v:shadowOffsetY="-9"/>
		<v:layer v:name="Flowchart" v:index="0"/>
		<v:layer v:name="Connector" v:index="1"/>
		<g id="group203-1" transform="translate(318.465,-343.701)" v:mID="203" v:groupContext="group" v:layerMember="0">
			<v:userDefs>
				<v:ud v:nameU="visVersion" v:prompt="" v:val="VT0(15):26"/>
				<v:ud v:nameU="ConnGap" v:prompt="" v:val="VT0(0.00012908222537757):24"/>
			</v:userDefs>
			<title>Start.44</title>
			<g id="shape204-2" v:mID="204" v:groupContext="shape" v:layerMember="0">
				<title>Sheet.204</title>
				<path d="M35.43 414.82 C15.9 414.82 0 398.92 0 379.38 C0 359.85 15.9 343.95 35.43 343.95 C54.97 343.95 70.87 359.85
							 70.87 379.38 C70.87 398.92 54.97 414.82 35.43 414.82 Z" class="st1"/>
			</g>
			<g id="shape205-4" v:mID="205" v:groupContext="shape" v:layerMember="0" transform="translate(28.3465,-19.8269)">
				<title>Sheet.205</title>
				<v:userDefs>
					<v:ud v:nameU="SurroundingRegionColor" v:prompt="" v:val="VT0(1):26"/>
					<v:ud v:nameU="SurroundingRegionColor" v:prompt="" v:val="VT5(#005eb8)"/>
				</v:userDefs>
				<path d="M0 414.82 L24.8 399.21 L0 383.6 L0 414.82 Z" class="st2"/>
			</g>
		</g>
		<a xlink:href="/engage.html#step1"
				xlink:title="Give a brief description of the client we are engaging with and what led them to the business need for interoperability.">
			<g id="group210-7" transform="translate(517.953,-353.622)" v:mID="210" v:groupContext="group" v:layerMember="0">
				<v:userDefs>
					<v:ud v:nameU="visVersion" v:prompt="" v:val="VT0(15):26"/>
					<v:ud v:nameU="ConnGap" v:prompt="" v:val="VT0(0.00012908222537757):24"/>
				</v:userDefs>
				<title>Meeting</title>
				<desc>Document Client Context</desc>
				<g id="shape211-8" v:mID="211" v:groupContext="shape" v:layerMember="0" transform="translate(18.0118,-12.4022)">
					<title>Sheet.211</title>
					<path d="M13.67 389.4 L3.25 389.4 C2.5 389.4 1.81 389.66 1.26 390.09 C0.88 390.39 0.56 390.78 0.34 391.22 C0.12
								 391.66 0 392.16 0 392.69 L0 405.17 L2.85 405.17 L2.85 414.82 L13.97 414.82 L13.97 405.17 L16.93
								 405.17 L16.93 392.69 C16.93 391.93 16.67 391.23 16.24 390.67 C15.94 390.28 15.56 389.97 15.12 389.74
								 C14.69 389.52 14.2 389.4 13.67 389.4 ZM40.5 387.24 L30.08 387.24 C29.33 387.24 28.64 387.5 28.09
								 387.93 C27.71 388.23 27.39 388.62 27.17 389.06 C26.95 389.5 26.83 390 26.83 390.53 L26.83 403.02
								 L29.68 403.02 L29.68 412.66 L40.79 412.66 L40.79 403.02 L43.76 403.02 L43.76 390.53 C43.76 389.77
								 43.5 389.07 43.07 388.51 C42.77 388.13 42.39 387.81 41.95 387.59 C41.52 387.37 41.02 387.24 40.5
								 387.24 ZM13.33 383.22 A4.81307 4.8663 -180 1 0 3.71 383.22 A4.81307 4.8663 -180 1 0 13.33 383.22
								 ZM40.16 381.06 A4.81307 4.86244 -180 1 0 30.53 381.06 A4.81307 4.86244 -180 1 0 40.16 381.06 Z"
							class="st3"/>
					<path d="M13.67 389.4 L3.25 389.4 C2.5 389.4 1.81 389.66 1.26 390.09 C0.88 390.39 0.56 390.78 0.34 391.22 C0.12
								 391.66 0 392.16 0 392.69 L0 405.17 L2.85 405.17 L2.85 414.82 L13.97 414.82 L13.97 405.17 L16.93
								 405.17 L16.93 392.69 C16.93 391.93 16.67 391.23 16.24 390.67 C15.94 390.28 15.56 389.97 15.12 389.74
								 C14.69 389.52 14.2 389.4 13.67 389.4" class="st4"/>
					<path d="M8.46 414.82 L8.46 407.11" class="st4"/>
					<path d="M2.85 405.17 L2.85 398.52" class="st4"/>
					<path d="M13.97 405.17 L13.97 398.52" class="st4"/>
					<path d="M40.5 387.24 L30.08 387.24 C29.33 387.24 28.64 387.5 28.09 387.93 C27.71 388.23 27.39 388.62 27.17 389.06
								 C26.95 389.5 26.83 390 26.83 390.53 L26.83 403.02 L29.68 403.02 L29.68 412.66 L40.79 412.66 L40.79
								 403.02 L43.76 403.02 L43.76 390.53 C43.76 389.77 43.5 389.07 43.07 388.51 C42.77 388.13 42.39 387.81
								 41.95 387.59 C41.52 387.37 41.02 387.24 40.5 387.24" class="st4"/>
					<path d="M35.29 412.66 L35.29 404.95" class="st4"/>
					<path d="M29.68 403.02 L29.68 396.36" class="st4"/>
					<path d="M40.79 403.02 L40.79 396.36" class="st4"/>
					<path d="M13.33 383.22 A4.81307 4.8663 -180 1 0 3.71 383.22 A4.81307 4.8663 -180 1 0 13.33 383.22" class="st4"/>
					<path d="M40.16 381.06 A4.81307 4.86244 -180 1 0 30.53 381.06 A4.81307 4.86244 -180 1 0 40.16 381.06"
							class="st4"/>
				</g>
				<g id="shape212-20" v:mID="212" v:groupContext="shape" v:layerMember="0" transform="translate(0,-10.9224)">
					<title>Sheet.212</title>
					<path d="M29.02 414.82 L70.87 398.3 L42.26 392.33 L0 403.03 L29.02 414.82 Z" class="st5"/>
				</g>
				<g id="shape213-22" v:mID="213" v:groupContext="shape" v:layerMember="0" transform="translate(6.42108,2.84217E-13)">
					<title>Sheet.213</title>
					<path d="M13.67 389.4 L3.25 389.4 C2.5 389.4 1.81 389.66 1.26 390.09 C0.88 390.39 0.56 390.78 0.34 391.22 C0.12
								 391.66 0 392.16 0 392.69 L0 405.17 L2.85 405.17 L2.85 414.82 L13.97 414.82 L13.97 405.17 L16.93
								 405.17 L16.93 392.69 C16.93 391.93 16.67 391.23 16.24 390.67 C15.94 390.28 15.56 389.97 15.12 389.74
								 C14.69 389.52 14.2 389.4 13.67 389.4 ZM44.47 387.58 L34.05 387.58 C33.3 387.58 32.61 387.84 32.06
								 388.27 C31.68 388.57 31.36 388.96 31.14 389.4 C30.92 389.84 30.8 390.34 30.8 390.87 L30.8 403.35
								 L33.65 403.35 L33.65 413 L44.77 413 L44.77 403.35 L47.73 403.35 L47.73 390.87 C47.73 390.11 47.47
								 389.41 47.04 388.85 C46.74 388.46 46.36 388.15 45.93 387.92 C45.49 387.7 45 387.58 44.47 387.58
								 ZM13.33 383.22 A4.81089 4.86602 -180 1 0 3.71 383.22 A4.81089 4.86602 -180 1 0 13.33 383.22 ZM44.13
								 381.39 A4.81566 4.86219 -180 1 0 34.5 381.39 A4.81566 4.86219 -180 1 0 44.13 381.39 Z" class="st6"/>
					<path d="M13.67 389.4 L3.25 389.4 C2.5 389.4 1.81 389.66 1.26 390.09 C0.88 390.39 0.56 390.78 0.34 391.22 C0.12
								 391.66 0 392.16 0 392.69 L0 405.17 L2.85 405.17 L2.85 414.82 L13.97 414.82 L13.97 405.17 L16.93
								 405.17 L16.93 392.69 C16.93 391.93 16.67 391.23 16.24 390.67 C15.94 390.28 15.56 389.97 15.12 389.74
								 C14.69 389.52 14.2 389.4 13.67 389.4" class="st4"/>
					<path d="M8.46 414.82 L8.46 407.11" class="st4"/>
					<path d="M2.85 405.17 L2.85 398.52" class="st4"/>
					<path d="M13.97 405.17 L13.97 398.52" class="st4"/>
					<path d="M44.47 387.58 L34.05 387.58 C33.3 387.58 32.61 387.84 32.06 388.27 C31.68 388.57 31.36 388.96 31.14
								 389.4 C30.92 389.84 30.8 390.34 30.8 390.87 L30.8 403.35 L33.65 403.35 L33.65 413 L44.77 413 L44.77
								 403.35 L47.73 403.35 L47.73 390.87 C47.73 390.11 47.47 389.41 47.04 388.85 C46.74 388.46 46.36 388.15
								 45.93 387.92 C45.49 387.7 45 387.58 44.47 387.58" class="st4"/>
					<path d="M39.26 413 L39.26 405.29" class="st4"/>
					<path d="M33.65 403.35 L33.65 396.7" class="st4"/>
					<path d="M44.77 403.35 L44.77 396.7" class="st4"/>
					<path d="M13.33 383.22 A4.81089 4.86602 -180 1 0 3.71 383.22 A4.81089 4.86602 -180 1 0 13.33 383.22"
							class="st4"/>
					<path d="M44.13 381.39 A4.81566 4.86219 -180 1 0 34.5 381.39 A4.81566 4.86219 -180 1 0 44.13 381.39"
							class="st4"/>
				</g>
				<g id="shape210-34" v:mID="210" v:groupContext="groupContent" v:layerMember="0">
					<v:textBlock v:margins="rect(4,4,4,4)" v:tabSpace="42.5197"/>
					<v:textRect cx="35.4331" cy="427.219" width="167.44" height="24.8035"/>
					<text x="-42.36" y="431.42" class="st7" v:langID="2057"><v:paragraph v:horizAlign="1"/><v:tabList/>Document Client Context</text>				</g>
			</g>
		</a>
		<g id="shape214-36" v:mID="214" v:groupContext="shape" v:layerMember="1" transform="translate(389.34,-372.048)">
			<title>Dynamic connector</title>
			<path d="M0 407.73 L122.06 407.73" class="st8"/>
		</g>
		<a xlink:href="/engage.html#step2" xlink:title="Description of the client&#39;s business needs and expectations.">
			<g id="group215-42" transform="translate(695.561,-353.622)" v:mID="215" v:groupContext="group" v:layerMember="0">
				<v:userDefs>
					<v:ud v:nameU="visVersion" v:prompt="" v:val="VT0(15):26"/>
					<v:ud v:nameU="ConnGap" v:prompt="" v:val="VT0(0.00012908222537757):24"/>
				</v:userDefs>
				<title>Meeting.215</title>
				<desc>Document Case Overview</desc>
				<g id="shape216-43" v:mID="216" v:groupContext="shape" v:layerMember="0" transform="translate(18.0118,-12.4022)">
					<title>Sheet.216</title>
					<path d="M13.67 389.4 L3.25 389.4 C2.5 389.4 1.81 389.66 1.26 390.09 C0.88 390.39 0.56 390.78 0.34 391.22 C0.12
								 391.66 0 392.16 0 392.69 L0 405.17 L2.85 405.17 L2.85 414.82 L13.97 414.82 L13.97 405.17 L16.93
								 405.17 L16.93 392.69 C16.93 391.93 16.67 391.23 16.24 390.67 C15.94 390.28 15.56 389.97 15.12 389.74
								 C14.69 389.52 14.2 389.4 13.67 389.4 ZM40.5 387.24 L30.08 387.24 C29.33 387.24 28.64 387.5 28.09
								 387.93 C27.71 388.23 27.39 388.62 27.17 389.06 C26.95 389.5 26.83 390 26.83 390.53 L26.83 403.02
								 L29.68 403.02 L29.68 412.66 L40.79 412.66 L40.79 403.02 L43.76 403.02 L43.76 390.53 C43.76 389.77
								 43.5 389.07 43.07 388.51 C42.77 388.13 42.39 387.81 41.95 387.59 C41.52 387.37 41.02 387.24 40.5
								 387.24 ZM13.33 383.22 A4.81307 4.8663 -180 1 0 3.71 383.22 A4.81307 4.8663 -180 1 0 13.33 383.22
								 ZM40.16 381.06 A4.81307 4.86244 -180 1 0 30.53 381.06 A4.81307 4.86244 -180 1 0 40.16 381.06 Z"
							class="st3"/>
					<path d="M13.67 389.4 L3.25 389.4 C2.5 389.4 1.81 389.66 1.26 390.09 C0.88 390.39 0.56 390.78 0.34 391.22 C0.12
								 391.66 0 392.16 0 392.69 L0 405.17 L2.85 405.17 L2.85 414.82 L13.97 414.82 L13.97 405.17 L16.93
								 405.17 L16.93 392.69 C16.93 391.93 16.67 391.23 16.24 390.67 C15.94 390.28 15.56 389.97 15.12 389.74
								 C14.69 389.52 14.2 389.4 13.67 389.4" class="st4"/>
					<path d="M8.46 414.82 L8.46 407.11" class="st4"/>
					<path d="M2.85 405.17 L2.85 398.52" class="st4"/>
					<path d="M13.97 405.17 L13.97 398.52" class="st4"/>
					<path d="M40.5 387.24 L30.08 387.24 C29.33 387.24 28.64 387.5 28.09 387.93 C27.71 388.23 27.39 388.62 27.17 389.06
								 C26.95 389.5 26.83 390 26.83 390.53 L26.83 403.02 L29.68 403.02 L29.68 412.66 L40.79 412.66 L40.79
								 403.02 L43.76 403.02 L43.76 390.53 C43.76 389.77 43.5 389.07 43.07 388.51 C42.77 388.13 42.39 387.81
								 41.95 387.59 C41.52 387.37 41.02 387.24 40.5 387.24" class="st4"/>
					<path d="M35.29 412.66 L35.29 404.95" class="st4"/>
					<path d="M29.68 403.02 L29.68 396.36" class="st4"/>
					<path d="M40.79 403.02 L40.79 396.36" class="st4"/>
					<path d="M13.33 383.22 A4.81307 4.8663 -180 1 0 3.71 383.22 A4.81307 4.8663 -180 1 0 13.33 383.22" class="st4"/>
					<path d="M40.16 381.06 A4.81307 4.86244 -180 1 0 30.53 381.06 A4.81307 4.86244 -180 1 0 40.16 381.06"
							class="st4"/>
				</g>
				<g id="shape217-55" v:mID="217" v:groupContext="shape" v:layerMember="0" transform="translate(0,-10.9224)">
					<title>Sheet.217</title>
					<path d="M29.02 414.82 L70.87 398.3 L42.26 392.33 L0 403.03 L29.02 414.82 Z" class="st5"/>
				</g>
				<g id="shape218-57" v:mID="218" v:groupContext="shape" v:layerMember="0" transform="translate(6.42108,2.84217E-13)">
					<title>Sheet.218</title>
					<path d="M13.67 389.4 L3.25 389.4 C2.5 389.4 1.81 389.66 1.26 390.09 C0.88 390.39 0.56 390.78 0.34 391.22 C0.12
								 391.66 0 392.16 0 392.69 L0 405.17 L2.85 405.17 L2.85 414.82 L13.97 414.82 L13.97 405.17 L16.93
								 405.17 L16.93 392.69 C16.93 391.93 16.67 391.23 16.24 390.67 C15.94 390.28 15.56 389.97 15.12 389.74
								 C14.69 389.52 14.2 389.4 13.67 389.4 ZM44.47 387.58 L34.05 387.58 C33.3 387.58 32.61 387.84 32.06
								 388.27 C31.68 388.57 31.36 388.96 31.14 389.4 C30.92 389.84 30.8 390.34 30.8 390.87 L30.8 403.35
								 L33.65 403.35 L33.65 413 L44.77 413 L44.77 403.35 L47.73 403.35 L47.73 390.87 C47.73 390.11 47.47
								 389.41 47.04 388.85 C46.74 388.46 46.36 388.15 45.93 387.92 C45.49 387.7 45 387.58 44.47 387.58
								 ZM13.33 383.22 A4.81089 4.86602 -180 1 0 3.71 383.22 A4.81089 4.86602 -180 1 0 13.33 383.22 ZM44.13
								 381.39 A4.81566 4.86219 -180 1 0 34.5 381.39 A4.81566 4.86219 -180 1 0 44.13 381.39 Z" class="st6"/>
					<path d="M13.67 389.4 L3.25 389.4 C2.5 389.4 1.81 389.66 1.26 390.09 C0.88 390.39 0.56 390.78 0.34 391.22 C0.12
								 391.66 0 392.16 0 392.69 L0 405.17 L2.85 405.17 L2.85 414.82 L13.97 414.82 L13.97 405.17 L16.93
								 405.17 L16.93 392.69 C16.93 391.93 16.67 391.23 16.24 390.67 C15.94 390.28 15.56 389.97 15.12 389.74
								 C14.69 389.52 14.2 389.4 13.67 389.4" class="st4"/>
					<path d="M8.46 414.82 L8.46 407.11" class="st4"/>
					<path d="M2.85 405.17 L2.85 398.52" class="st4"/>
					<path d="M13.97 405.17 L13.97 398.52" class="st4"/>
					<path d="M44.47 387.58 L34.05 387.58 C33.3 387.58 32.61 387.84 32.06 388.27 C31.68 388.57 31.36 388.96 31.14
								 389.4 C30.92 389.84 30.8 390.34 30.8 390.87 L30.8 403.35 L33.65 403.35 L33.65 413 L44.77 413 L44.77
								 403.35 L47.73 403.35 L47.73 390.87 C47.73 390.11 47.47 389.41 47.04 388.85 C46.74 388.46 46.36 388.15
								 45.93 387.92 C45.49 387.7 45 387.58 44.47 387.58" class="st4"/>
					<path d="M39.26 413 L39.26 405.29" class="st4"/>
					<path d="M33.65 403.35 L33.65 396.7" class="st4"/>
					<path d="M44.77 403.35 L44.77 396.7" class="st4"/>
					<path d="M13.33 383.22 A4.81089 4.86602 -180 1 0 3.71 383.22 A4.81089 4.86602 -180 1 0 13.33 383.22"
							class="st4"/>
					<path d="M44.13 381.39 A4.81566 4.86219 -180 1 0 34.5 381.39 A4.81566 4.86219 -180 1 0 44.13 381.39"
							class="st4"/>
				</g>
				<g id="shape215-69" v:mID="215" v:groupContext="groupContent" v:layerMember="0">
					<v:textBlock v:margins="rect(4,4,4,4)" v:tabSpace="42.5197"/>
					<v:textRect cx="35.4331" cy="427.219" width="170.01" height="24.8035"/>
					<text x="-43.65" y="431.42" class="st7" v:langID="2057"><v:paragraph v:horizAlign="1"/><v:tabList/>Document Case Overview</text>				</g>
			</g>
		</a>
		<a xlink:href="..\EngagementApproach.html#agree-business-requirements">
			<g id="shape219-71" v:mID="219" v:groupContext="shape" v:layerMember="1" transform="translate(588.828,-372.048)">
				<title>Dynamic connector.219</title>
				<path d="M0 407.73 L100.18 407.73" class="st8"/>
			</g>
		</a>
		<a xlink:href="/engage.html#step3" xlink:title="Describe the current ineroperability issues.">
			<g id="group220-76" transform="translate(873.169,-353.622)" v:mID="220" v:groupContext="group" v:layerMember="0">
				<v:userDefs>
					<v:ud v:nameU="visVersion" v:prompt="" v:val="VT0(15):26"/>
					<v:ud v:nameU="ConnGap" v:prompt="" v:val="VT0(0.00012908222537757):24"/>
				</v:userDefs>
				<title>Meeting.220</title>
				<desc>Document Problem Statement</desc>
				<g id="shape221-77" v:mID="221" v:groupContext="shape" v:layerMember="0" transform="translate(18.0118,-12.4022)">
					<title>Sheet.221</title>
					<path d="M13.67 389.4 L3.25 389.4 C2.5 389.4 1.81 389.66 1.26 390.09 C0.88 390.39 0.56 390.78 0.34 391.22 C0.12
								 391.66 0 392.16 0 392.69 L0 405.17 L2.85 405.17 L2.85 414.82 L13.97 414.82 L13.97 405.17 L16.93
								 405.17 L16.93 392.69 C16.93 391.93 16.67 391.23 16.24 390.67 C15.94 390.28 15.56 389.97 15.12 389.74
								 C14.69 389.52 14.2 389.4 13.67 389.4 ZM40.5 387.24 L30.08 387.24 C29.33 387.24 28.64 387.5 28.09
								 387.93 C27.71 388.23 27.39 388.62 27.17 389.06 C26.95 389.5 26.83 390 26.83 390.53 L26.83 403.02
								 L29.68 403.02 L29.68 412.66 L40.79 412.66 L40.79 403.02 L43.76 403.02 L43.76 390.53 C43.76 389.77
								 43.5 389.07 43.07 388.51 C42.77 388.13 42.39 387.81 41.95 387.59 C41.52 387.37 41.02 387.24 40.5
								 387.24 ZM13.33 383.22 A4.81307 4.8663 -180 1 0 3.71 383.22 A4.81307 4.8663 -180 1 0 13.33 383.22
								 ZM40.16 381.06 A4.81307 4.86244 -180 1 0 30.53 381.06 A4.81307 4.86244 -180 1 0 40.16 381.06 Z"
							class="st3"/>
					<path d="M13.67 389.4 L3.25 389.4 C2.5 389.4 1.81 389.66 1.26 390.09 C0.88 390.39 0.56 390.78 0.34 391.22 C0.12
								 391.66 0 392.16 0 392.69 L0 405.17 L2.85 405.17 L2.85 414.82 L13.97 414.82 L13.97 405.17 L16.93
								 405.17 L16.93 392.69 C16.93 391.93 16.67 391.23 16.24 390.67 C15.94 390.28 15.56 389.97 15.12 389.74
								 C14.69 389.52 14.2 389.4 13.67 389.4" class="st4"/>
					<path d="M8.46 414.82 L8.46 407.11" class="st4"/>
					<path d="M2.85 405.17 L2.85 398.52" class="st4"/>
					<path d="M13.97 405.17 L13.97 398.52" class="st4"/>
					<path d="M40.5 387.24 L30.08 387.24 C29.33 387.24 28.64 387.5 28.09 387.93 C27.71 388.23 27.39 388.62 27.17 389.06
								 C26.95 389.5 26.83 390 26.83 390.53 L26.83 403.02 L29.68 403.02 L29.68 412.66 L40.79 412.66 L40.79
								 403.02 L43.76 403.02 L43.76 390.53 C43.76 389.77 43.5 389.07 43.07 388.51 C42.77 388.13 42.39 387.81
								 41.95 387.59 C41.52 387.37 41.02 387.24 40.5 387.24" class="st4"/>
					<path d="M35.29 412.66 L35.29 404.95" class="st4"/>
					<path d="M29.68 403.02 L29.68 396.36" class="st4"/>
					<path d="M40.79 403.02 L40.79 396.36" class="st4"/>
					<path d="M13.33 383.22 A4.81307 4.8663 -180 1 0 3.71 383.22 A4.81307 4.8663 -180 1 0 13.33 383.22" class="st4"/>
					<path d="M40.16 381.06 A4.81307 4.86244 -180 1 0 30.53 381.06 A4.81307 4.86244 -180 1 0 40.16 381.06"
							class="st4"/>
				</g>
				<g id="shape222-89" v:mID="222" v:groupContext="shape" v:layerMember="0" transform="translate(0,-10.9224)">
					<title>Sheet.222</title>
					<path d="M29.02 414.82 L70.87 398.3 L42.26 392.33 L0 403.03 L29.02 414.82 Z" class="st5"/>
				</g>
				<g id="shape223-91" v:mID="223" v:groupContext="shape" v:layerMember="0" transform="translate(6.42108,2.84217E-13)">
					<title>Sheet.223</title>
					<path d="M13.67 389.4 L3.25 389.4 C2.5 389.4 1.81 389.66 1.26 390.09 C0.88 390.39 0.56 390.78 0.34 391.22 C0.12
								 391.66 0 392.16 0 392.69 L0 405.17 L2.85 405.17 L2.85 414.82 L13.97 414.82 L13.97 405.17 L16.93
								 405.17 L16.93 392.69 C16.93 391.93 16.67 391.23 16.24 390.67 C15.94 390.28 15.56 389.97 15.12 389.74
								 C14.69 389.52 14.2 389.4 13.67 389.4 ZM44.47 387.58 L34.05 387.58 C33.3 387.58 32.61 387.84 32.06
								 388.27 C31.68 388.57 31.36 388.96 31.14 389.4 C30.92 389.84 30.8 390.34 30.8 390.87 L30.8 403.35
								 L33.65 403.35 L33.65 413 L44.77 413 L44.77 403.35 L47.73 403.35 L47.73 390.87 C47.73 390.11 47.47
								 389.41 47.04 388.85 C46.74 388.46 46.36 388.15 45.93 387.92 C45.49 387.7 45 387.58 44.47 387.58
								 ZM13.33 383.22 A4.81089 4.86602 -180 1 0 3.71 383.22 A4.81089 4.86602 -180 1 0 13.33 383.22 ZM44.13
								 381.39 A4.81566 4.86219 -180 1 0 34.5 381.39 A4.81566 4.86219 -180 1 0 44.13 381.39 Z" class="st6"/>
					<path d="M13.67 389.4 L3.25 389.4 C2.5 389.4 1.81 389.66 1.26 390.09 C0.88 390.39 0.56 390.78 0.34 391.22 C0.12
								 391.66 0 392.16 0 392.69 L0 405.17 L2.85 405.17 L2.85 414.82 L13.97 414.82 L13.97 405.17 L16.93
								 405.17 L16.93 392.69 C16.93 391.93 16.67 391.23 16.24 390.67 C15.94 390.28 15.56 389.97 15.12 389.74
								 C14.69 389.52 14.2 389.4 13.67 389.4" class="st4"/>
					<path d="M8.46 414.82 L8.46 407.11" class="st4"/>
					<path d="M2.85 405.17 L2.85 398.52" class="st4"/>
					<path d="M13.97 405.17 L13.97 398.52" class="st4"/>
					<path d="M44.47 387.58 L34.05 387.58 C33.3 387.58 32.61 387.84 32.06 388.27 C31.68 388.57 31.36 388.96 31.14
								 389.4 C30.92 389.84 30.8 390.34 30.8 390.87 L30.8 403.35 L33.65 403.35 L33.65 413 L44.77 413 L44.77
								 403.35 L47.73 403.35 L47.73 390.87 C47.73 390.11 47.47 389.41 47.04 388.85 C46.74 388.46 46.36 388.15
								 45.93 387.92 C45.49 387.7 45 387.58 44.47 387.58" class="st4"/>
					<path d="M39.26 413 L39.26 405.29" class="st4"/>
					<path d="M33.65 403.35 L33.65 396.7" class="st4"/>
					<path d="M44.77 403.35 L44.77 396.7" class="st4"/>
					<path d="M13.33 383.22 A4.81089 4.86602 -180 1 0 3.71 383.22 A4.81089 4.86602 -180 1 0 13.33 383.22"
							class="st4"/>
					<path d="M44.13 381.39 A4.81566 4.86219 -180 1 0 34.5 381.39 A4.81566 4.86219 -180 1 0 44.13 381.39"
							class="st4"/>
				</g>
				<g id="shape220-103" v:mID="220" v:groupContext="groupContent" v:layerMember="0">
					<v:textBlock v:margins="rect(4,4,4,4)" v:tabSpace="42.5197"/>
					<v:textRect cx="35.4331" cy="435.619" width="177.17" height="41.6033"/>
					<text x="-24.67" y="431.42" class="st7" v:langID="2057"><v:paragraph v:horizAlign="1"/><v:tabList/>Document Problem <tspan
								x="3.72" dy="1.2em" class="st10">Statement</tspan></text>				</g>
			</g>
		</a>
		<a xlink:href="..\EngagementApproach.html#agree-business-requirements">
			<g id="shape224-106" v:mID="224" v:groupContext="shape" v:layerMember="1" transform="translate(766.436,-372.048)">
				<title>Dynamic connector.224</title>
				<path d="M0 407.73 L100.18 407.73" class="st8"/>
			</g>
		</a>
		<a xlink:href="/engage.html#step4"
				xlink:title="Visually represent the business case to confirm understanding of the problem with the client.">
			<g id="group225-111" transform="translate(1050.78,-343.701)" v:mID="225" v:groupContext="group" v:layerMember="0">
				<v:userDefs>
					<v:ud v:nameU="visVersion" v:prompt="" v:val="VT0(15):26"/>
					<v:ud v:nameU="ConnGap" v:prompt="" v:val="VT0(0.00012908222537757):24"/>
				</v:userDefs>
				<title>Analyze</title>
				<desc>Identify the Business Requirements</desc>
				<g id="shape226-112" v:mID="226" v:groupContext="shape" v:layerMember="0" transform="translate(0,-22.2882)">
					<title>Sheet.226</title>
					<path d="M33.22 375.05 L24.96 366.24 L0 366.24 L0 412.5 L19.09 412.5 L21.72 414.82 L36.56 414.82 L36.56 396.31
								 L33.24 394.47 L33.22 375.05 Z" class="st1"/>
				</g>
				<g id="shape227-114" v:mID="227" v:groupContext="shape" v:layerMember="0" transform="translate(6.17567,-31.8303)">
					<title>Sheet.227</title>
					<v:userDefs>
						<v:ud v:nameU="SurroundingRegionColor" v:prompt="" v:val="VT0(1):26"/>
						<v:ud v:nameU="SurroundingRegionColor" v:prompt="" v:val="VT5(#005eb8)"/>
					</v:userDefs>
					<path d="M18.55 376.09 L26.54 384.62 L18.55 384.62 L18.55 376.09 ZM0 385.16 L8.24 385.16 L8.24 384.19 L0 384.19
								 L-0 385.16 ZM0 390.68 L8.24 390.68 L8.24 389.71 L0 389.71 L-0 390.68 ZM0 396.2 L20.87 396.2 L20.87
								 395.24 L0 395.24 L-0 396.2 ZM0 401.73 L20.87 401.73 L20.87 400.76 L0 400.76 L-0 401.73 ZM0 407.25
								 L20.87 407.25 L20.87 406.28 L0 406.28 L-0 407.25 ZM12.63 412.71 L13.55 412.71 L13.55 411.74 L12.63
								 411.74 L12.63 412.71 L12.63 412.71 ZM15.93 414.82 L24.42 414.82 L24.42 413.27 L15.93 413.27 L15.93
								 414.82 Z" class="st11"/>
				</g>
				<g id="shape228-117" v:mID="228" v:groupContext="shape" v:layerMember="0" transform="translate(18.6889,0)">
					<title>Sheet.228</title>
					<path d="M16.82 400.07 L26.75 389.71 C27 388.62 27.14 387.48 27.14 386.31 C27.14 378.49 21.06 372.14 13.57 372.14
								 C6.07 372.14 0 378.49 0 386.31 C0 394.14 6.07 400.48 13.57 400.48 C14.69 400.48 15.78 400.34 16.82
								 400.07 ZM21 394.08 C16.9 398.36 10.23 398.36 6.14 394.08 C2.04 389.8 2.04 382.83 6.13 378.55 C10.23
								 374.27 16.9 374.27 21 378.55 C25.1 382.83 25.1 389.8 21 394.08 ZM26.75 389.71 L16.76 400.14 C18.24
								 401.69 18.85 402.88 21.32 400.27 C25.01 396.39 22.27 399.69 23.66 401.16 C35.07 413.24 37.25 416.83
								 40.15 413.8 L40.15 413.8 C40.15 413.8 40.16 413.8 40.16 413.79 C40.16 413.79 40.16 413.78 40.16
								 413.78 C42.54 411.31 38.7 408.3 27.8 396.84 C26.4 395.38 23.23 398.25 26.95 394.4 C29.43 391.82
								 28.29 391.19 26.81 389.64 L26.75 389.71 Z" class="st5"/>
				</g>
				<g id="shape225-119" v:mID="225" v:groupContext="groupContent" v:layerMember="0">
					<v:textBlock v:margins="rect(4,4,4,4)" v:tabSpace="42.5197"/>
					<v:textRect cx="29.7638" cy="435.619" width="148.82" height="41.6033"/>
					<text x="-33.52" y="431.42" class="st7" v:langID="2057"><v:paragraph v:horizAlign="1"/><v:tabList/>Identify the Business <tspan
								x="-12.95" dy="1.2em" class="st10">Requirements</tspan></text>				</g>
			</g>
		</a>
		<a xlink:href="..\EngagementApproach.html#agree-business-requirements">
			<g id="shape229-122" v:mID="229" v:groupContext="shape" v:layerMember="1" transform="translate(944.045,-372.048)">
				<title>Dynamic connector.229</title>
				<path d="M0 407.73 L100.18 407.73" class="st8"/>
			</g>
		</a>
		<a xlink:href="/engage.html#step5"
				xlink:title="Given that the solution is likely to be implemented against existing systems it should be straightforward to identify which data items the client wants to send or receive between those systems. Get XML representation of the data structure if possible.">
			<g id="group234-127" transform="translate(1217.05,-343.701)" v:mID="234" v:groupContext="group" v:layerMember="0">
				<v:userDefs>
					<v:ud v:nameU="visVersion" v:prompt="" v:val="VT0(15):26"/>
					<v:ud v:nameU="ConnGap" v:prompt="" v:val="VT0(0.00012908222537757):24"/>
				</v:userDefs>
				<title>Request</title>
				<desc>Identify Dataset</desc>
				<g id="shape235-128" v:mID="235" v:groupContext="shape" v:layerMember="0">
					<title>Sheet.235</title>
					<path d="M28.42 414.82 L28.34 397.49 L3.64 397.49 C1.63 397.49 0 395.95 0 394.07 L0 347.37 C0 345.49 1.63 343.95
								 3.64 343.95 L55.89 343.95 C57.9 343.95 59.53 345.49 59.53 347.37 L59.53 394.07 C59.53 395.95 57.9
								 397.49 55.89 397.49 L39.89 397.49 L28.42 414.82 Z" class="st1"/>
				</g>
				<g id="shape236-130" v:mID="236" v:groupContext="shape" v:layerMember="0" transform="translate(23.4278,-26.9603)">
					<title>Sheet.236</title>
					<path d="M10.11 403.57 L10.12 399.89 C10.13 399.52 10.49 398.48 10.91 397.79 L14.37 393.06 C14.98 392.22 15.29
								 391.23 15.29 390.09 L15.29 383.78 C15.29 381.52 14.06 380.29 11.84 380.29 L3.44 380.29 C1.22 380.29
								 0 381.52 0 383.78 L0 389.86 L5.77 389.86 L5.77 385.89 C5.81 385.69 5.94 385.53 6.13 385.47 L9.06
								 385.47 C9.28 385.5 9.45 385.67 9.5 385.88 L9.5 389.36 C9.5 389.74 9.1 390.84 8.66 391.53 L8.46 391.81
								 L5.29 396.16 C4.69 397.01 4.37 398.03 4.37 399.2 L4.37 403.57 L10.11 403.57 ZM10.24 414.82 L10.24
								 405.6 L4.24 405.6 L4.24 414.82 L10.24 414.82 Z" class="st5"/>
				</g>
				<g id="shape234-132" v:mID="234" v:groupContext="groupContent" v:layerMember="0">
					<v:textBlock v:margins="rect(4,4,4,4)" v:tabSpace="42.5197"/>
					<v:textRect cx="29.7638" cy="427.219" width="109" height="24.8035"/>
					<text x="-18.81" y="431.42" class="st7" v:langID="2057"><v:paragraph v:horizAlign="1"/><v:tabList/>Identify Dataset</text>				</g>
			</g>
		</a>
		<a xlink:href="..\EngagementApproach.html#agree-business-requirements">
			<g id="shape237-134" v:mID="237" v:groupContext="shape" v:layerMember="1" transform="translate(1110.31,-372.048)">
				<title>Dynamic connector.237</title>
				<path d="M0 407.73 L100.18 407.73" class="st8"/>
			</g>
		</a>
		<a xlink:href="/engage.html#step6"
				xlink:title="Identify which Care Connect profiles and FHIR resources can be used to meet the requirement. An entity relationship diagram can help to describe the profiles.">
			<g id="group238-139" transform="translate(1211.38,-201.969)" v:mID="238" v:groupContext="group" v:layerMember="0">
				<v:userDefs>
					<v:ud v:nameU="visVersion" v:prompt="" v:val="VT0(15):26"/>
					<v:ud v:nameU="ConnGap" v:prompt="" v:val="VT0(0.00012908222537757):24"/>
				</v:userDefs>
				<title>Brainstorm</title>
				<desc>Identify Profiles and Resources</desc>
				<g id="shape239-140" v:mID="239" v:groupContext="shape" v:layerMember="0">
					<title>Sheet.239</title>
					<path d="M63.49 364.93 C63.81 363.91 63.97 362.85 63.97 361.77 C63.97 355.69 58.92 350.73 52.72 350.71 C50.97
								 346.64 46.88 343.95 42.33 343.95 C39.83 343.95 37.41 344.77 35.43 346.27 C33.46 344.77 31.04 343.95
								 28.53 343.95 C23.99 343.95 19.9 346.64 18.14 350.71 C11.94 350.73 6.9 355.69 6.9 361.77 C6.9 362.84
								 7.06 363.9 7.38 364.93 C2.99 366.52 0 370.65 0 375.3 C0 381.4 5.06 386.36 11.28 386.36 C12.49 386.36
								 13.67 386.18 14.8 385.81 C16.17 388.23 18.77 389.74 21.63 389.74 C21.67 389.74 21.7 389.74 21.73
								 389.74 L19.72 396.88 L26.49 396.88 L25.37 403.61 L31.6 403.79 L30.02 414.82 L53.09 394.95 L45.17
								 394.95 L48.32 389.69 C48.62 389.73 48.93 389.74 49.23 389.74 C52.1 389.74 54.7 388.23 56.07 385.81
								 C57.2 386.18 58.38 386.36 59.58 386.36 C65.8 386.36 70.87 381.4 70.87 375.3 C70.87 370.65 67.88
								 366.52 63.49 364.93 Z" class="st1"/>
				</g>
				<g id="shape240-142" v:mID="240" v:groupContext="shape" v:layerMember="0" transform="translate(23.6515,-17.9131)">
					<title>Sheet.240</title>
					<v:userDefs>
						<v:ud v:nameU="SurroundingRegionColor" v:prompt="" v:val="VT0(1):26"/>
						<v:ud v:nameU="SurroundingRegionColor" v:prompt="" v:val="VT5(#005eb8)"/>
					</v:userDefs>
					<path d="M12.16 383.09 L12.02 383.09 C5.39 383.09 0 388.38 0 394.87 C0 398.57 1.8 402.09 4.82 404.31 C5.96 405.24
								 6.4 405.7 6.63 406.18 L6.79 406.51 C6.46 406.99 6.25 407.57 6.25 408.21 C6.25 409.73 7.39 410.96
								 8.8 411.03 L8.81 411.13 C8.83 412.06 8.87 413.35 9.67 413.96 C10.26 414.51 11.11 414.82 12.07 414.82
								 C13.37 414.82 14.46 414.27 14.99 413.36 L15.18 413.02 C15.18 413.02 15.36 411.26 15.37 411.18 L15.38
								 411.03 C16.79 410.95 17.91 409.72 17.91 408.21 C17.91 407.58 17.71 407 17.38 406.52 L17.54 406.18
								 C17.77 405.7 18.22 405.24 19.36 404.31 C22.38 402.1 24.18 398.57 24.18 394.88 C24.18 388.38 18.78
								 383.09 12.16 383.09 Z" class="st11"/>
					<path d="M6.79 406.52 L17.38 406.52" class="st4"/>
					<path d="M8.81 411.13 L15.37 411.13" class="st4"/>
				</g>
				<g id="shape241-146" v:mID="241" v:groupContext="shape" v:layerMember="0" transform="translate(7.24466,-36.8885)">
					<title>Sheet.241</title>
					<path d="M46 414.82 L57.7 414.82" class="st12"/>
					<path d="M49.94 396.91 L41.68 405.02" class="st12"/>
					<path d="M28.65 388.75 L28.65 400.22" class="st12"/>
					<path d="M7.76 396.34 L16.03 404.44" class="st12"/>
					<path d="M0 414.82 L11.7 414.82" class="st12"/>
				</g>
				<g id="shape238-153" v:mID="238" v:groupContext="groupContent" v:layerMember="0">
					<v:textBlock v:margins="rect(4,4,4,4)" v:tabSpace="42.5197"/>
					<v:textRect cx="35.4331" cy="435.619" width="177.17" height="41.6033"/>
					<text x="-25.97" y="431.42" class="st7" v:langID="2057"><v:paragraph v:horizAlign="1"/><v:tabList/>Identify Profiles and <tspan
								x="4.25" dy="1.2em" class="st10">Resources</tspan></text>				</g>
			</g>
		</a>
		<g id="shape242-156" v:mID="242" v:groupContext="shape" v:layerMember="1" transform="translate(1272.33,-379.134)">
			<title>Dynamic connector.242</title>
			<path d="M4.25 414.82 L52.43 414.82 L52.43 556.55 L16.46 556.55" class="st8"/>
		</g>
		<a xlink:href="/engage.html#step7" xlink:title="Map the dataset to the profile.">
			<g id="group243-161" transform="translate(1041.3,-201.969)" v:mID="243" v:groupContext="group" v:layerMember="0">
				<v:userDefs>
					<v:ud v:nameU="visVersion" v:prompt="" v:val="VT0(15):26"/>
					<v:ud v:nameU="ConnGap" v:prompt="" v:val="VT0(0.00012908222537757):24"/>
				</v:userDefs>
				<title>Transaction</title>
				<desc>Map Dataset</desc>
				<g id="shape244-162" v:mID="244" v:groupContext="shape" v:layerMember="0" transform="translate(0,-38.7549)">
					<title>Sheet.244</title>
					<ellipse cx="16.0556" cy="398.762" rx="16.0556" ry="16.0556" class="st1"/>
				</g>
				<g id="shape245-164" v:mID="245" v:groupContext="shape" v:layerMember="0" transform="translate(7.76324,0)">
					<title>Sheet.245</title>
					<path d="M63.1 382.49 L31.07 382.49 L31.07 414.82 L63.1 414.82 L63.1 382.49 ZM10.05 397.45 C10.01 397.45 9.97
								 397.4 9.97 397.36 L9.97 377.37 L16.67 384.13 L16.67 378.67 L8.34 370.25 L0 378.67 L0 384.14 L6.18
								 377.9 L6.18 397.36 C6.18 399.52 7.92 401.27 10.05 401.27 L29.31 401.27 L29.31 397.45 L10.05 397.45
								 L10.05 397.45 Z" class="st5"/>
				</g>
				<g id="shape246-166" v:mID="246" v:groupContext="shape" v:layerMember="0" transform="translate(34.1671,-25.6931)">
					<title>Sheet.246</title>
					<path d="M23.13 407.17 L23.13 387.71 C23.13 385.55 21.39 383.8 19.25 383.8 L0 383.8 L0 387.63 L19.25 387.63 C19.3
								 387.63 19.34 387.67 19.34 387.71 L19.34 407.7 L12.64 400.94 L12.64 406.4 L20.97 414.82 L29.31 406.4
								 L29.31 400.93 L23.13 407.17 Z" class="st1"/>
				</g>
				<g id="shape243-168" v:mID="243" v:groupContext="groupContent" v:layerMember="0">
					<v:textBlock v:margins="rect(4,4,4,4)" v:tabSpace="42.5197"/>
					<v:textRect cx="35.4331" cy="427.219" width="90.42" height="24.8035"/>
					<text x="-3.85" y="431.42" class="st7" v:langID="2057"><v:paragraph v:horizAlign="1"/><v:tabList/>Map Dataset</text>				</g>
			</g>
		</a>
		<a xlink:href="..\EngagementApproach.html#define-the-solution">
			<g id="shape247-170" v:mID="247" v:groupContext="shape" v:layerMember="1" transform="translate(1211.37,-230.315)">
				<title>Dynamic connector.247</title>
				<path d="M0 407.73 L-92.65 407.73" class="st8"/>
			</g>
		</a>
		<a xlink:href="/engage.html#step8" xlink:title="Get Profile to Dataset Mapping reviewed and approved by the client.">
			<g id="group248-175" transform="translate(871.22,-201.969)" v:mID="248" v:groupContext="group" v:layerMember="0">
				<v:userDefs>
					<v:ud v:nameU="visVersion" v:prompt="" v:val="VT0(15):26"/>
					<v:ud v:nameU="ConnGap" v:prompt="" v:val="VT0(0.00012908222537757):24"/>
				</v:userDefs>
				<title>Agreement</title>
				<desc>Obtain Approval</desc>
				<g id="shape249-176" v:mID="249" v:groupContext="shape" v:layerMember="0" transform="translate(0,-28.6299)">
					<title>Sheet.249</title>
					<path d="M45.13 403.22 L51.64 403.22 L52.6 409.49 L60.6 403.22 L62.89 403.22 C67.29 403.22 70.87 399.71 70.87
								 395.39 L70.87 380.42 C70.87 376.1 67.29 372.58 62.89 372.58 L33.3 372.58 A8.37736 8.23058 -180 0
								 0 25.67 377.91 L7.98 377.91 C3.58 377.91 0 381.43 0 385.75 L0 400.72 C0 405.04 3.58 408.56 7.98
								 408.56 L26.32 408.56 L27.28 414.82 L35.29 408.56 L37.57 408.56 C41.08 408.56 44.06 406.32 45.13
								 403.22 Z" class="st3"/>
				</g>
				<g id="shape250-179" v:mID="250" v:groupContext="shape" v:layerMember="0" transform="translate(25.3183,-40.2229)">
					<title>Sheet.250</title>
					<path d="M19.81 414.82 C20.08 414.03 20.23 413.19 20.23 412.31 L20.23 397.34 C20.23 393.02 16.65 389.5 12.25
								 389.5 L0.4 389.5 L0 391.36 L12.25 391.36 C14.93 391.36 17.21 393.07 18.02 395.44 L18.02 395.43 C18.23
								 396.03 18.34 396.67 18.34 397.34 L18.34 412.31 C18.34 413.2 18.14 414.05 17.78 414.82 L19.81 414.82
								 ZM0 392.57 L0 406.98 C0 411.3 3.58 414.82 7.98 414.82 L16.37 414.82 C16.72 414.26 16.96 413.64 17.05
								 412.96 L7.98 412.96 C4.62 412.96 1.89 410.28 1.89 406.98 L1.89 392.57 L0 392.57 Z" class="st11"/>
				</g>
				<g id="shape251-182" v:mID="251" v:groupContext="shape" v:layerMember="0" transform="translate(29.5545,-46.1239)">
					<title>Sheet.251</title>
					<path d="M23.76 399.23 L20.87 396.39 L8.94 408.12 L7.91 409.13 L6.88 408.12 L2.89 404.2 L0 407.04 L7.91 414.82
								 L23.76 399.23 Z" class="st1"/>
				</g>
				<g id="shape252-184" v:mID="252" v:groupContext="shape" v:layerMember="0"
						transform="translate(4.09409,6.04871E-08)">
					<title>Sheet.252</title>
					<path d="M34.84 414.82 L39.14 414.82 L39.14 408.56 L40.58 408.56 L40.58 414.82 L57.78 414.82 L57.78 408.56 L59.22
								 408.56 L59.22 414.82 L63.52 414.82 L63.52 406.56 C63.52 403.37 60.88 400.78 57.63 400.78 L40.75
								 400.78 C37.5 400.78 34.86 403.37 34.84 406.57 L34.84 414.82 ZM0 414.82 L4.3 414.82 L4.3 408.56 L5.74
								 408.56 L5.74 414.82 L22.94 414.82 L22.94 408.56 L24.38 408.56 L24.38 414.82 L28.68 414.82 L28.68
								 406.56 C28.68 403.37 26.03 400.78 22.79 400.78 L5.91 400.78 C2.66 400.78 0.02 403.37 0 406.57 L0
								 414.82 ZM41.03 391.65 A8.25121 8.10437 -180 1 1 57.53 391.65 A8.25121 8.10437 -180 1 1 41.03 391.65
								 ZM6.19 391.65 A8.25121 8.10437 -180 1 1 22.69 391.65 A8.25121 8.10437 -180 1 1 6.19 391.65 Z"
							class="st6"/>
				</g>
				<g id="shape248-187" v:mID="248" v:groupContext="groupContent" v:layerMember="0">
					<v:textBlock v:margins="rect(4,4,4,4)" v:tabSpace="42.5197"/>
					<v:textRect cx="35.4331" cy="427.219" width="113.43" height="24.8035"/>
					<text x="-15.36" y="431.42" class="st7" v:langID="2057"><v:paragraph v:horizAlign="1"/><v:tabList/>Obtain Approval</text>				</g>
			</g>
		</a>
		<a xlink:href="..\EngagementApproach.html#define-the-solution">
			<g id="shape253-189" v:mID="253" v:groupContext="shape" v:layerMember="1" transform="translate(1041.29,-230.315)">
				<title>Dynamic connector.253</title>
				<path d="M0 407.73 L-92.65 407.73" class="st8"/>
			</g>
		</a>
		<a xlink:href="/engage.html#step9" xlink:title="Define API Signatures and use of Search Parameters">
			<g id="group259-194" transform="translate(701.142,-201.969)" v:mID="259" v:groupContext="group" v:layerMember="0">
				<v:userDefs>
					<v:ud v:nameU="visVersion" v:prompt="" v:val="VT0(15):26"/>
					<v:ud v:nameU="ConnGap" v:prompt="" v:val="VT0(0.00012908222537757):24"/>
				</v:userDefs>
				<title>Brainstorm.259</title>
				<desc>Design API</desc>
				<g id="shape260-195" v:mID="260" v:groupContext="shape" v:layerMember="0">
					<title>Sheet.260</title>
					<path d="M63.49 364.93 C63.81 363.91 63.97 362.85 63.97 361.77 C63.97 355.69 58.92 350.73 52.72 350.71 C50.97
								 346.64 46.88 343.95 42.33 343.95 C39.83 343.95 37.41 344.77 35.43 346.27 C33.46 344.77 31.04 343.95
								 28.53 343.95 C23.99 343.95 19.9 346.64 18.14 350.71 C11.94 350.73 6.9 355.69 6.9 361.77 C6.9 362.84
								 7.06 363.9 7.38 364.93 C2.99 366.52 0 370.65 0 375.3 C0 381.4 5.06 386.36 11.28 386.36 C12.49 386.36
								 13.67 386.18 14.8 385.81 C16.17 388.23 18.77 389.74 21.63 389.74 C21.67 389.74 21.7 389.74 21.73
								 389.74 L19.72 396.88 L26.49 396.88 L25.37 403.61 L31.6 403.79 L30.02 414.82 L53.09 394.95 L45.17
								 394.95 L48.32 389.69 C48.62 389.73 48.93 389.74 49.23 389.74 C52.1 389.74 54.7 388.23 56.07 385.81
								 C57.2 386.18 58.38 386.36 59.58 386.36 C65.8 386.36 70.87 381.4 70.87 375.3 C70.87 370.65 67.88
								 366.52 63.49 364.93 Z" class="st1"/>
				</g>
				<g id="shape261-197" v:mID="261" v:groupContext="shape" v:layerMember="0" transform="translate(23.6515,-17.9131)">
					<title>Sheet.261</title>
					<v:userDefs>
						<v:ud v:nameU="SurroundingRegionColor" v:prompt="" v:val="VT0(1):26"/>
						<v:ud v:nameU="SurroundingRegionColor" v:prompt="" v:val="VT5(#005eb8)"/>
					</v:userDefs>
					<path d="M12.16 383.09 L12.02 383.09 C5.39 383.09 0 388.38 0 394.87 C0 398.57 1.8 402.09 4.82 404.31 C5.96 405.24
								 6.4 405.7 6.63 406.18 L6.79 406.51 C6.46 406.99 6.25 407.57 6.25 408.21 C6.25 409.73 7.39 410.96
								 8.8 411.03 L8.81 411.13 C8.83 412.06 8.87 413.35 9.67 413.96 C10.26 414.51 11.11 414.82 12.07 414.82
								 C13.37 414.82 14.46 414.27 14.99 413.36 L15.18 413.02 C15.18 413.02 15.36 411.26 15.37 411.18 L15.38
								 411.03 C16.79 410.95 17.91 409.72 17.91 408.21 C17.91 407.58 17.71 407 17.38 406.52 L17.54 406.18
								 C17.77 405.7 18.22 405.24 19.36 404.31 C22.38 402.1 24.18 398.57 24.18 394.88 C24.18 388.38 18.78
								 383.09 12.16 383.09 Z" class="st11"/>
					<path d="M6.79 406.52 L17.38 406.52" class="st4"/>
					<path d="M8.81 411.13 L15.37 411.13" class="st4"/>
				</g>
				<g id="shape262-201" v:mID="262" v:groupContext="shape" v:layerMember="0" transform="translate(7.24466,-36.8885)">
					<title>Sheet.262</title>
					<path d="M46 414.82 L57.7 414.82" class="st12"/>
					<path d="M49.94 396.91 L41.68 405.02" class="st12"/>
					<path d="M28.65 388.75 L28.65 400.22" class="st12"/>
					<path d="M7.76 396.34 L16.03 404.44" class="st12"/>
					<path d="M0 414.82 L11.7 414.82" class="st12"/>
				</g>
				<g id="shape259-208" v:mID="259" v:groupContext="groupContent" v:layerMember="0">
					<v:textBlock v:margins="rect(4,4,4,4)" v:tabSpace="42.5197"/>
					<v:textRect cx="35.4331" cy="427.219" width="78.91" height="24.8035"/>
					<text x="1.9" y="431.42" class="st7" v:langID="2057"><v:paragraph v:horizAlign="1"/><v:tabList/>Design API</text>				</g>
			</g>
		</a>
		<a xlink:href="..\EngagementApproach.html#define-the-solution">
			<g id="shape263-210" v:mID="263" v:groupContext="shape" v:layerMember="1" transform="translate(871.211,-230.315)">
				<title>Dynamic connector.263</title>
				<path d="M0 407.73 L-92.65 407.73" class="st8"/>
			</g>
		</a>
		<a xlink:href="/engage.html#step10"
				xlink:title="Define the sequence of interactions expected including the function, input parameters, output parameters etc.">
			<g id="group264-215" transform="translate(516.89,-201.969)" v:mID="264" v:groupContext="group" v:layerMember="0">
				<v:userDefs>
					<v:ud v:nameU="visVersion" v:prompt="" v:val="VT0(15):26"/>
					<v:ud v:nameU="ConnGap" v:prompt="" v:val="VT0(0.00012908222537757):24"/>
				</v:userDefs>
				<title>Author</title>
				<desc>Document Interaction Flow</desc>
				<g id="shape265-216" v:mID="265" v:groupContext="shape" v:layerMember="0"
						transform="translate(348.947,58.2775) rotate(45)">
					<title>Sheet.265</title>
					<rect x="0" y="413.406" width="10.7368" height="1.41164" class="st1"/>
				</g>
				<g id="shape266-218" v:mID="266" v:groupContext="shape" v:layerMember="0"
						transform="translate(-230.888,653.379) rotate(-135.008)">
					<title>Sheet.266</title>
					<rect x="0" y="413.408" width="10.7354" height="1.4088" class="st1"/>
				</g>
				<g id="shape267-220" v:mID="267" v:groupContext="shape" v:layerMember="0" transform="translate(7.20633,-7.20638)">
					<title>Sheet.267</title>
					<path d="M46.61 360.63 L0 407.24 L7.58 414.82 L54.18 368.21 L46.61 360.63 Z" class="st5"/>
				</g>
				<g id="shape268-222" v:mID="268" v:groupContext="shape" v:layerMember="0">
					<title>Sheet.268</title>
					<path d="M70.1 352.3 C71.12 351.29 71.12 349.64 70.1 348.62 L66.19 344.71 C65.18 343.7 63.53 343.7 62.51 344.71
								 L58.65 348.57 L66.25 356.16 L70.1 352.3 ZM56.62 350.6 L64.22 358.19 L65.02 357.39 L57.42 349.8 L56.62
								 350.6 ZM62.39 360.02 L63.22 359.19 L55.63 351.6 L54.8 352.42 L62.39 360.02 ZM0 413.03 L1.79 414.82
								 C6.96 411.28 10.97 409.29 13.08 408.36 L6.45 401.74 C5.52 403.84 3.54 407.86 0 413.03 Z"
							class="st1"/>
				</g>
				<g id="shape264-224" v:mID="264" v:groupContext="groupContent" v:layerMember="0">
					<v:textBlock v:margins="rect(4,4,4,4)" v:tabSpace="42.5197"/>
					<v:textRect cx="35.4331" cy="427.219" width="177.17" height="24.8035"/>
					<text x="-48.12" y="431.42" class="st7" v:langID="2057"><v:paragraph v:horizAlign="1"/><v:tabList/>Document Interaction Flow</text>				</g>
			</g>
		</a>
		<a xlink:href="..\EngagementApproach.html#define-the-solution">
			<g id="shape269-226" v:mID="269" v:groupContext="shape" v:layerMember="1" transform="translate(701.132,-230.315)">
				<title>Dynamic connector.269</title>
				<path d="M0 407.73 L-106.83 407.73" class="st8"/>
			</g>
		</a>
		<a xlink:href="/engage.html#step11" xlink:title="Identify any further techincal considerations to aid understanding.">
			<g id="group270-231" transform="translate(318.465,-201.969)" v:mID="270" v:groupContext="group" v:layerMember="0">
				<v:userDefs>
					<v:ud v:nameU="visVersion" v:prompt="" v:val="VT0(15):26"/>
					<v:ud v:nameU="ConnGap" v:prompt="" v:val="VT0(0.00012908222537757):24"/>
				</v:userDefs>
				<title>Author.270</title>
				<desc>Document Additional Technical Context</desc>
				<g id="shape271-232" v:mID="271" v:groupContext="shape" v:layerMember="0"
						transform="translate(348.947,58.2775) rotate(45)">
					<title>Sheet.271</title>
					<rect x="0" y="413.406" width="10.7368" height="1.41164" class="st1"/>
				</g>
				<g id="shape272-234" v:mID="272" v:groupContext="shape" v:layerMember="0"
						transform="translate(-230.888,653.379) rotate(-135.008)">
					<title>Sheet.272</title>
					<rect x="0" y="413.408" width="10.7354" height="1.4088" class="st1"/>
				</g>
				<g id="shape273-236" v:mID="273" v:groupContext="shape" v:layerMember="0" transform="translate(7.20633,-7.20638)">
					<title>Sheet.273</title>
					<path d="M46.61 360.63 L0 407.24 L7.58 414.82 L54.18 368.21 L46.61 360.63 Z" class="st5"/>
				</g>
				<g id="shape274-238" v:mID="274" v:groupContext="shape" v:layerMember="0">
					<title>Sheet.274</title>
					<path d="M70.1 352.3 C71.12 351.29 71.12 349.64 70.1 348.62 L66.19 344.71 C65.18 343.7 63.53 343.7 62.51 344.71
								 L58.65 348.57 L66.25 356.16 L70.1 352.3 ZM56.62 350.6 L64.22 358.19 L65.02 357.39 L57.42 349.8 L56.62
								 350.6 ZM62.39 360.02 L63.22 359.19 L55.63 351.6 L54.8 352.42 L62.39 360.02 ZM0 413.03 L1.79 414.82
								 C6.96 411.28 10.97 409.29 13.08 408.36 L6.45 401.74 C5.52 403.84 3.54 407.86 0 413.03 Z"
							class="st1"/>
				</g>
				<g id="shape270-240" v:mID="270" v:groupContext="groupContent" v:layerMember="0">
					<v:textBlock v:margins="rect(4,4,4,4)" v:tabSpace="42.5197"/>
					<v:textRect cx="35.4331" cy="435.619" width="177.17" height="41.6033"/>
					<text x="-30.55" y="431.42" class="st7" v:langID="2057"><v:paragraph v:horizAlign="1"/><v:tabList/>Document Additional <tspan
								x="-19.17" dy="1.2em" class="st10">Technical Context</tspan></text>				</g>
			</g>
		</a>
		<a xlink:href="..\EngagementApproach.html#define-the-solution">
			<g id="shape275-243" v:mID="275" v:groupContext="shape" v:layerMember="1" transform="translate(516.88,-230.315)">
				<title>Dynamic connector.275</title>
				<path d="M0 407.73 L-121 407.73" class="st8"/>
			</g>
		</a>
		<a xlink:href="/engage.html#step12" xlink:title="Feedback to INTEROpen any necessary changes to Profile definitions.">
			<g id="group276-248" transform="translate(120.039,-201.969)" v:mID="276" v:groupContext="group" v:layerMember="0">
				<v:userDefs>
					<v:ud v:nameU="visVersion" v:prompt="" v:val="VT0(15):26"/>
					<v:ud v:nameU="ConnGap" v:prompt="" v:val="VT0(0.00012908222537757):24"/>
				</v:userDefs>
				<title>Agreement.276</title>
				<desc>Resolve Curation Requirements</desc>
				<g id="shape277-249" v:mID="277" v:groupContext="shape" v:layerMember="0" transform="translate(0,-28.6299)">
					<title>Sheet.277</title>
					<path d="M45.13 403.22 L51.64 403.22 L52.6 409.49 L60.6 403.22 L62.89 403.22 C67.29 403.22 70.87 399.71 70.87
								 395.39 L70.87 380.42 C70.87 376.1 67.29 372.58 62.89 372.58 L33.3 372.58 A8.37736 8.23058 -180 0
								 0 25.67 377.91 L7.98 377.91 C3.58 377.91 0 381.43 0 385.75 L0 400.72 C0 405.04 3.58 408.56 7.98
								 408.56 L26.32 408.56 L27.28 414.82 L35.29 408.56 L37.57 408.56 C41.08 408.56 44.06 406.32 45.13
								 403.22 Z" class="st3"/>
				</g>
				<g id="shape278-252" v:mID="278" v:groupContext="shape" v:layerMember="0" transform="translate(25.3183,-40.2229)">
					<title>Sheet.278</title>
					<path d="M19.81 414.82 C20.08 414.03 20.23 413.19 20.23 412.31 L20.23 397.34 C20.23 393.02 16.65 389.5 12.25
								 389.5 L0.4 389.5 L0 391.36 L12.25 391.36 C14.93 391.36 17.21 393.07 18.02 395.44 L18.02 395.43 C18.23
								 396.03 18.34 396.67 18.34 397.34 L18.34 412.31 C18.34 413.2 18.14 414.05 17.78 414.82 L19.81 414.82
								 ZM0 392.57 L0 406.98 C0 411.3 3.58 414.82 7.98 414.82 L16.37 414.82 C16.72 414.26 16.96 413.64 17.05
								 412.96 L7.98 412.96 C4.62 412.96 1.89 410.28 1.89 406.98 L1.89 392.57 L0 392.57 Z" class="st11"/>
				</g>
				<g id="shape279-255" v:mID="279" v:groupContext="shape" v:layerMember="0" transform="translate(29.5545,-46.1239)">
					<title>Sheet.279</title>
					<path d="M23.76 399.23 L20.87 396.39 L8.94 408.12 L7.91 409.13 L6.88 408.12 L2.89 404.2 L0 407.04 L7.91 414.82
								 L23.76 399.23 Z" class="st1"/>
				</g>
				<g id="shape280-257" v:mID="280" v:groupContext="shape" v:layerMember="0"
						transform="translate(4.09409,6.04871E-08)">
					<title>Sheet.280</title>
					<path d="M34.84 414.82 L39.14 414.82 L39.14 408.56 L40.58 408.56 L40.58 414.82 L57.78 414.82 L57.78 408.56 L59.22
								 408.56 L59.22 414.82 L63.52 414.82 L63.52 406.56 C63.52 403.37 60.88 400.78 57.63 400.78 L40.75
								 400.78 C37.5 400.78 34.86 403.37 34.84 406.57 L34.84 414.82 ZM0 414.82 L4.3 414.82 L4.3 408.56 L5.74
								 408.56 L5.74 414.82 L22.94 414.82 L22.94 408.56 L24.38 408.56 L24.38 414.82 L28.68 414.82 L28.68
								 406.56 C28.68 403.37 26.03 400.78 22.79 400.78 L5.91 400.78 C2.66 400.78 0.02 403.37 0 406.57 L0
								 414.82 ZM41.03 391.65 A8.25121 8.10437 -180 1 1 57.53 391.65 A8.25121 8.10437 -180 1 1 41.03 391.65
								 ZM6.19 391.65 A8.25121 8.10437 -180 1 1 22.69 391.65 A8.25121 8.10437 -180 1 1 6.19 391.65 Z"
							class="st6"/>
				</g>
				<g id="shape276-260" v:mID="276" v:groupContext="groupContent" v:layerMember="0">
					<v:textBlock v:margins="rect(4,4,4,4)" v:tabSpace="42.5197"/>
					<v:textRect cx="35.4331" cy="435.619" width="177.17" height="41.6033"/>
					<text x="-16.53" y="431.42" class="st7" v:langID="2057"><v:paragraph v:horizAlign="1"/><v:tabList/>Resolve Curation <tspan
								x="-7.28" dy="1.2em" class="st10">Requirements</tspan></text>				</g>
			</g>
		</a>
		<g id="shape281-263" v:mID="281" v:groupContext="shape" v:layerMember="1" transform="translate(112.943,-237.402)">
			<title>Dynamic connector.281</title>
			<path d="M7.09 414.82 L-77.94 414.82 L-77.94 591.98 L0.55 591.98" class="st8"/>
		</g>
		<a xlink:href="/engage.html#step13"
				xlink:title="Present final case study to stakeholders and include it into the implementation guide.">
			<g id="group282-268" transform="translate(120.039,-24.8035)" v:mID="282" v:groupContext="group" v:layerMember="0">
				<v:userDefs>
					<v:ud v:nameU="visVersion" v:prompt="" v:val="VT0(15):26"/>
					<v:ud v:nameU="ConnGap" v:prompt="" v:val="VT0(0.00012908222537757):24"/>
				</v:userDefs>
				<title>Present</title>
				<desc>Present Case Study</desc>
				<g id="shape283-269" v:mID="283" v:groupContext="shape" v:layerMember="0" transform="translate(0,-35.083)">
					<title>Sheet.283</title>
					<rect x="0" y="379.034" width="70.8661" height="35.7831" class="st5"/>
				</g>
				<g id="shape284-271" v:mID="284" v:groupContext="shape" v:layerMember="0" transform="translate(44.7739,-31.315)">
					<title>Sheet.284</title>
					<path d="M18.46 389.89 C18.46 389.89 2.47 389.88 0 389.88 L0 394.33 L0 394.33 L6 394.33 C7.55 394.33 8.19 395
								 8.21 396.15 L8.23 414.82 L12.95 414.82 L12.95 407.54 C12.95 407.28 13.16 407.08 13.41 407.08 C13.66
								 407.08 13.87 407.28 13.87 407.54 L13.87 414.82 L18.33 414.82 L18.33 398.53 L19.24 398.53 L19.24
								 405.66 L21.98 405.66 L21.98 393.4 C21.98 391.46 20.4 389.89 18.46 389.89 ZM8.39 384.41 A5.02191
								 5.02077 -180 1 1 18.43 384.41 A5.02191 5.02077 -180 1 1 8.39 384.41 Z" class="st1"/>
				</g>
				<g id="shape285-273" v:mID="285" v:groupContext="shape" v:layerMember="0" transform="translate(1.06654,0)">
					<title>Sheet.285</title>
					<path d="M64.64 399.44 L52.3 399.44 C49.9 399.44 47.96 401.38 47.96 403.77 L47.96 414.82 L51.34 414.82 L51.34
								 408.66 L52.47 408.66 L52.47 414.82 L64.92 414.82 L64.92 408.66 L66.05 408.66 L66.05 414.82 L68.98
								 414.82 L68.98 403.77 C68.98 401.38 67.03 399.44 64.64 399.44 ZM40.66 399.44 L28.32 399.44 C25.92
								 399.44 23.98 401.38 23.98 403.77 L23.98 414.82 L27.36 414.82 L27.36 408.66 L28.49 408.66 L28.49
								 414.82 L40.94 414.82 L40.94 408.66 L42.07 408.66 L42.07 414.82 L45 414.82 L45 403.77 C45 401.38
								 43.05 399.44 40.66 399.44 ZM16.68 399.44 L4.34 399.44 C1.94 399.44 0 401.38 0 403.77 L0 414.82 L3.38
								 414.82 L3.38 408.66 L4.51 408.66 L4.51 414.82 L16.96 414.82 L16.96 408.66 L18.09 408.66 L18.09 414.82
								 L21.02 414.82 L21.02 403.77 C21.02 401.38 19.07 399.44 16.68 399.44 ZM52.33 392.67 A6.20118 6.19654
								 -180 1 1 64.74 392.67 A6.20118 6.19654 -180 1 1 52.33 392.67 ZM28.36 392.67 A6.19428 6.19654 -180
								 1 1 40.75 392.67 A6.19428 6.19654 -180 1 1 28.36 392.67 ZM4.38 392.67 A6.19428 6.19654 -180 1 1
								 16.77 392.67 A6.19428 6.19654 -180 1 1 4.38 392.67 Z" class="st6"/>
				</g>
				<g id="shape282-276" v:mID="282" v:groupContext="groupContent" v:layerMember="0">
					<v:textBlock v:margins="rect(4,4,4,4)" v:tabSpace="42.5197"/>
					<v:textRect cx="35.4331" cy="427.219" width="129.65" height="24.8035"/>
					<text x="-23.47" y="431.42" class="st7" v:langID="2057"><v:paragraph v:horizAlign="1"/><v:tabList/>Present Case Study</text>				</g>
			</g>
		</a>
		<a xlink:href="..\EngagementApproach.html#define-the-solution">
			<g id="shape290-278" v:mID="290" v:groupContext="shape" v:layerMember="1" transform="translate(318.455,-230.315)">
				<title>Dynamic connector.290</title>
				<path d="M0 407.73 L-121 407.73" class="st8"/>
			</g>
		</a>
		<a xlink:href="/engage.html#step14" xlink:title="Client implements solution, tests and provides feedback.">
			<g id="group295-283" transform="translate(318.465,-24.8035)" v:mID="295" v:groupContext="group" v:layerMember="0">
				<v:userDefs>
					<v:ud v:nameU="visVersion" v:prompt="" v:val="VT0(15):26"/>
					<v:ud v:nameU="ConnGap" v:prompt="" v:val="VT0(0.00012908222537757):24"/>
				</v:userDefs>
				<title>Transaction.295</title>
				<desc>Implement Solution</desc>
				<g id="shape296-284" v:mID="296" v:groupContext="shape" v:layerMember="0" transform="translate(0,-38.7549)">
					<title>Sheet.296</title>
					<ellipse cx="16.0556" cy="398.762" rx="16.0556" ry="16.0556" class="st1"/>
				</g>
				<g id="shape297-286" v:mID="297" v:groupContext="shape" v:layerMember="0" transform="translate(7.76324,0)">
					<title>Sheet.297</title>
					<path d="M63.1 382.49 L31.07 382.49 L31.07 414.82 L63.1 414.82 L63.1 382.49 ZM10.05 397.45 C10.01 397.45 9.97
								 397.4 9.97 397.36 L9.97 377.37 L16.67 384.13 L16.67 378.67 L8.34 370.25 L0 378.67 L0 384.14 L6.18
								 377.9 L6.18 397.36 C6.18 399.52 7.92 401.27 10.05 401.27 L29.31 401.27 L29.31 397.45 L10.05 397.45
								 L10.05 397.45 Z" class="st5"/>
				</g>
				<g id="shape298-288" v:mID="298" v:groupContext="shape" v:layerMember="0" transform="translate(34.1671,-25.6931)">
					<title>Sheet.298</title>
					<path d="M23.13 407.17 L23.13 387.71 C23.13 385.55 21.39 383.8 19.25 383.8 L0 383.8 L0 387.63 L19.25 387.63 C19.3
								 387.63 19.34 387.67 19.34 387.71 L19.34 407.7 L12.64 400.94 L12.64 406.4 L20.97 414.82 L29.31 406.4
								 L29.31 400.93 L23.13 407.17 Z" class="st1"/>
				</g>
				<g id="shape295-290" v:mID="295" v:groupContext="groupContent" v:layerMember="0">
					<v:textBlock v:margins="rect(4,4,4,4)" v:tabSpace="42.5197"/>
					<v:textRect cx="35.4331" cy="427.219" width="133.67" height="24.8035"/>
					<text x="-25.48" y="431.42" class="st7" v:langID="2057"><v:paragraph v:horizAlign="1"/><v:tabList/>Implement Solution</text>				</g>
			</g>
		</a>
		<a xlink:href="..\EngagementApproach.html#deliver-the-solution">
			<g id="shape299-292" v:mID="299" v:groupContext="shape" v:layerMember="1" transform="translate(190.915,-53.1499)">
				<title>Dynamic connector.299</title>
				<path d="M0 407.73 L121 407.73" class="st8"/>
			</g>
		</a>
		<a xlink:href="/engage.html#step15" xlink:title="Identify failures and successes of the project.">
			<g id="group300-297" transform="translate(516.89,-24.8035)" v:mID="300" v:groupContext="group" v:layerMember="0">
				<v:userDefs>
					<v:ud v:nameU="visVersion" v:prompt="" v:val="VT0(15):26"/>
					<v:ud v:nameU="ConnGap" v:prompt="" v:val="VT0(0.00012908222537757):24"/>
				</v:userDefs>
				<title>Review</title>
				<desc>Lessons Learnt</desc>
				<g id="shape301-298" v:mID="301" v:groupContext="shape" v:layerMember="0" transform="translate(28.7894,0)">
					<title>Sheet.301</title>
					<path d="M42.08 369.4 L31.62 358.71 L0 358.71 L0 414.82 L42.08 414.82 L42.08 369.4 Z" class="st1"/>
				</g>
				<g id="shape302-300" v:mID="302" v:groupContext="shape" v:layerMember="0" transform="translate(36.4596,-11.2862)">
					<title>Sheet.302</title>
					<v:userDefs>
						<v:ud v:nameU="SurroundingRegionColor" v:prompt="" v:val="VT5(1)"/>
						<v:ud v:nameU="SurroundingRegionColor" v:prompt="" v:val="VT5(#005eb8)"/>
					</v:userDefs>
					<path d="M15.78 414.82 L26.52 414.82 L26.52 413.39 L15.78 413.39 L15.78 414.82 ZM0 408.13 L26.52 408.13 L26.52
								 406.71 L0 406.71 L0 408.13 ZM0 401.45 L26.52 401.45 L26.52 400.02 L0 400.02 L0 401.45 ZM0 394.77
								 L26.52 394.77 L26.52 393.34 L0 393.34 L0 394.77 ZM0 388.08 L10.74 388.08 L10.74 386.66 L0 386.66
								 L0 388.08 ZM0 381.4 L10.74 381.4 L10.74 379.97 L0 379.97 L0 381.4 ZM23.64 370.38 L23.64 380.72 L33.77
								 380.72 L23.64 370.38 Z" class="st11"/>
				</g>
				<g id="shape303-303" v:mID="303" v:groupContext="shape" v:layerMember="0" transform="translate(0,-38.8578)">
					<title>Sheet.303</title>
					<path d="M42.3 399.49 L36.92 387.91 C35.63 384.72 33.27 382.81 30.63 382.81 L30.5 382.81 C26.37 382.9 22.98 385.87
								 22.44 389.85 L22.25 391.18 L25.82 391.18 L25.98 390.2 C26.35 387.97 28.26 386.35 30.53 386.35 C31.21
								 386.35 32.61 387.22 33.43 388.83 L33.6 389.19 C33.78 389.61 34.21 390.5 34.21 390.5 L35.99 394.33
								 C35.04 394.05 34.04 393.91 33.03 393.91 C28.07 393.91 23.79 397.46 22.77 402.19 C22.1 402.13 21.42
								 402.13 20.75 402.2 C19.74 397.46 15.45 393.91 10.49 393.91 C9.5 393.91 8.52 394.05 7.58 394.32 L9.34
								 390.52 C9.34 390.52 9.78 389.61 9.94 389.23 L10.11 388.87 C10.95 387.23 12.24 386.35 13.04 386.35
								 C15.3 386.35 17.22 387.97 17.58 390.2 L17.75 391.18 L21.31 391.18 L21.13 389.85 C20.58 385.84 17.1
								 382.81 13.04 382.81 C10.61 382.81 7.8 385.05 6.67 387.86 L1.5 398.98 C0.52 400.6 0 402.46 0 404.36
								 C0 410.13 4.71 414.82 10.49 414.82 C15.8 414.82 20.2 410.9 20.89 405.75 C21.46 405.67 22.05 405.66
								 22.62 405.73 C23.29 410.9 27.69 414.82 33.02 414.82 C38.81 414.82 43.51 410.13 43.51 404.36 C43.51
								 402.65 43.08 400.94 42.3 399.49 Z" class="st3"/>
				</g>
				<g id="shape304-306" v:mID="304" v:groupContext="shape" v:layerMember="0" transform="translate(3.55143,-42.3973)">
					<title>Sheet.304</title>
					<v:userDefs>
						<v:ud v:nameU="SurroundingRegionColor" v:prompt="" v:val="VT5(0)"/>
						<v:ud v:nameU="SurroundingRegionColor" v:prompt="" v:val="VT5(#000bae)"/>
					</v:userDefs>
					<path d="M29.47 414.82 C33.3 414.82 36.41 411.72 36.41 407.9 C36.41 407.05 36.26 406.21 35.95 405.42 L35.53 404.54
								 C34.35 402.38 32.01 400.99 29.47 400.99 C25.65 400.99 22.53 404.09 22.53 407.9 C22.53 411.72 25.65
								 414.82 29.47 414.82 ZM6.94 414.82 C10.76 414.82 13.88 411.72 13.88 407.9 C13.88 404.09 10.76 400.99
								 6.94 400.99 C4.54 400.99 2.35 402.2 1.07 404.23 L0.54 405.22 C0.18 406.07 0 406.97 0 407.9 C0 411.72
								 3.11 414.82 6.94 414.82 Z" class="st13"/>
				</g>
				<g id="shape300-309" v:mID="300" v:groupContext="groupContent" v:layerMember="0">
					<v:textBlock v:margins="rect(4,4,4,4)" v:tabSpace="42.5197"/>
					<v:textRect cx="35.4331" cy="427.219" width="102.1" height="24.8035"/>
					<text x="-9.7" y="431.42" class="st7" v:langID="2057"><v:paragraph v:horizAlign="1"/><v:tabList/>Lessons Learnt</text>				</g>
			</g>
		</a>
		<a xlink:href="..\EngagementApproach.html#deliver-the-solution">
			<g id="shape305-311" v:mID="305" v:groupContext="shape" v:layerMember="1" transform="translate(389.34,-53.1499)">
				<title>Dynamic connector.305</title>
				<path d="M0 407.73 L121 407.73" class="st8"/>
			</g>
		</a>
		<g id="group306-316" transform="translate(701.142,-24.8035)" v:mID="306" v:groupContext="group" v:layerMember="0">
			<v:userDefs>
				<v:ud v:nameU="visVersion" v:prompt="" v:val="VT0(15):26"/>
				<v:ud v:nameU="ConnGap" v:prompt="" v:val="VT0(0.00012908222537757):24"/>
			</v:userDefs>
			<title>End.43</title>
			<g id="shape307-317" v:mID="307" v:groupContext="shape" v:layerMember="0">
				<title>Sheet.307</title>
				<path d="M35.43 414.82 C15.9 414.82 0 398.92 0 379.38 C0 359.85 15.9 343.95 35.43 343.95 C54.97 343.95 70.87 359.85
							 70.87 379.38 C70.87 398.92 54.97 414.82 35.43 414.82 Z" class="st1"/>
			</g>
			<g id="shape308-319" v:mID="308" v:groupContext="shape" v:layerMember="0" transform="translate(19.8425,-19.8425)">
				<title>Sheet.308</title>
				<v:userDefs>
					<v:ud v:nameU="SurroundingRegionColor" v:prompt="" v:val="VT0(1):26"/>
					<v:ud v:nameU="SurroundingRegionColor" v:prompt="" v:val="VT5(#005eb8)"/>
				</v:userDefs>
				<path d="M0 414.82 L31.18 414.82 L31.18 383.64 L0 383.64 L0 414.82 Z" class="st2"/>
			</g>
		</g>
		<g id="shape309-322" v:mID="309" v:groupContext="shape" v:layerMember="1" transform="translate(587.765,-67.3231)">
			<title>Dynamic connector.309</title>
			<path d="M0 421.9 L106.83 421.9" class="st8"/>
		</g>
	</g>
</svg>
