<?xml version="1.0" encoding="UTF-8"?>
<svg width="70%"  viewBox="0 0 293 330" version="1.1" xmlns="http://www.w3.org/2000/svg" xmlns:xlink="http://www.w3.org/1999/xlink">
    <title>provide_api</title>
    <defs></defs>
    <g id="Page-1" stroke="none" stroke-width="1" fill="none" fill-rule="evenodd">
        <g id="Provide" transform="translate(-780.000000, -467.000000)">
            <g id="provide_api" transform="translate(780.000000, 467.000000)">
                <rect id="Rectangle-8" stroke="#9BA9C2" fill="#B2C1DB" x="0" y="301.027696" width="293" height="28.0183"></rect>
                <path d="M217,323 L283,323 L283,308 L217,308 L217,323 Z" id="Fill-7" fill="#c3c6ca"></path>
                <text id="Local-decision" font-family="HelveticaNeue, Helvetica Neue" font-size="8" font-weight="normal" letter-spacing="0.351999998" fill="#000000">
                    <tspan x="221" y="318">Local decision</tspan>
                </text>
                <path d="M127,323 L183,323 L183,308 L127,308 L127,323 Z" id="Fill-11" fill="#FFFFFF"></path>
                <text id="Referenced" font-family="HelveticaNeue, Helvetica Neue" font-size="8" font-weight="normal" letter-spacing="0.0120000001" fill="#000000">
                    <tspan x="131" y="318">Explained</tspan>
                </text>
                <path d="M51,323 L98.0734,323 L98.0734,308 L51,308 L51,323 Z" id="Fill-13" stroke="#9B9B9B" stroke-width="0.5" fill="#DFF0D8"></path>
                <text id="Explained" font-family="HelveticaNeue, Helvetica Neue" font-size="8" font-weight="normal" letter-spacing="-0.00879999995" fill="#000000">
                    <tspan x="55" y="318">Provided</tspan>
                </text>
                <text id="Key:" font-family="HelveticaNeue-Bold, Helvetica Neue" font-size="11" font-weight="bold" letter-spacing="-0.0306000002" fill="#000000">
                    <tspan x="4" y="319">Key:</tspan>
                </text>
                <path d="M77.0537,46.7269 C97.3845,31.9556 121.8698,23.9999 147.0001,23.9999 L147,30.5403 C123.2509,30.5403 100.1113,38.0588 80.8979,52.0182 L77.0537,46.7269 Z" id="Fill-15" fill="#B2C1DB"></path>
                <path d="M33.8243,106.2269 C41.59,82.3265 56.7227,61.4981 77.0536,46.7269 L80.8977,52.0181 C61.6843,65.9775 47.3833,85.6611 40.0444,108.2479 L33.8243,106.2269 Z" id="Fill-16" fill="#B2C1DB"></path>
                <path d="M33.8243,179.7731 C26.0586,155.8728 26.0586,130.1275 33.8243,106.2271 L40.0444,108.2479 C32.7056,130.8347 32.7056,155.1651 40.0444,177.7519 L33.8243,179.7731 Z" id="Fill-17" fill="#B2C1DB"></path>
                <path d="M77.0537,239.27313 C56.7228,224.50189 41.5901,203.67351 33.8244,179.7731 L40.0444,177.7521 C47.3833,200.33884 61.6844,220.0225 80.8978,233.98191 L77.0537,239.27313 Z" id="Fill-18" fill="#B2C1DB"></path>
                <path d="M147,262 C121.8697,262 97.3844,254.04427 77.0536,239.27303 L80.8977,233.98191 C100.1112,247.9413 123.2507,255.45981 146.9999,255.45981 L147,262 Z" id="Fill-19" fill="#B2C1DB"></path>
                <path d="M216.9464,239.27313 C196.6155,254.04439 172.1302,262.00012 146.9999,262.00012 L147,255.45969 C170.7491,255.45969 193.8887,247.9412 213.1021,233.9818 L216.9464,239.27313 Z" id="Fill-20" fill="#B2C1DB"></path>
                <path d="M260.1757,179.7731 C252.41,203.67351 237.2773,224.50189 216.9464,239.27313 L213.1023,233.98191 C232.3157,220.0225 246.6167,200.33884 253.9556,177.7521 L260.1757,179.7731 Z" id="Fill-21" fill="#B2C1DB"></path>
                <path d="M260.1757,106.2269 C267.9414,130.1272 267.9414,155.8726 260.1757,179.7729 L253.9556,177.7521 C261.2944,155.1653 261.2944,130.8349 253.9556,108.2482 L260.1757,106.2269 Z" id="Fill-22" fill="#B2C1DB"></path>
                <path d="M216.9464,46.7269 C237.2772,61.4981 252.4099,82.3265 260.1756,106.2269 L253.9556,108.2479 C246.6167,85.6611 232.3156,65.9775 213.1022,52.0181 L216.9464,46.7269 Z" id="Fill-23" fill="#B2C1DB"></path>
                <path d="M147,24 C172.1303,24 196.6156,31.9557 216.9465,46.727 L213.1023,52.0181 C193.8888,38.0587 170.7493,30.5402 147.0001,30.5402 L147,24 Z" id="Fill-24" fill="#B2C1DB"></path>
                <path d="M97,143 C97,115.3858 119.3858,93 147,93 C174.6142,93 197,115.3858 197,143 C197,170.6142 174.6142,193 147,193 C119.3858,193 97,170.6142 97,143 L97,143 Z" id="Fill-25" stroke="#9B9B9B" fill="#FFFFFF"></path>
                <path d="M97,143.000002 C97,115.385757 119.385757,93 147.000002,93 C174.614231,93 197.000003,115.385757 197.000003,143.000002 C197.000003,170.614239 174.614231,193.000003 147.000002,193.000003 C119.385757,193.000003 97,170.614239 97,143.000002 L97,143.000002 Z" id="Stroke-26" stroke="#4774AB" stroke-width="25400" stroke-linejoin="round"></path>
                <text id="API" font-family="HelveticaNeue, Helvetica Neue" font-size="36" font-weight="normal" letter-spacing="-0.0091" fill="#000000">
                    <tspan x="117" y="156">API</tspan>
                </text>
                <a xlink:href="../CareConnectAPI/design_security.html" target="_top">
                    <path d="M122,26 C122,11.6406 133.4167,0 147.5,0 C161.5833,0 173,11.6406 173,26 C173,40.3594 161.5833,52 147.5,52 C133.4167,52 122,40.3594 122,26 L122,26 Z" id="Fill-27" stroke="#9B9B9B" fill="#FFFFFF" class="s_link"></path>
                    <path d="M122,26.0000008 C122,11.6405909 133.416733,0 147.500001,0 C161.583253,0 173.000002,11.6405909 173.000002,26.0000008 C173.000002,40.3594029 161.583253,52.0000017 147.500001,52.0000017 C133.416733,52.0000017 122,40.3594029 122,26.0000008 L122,26.0000008 Z" id="Stroke-28" stroke="#4774AB" stroke-width="25400" stroke-linejoin="round"></path>
                    <text id="Security" font-family="HelveticaNeue, Helvetica Neue" font-size="8" font-weight="normal" letter-spacing="-0.023" fill="#000000">
                        <tspan x="132.8285" y="27.3128537">Security</tspan>
                    </text>
                </a>
                <path d="M190,48.5 C190,34.4167 201.6406,23 216,23 C230.3594,23 242,34.4167 242,48.5 C242,62.5833 230.3594,74 216,74 C201.6406,74 190,62.5833 190,48.5 L190,48.5 Z" id="Fill-29" stroke="#9B9B9B" fill="#c3c6ca"></path>
                <path d="M190,48.5000008 C190,34.4167326 201.640591,23 216.000001,23 C230.359403,23 242.000002,34.4167326 242.000002,48.5000008 C242.000002,62.5832532 230.359403,74.0000016 216.000001,74.0000016 C201.640591,74.0000016 190,62.5832532 190,48.5000008 L190,48.5000008 Z" id="Stroke-30" stroke="#4774AB" stroke-width="25400" stroke-linejoin="round"></path>
                <text id="Transform" font-family="HelveticaNeue, Helvetica Neue" font-size="8" font-weight="normal" letter-spacing="-0.0026" fill="#000000">
                    <tspan x="197.5392" y="49.374047">Transform</tspan>
                </text>
                <path d="M233,106.5 C233,92.4167 244.4167,81 258.5,81 C272.5833,81 284,92.4167 284,106.5 C284,120.5833 272.5833,132 258.5,132 C244.4167,132 233,120.5833 233,106.5 L233,106.5 Z" id="Fill-31" stroke="#9B9B9B" fill="#c3c6ca"></path>
                <path d="M233,106.500001 C233,92.4167326 244.416748,81 258.500001,81 C272.583253,81 284.000002,92.4167326 284.000002,106.500001 C284.000002,120.583253 272.583253,132.000002 258.500001,132.000002 C244.416748,132.000002 233,120.583253 233,106.500001 L233,106.500001 Z" id="Stroke-32" stroke="#4774AB" stroke-width="25400" stroke-linejoin="round"></path>
                <text id="Traffic-" font-family="HelveticaNeue, Helvetica Neue" font-size="8" font-weight="normal" letter-spacing="0.051" fill="#000000">
                    <tspan x="247.1707" y="103.912754">Traffic</tspan>
                </text>
                <text id="Manage" font-family="HelveticaNeue, Helvetica Neue" font-size="8" font-weight="normal" letter-spacing="0.004" fill="#000000">
                    <tspan x="235.1707" y="111.912754">Management</tspan>
                </text>
                <a xlink:href="../CareConnectAPI/explore_cc_versioning.html" target="_top">
                    <path d="M233,179.5 C233,165.4167 244.4167,154 258.5,154 C272.5833,154 284,165.4167 284,179.5 C284,193.58326 272.5833,205 258.5,205 C244.4167,205 233,193.58326 233,179.5 L233,179.5 Z" id="Fill-33" stroke="#9B9B9B" fill="#DFF0D8 " class="s_link"></path>
                    <path d="M233,179.500001 C233,165.416741 244.416748,154 258.500001,154 C272.583253,154 284.000002,165.416741 284.000002,179.500001 C284.000002,193.583261 272.583253,205.000002 258.500001,205.000002 C244.416748,205.000002 233,193.583261 233,179.500001 L233,179.500001 Z" id="Stroke-34" stroke="#4774AB" stroke-width="25400" stroke-linejoin="round"></path>
                    <text id="Version" font-family="HelveticaNeue, Helvetica Neue" font-size="8" font-weight="normal" letter-spacing="0.112" fill="#000000">
                        <tspan x="240.1707" y="182.267254">Versioning</tspan>
                    </text>
                </a>
                <a xlink:href="../CareConnectAPI/engage.html" target="_top">
                    <path d="M190,237.5 C190,223.41674 201.6406,212 216,212 C230.3594,212 242,223.41674 242,237.5 C242,251.58326 230.3594,263 216,263 C201.6406,263 190,251.58326 190,237.5 L190,237.5 Z" id="Fill-35" stroke="#9B9B9B" fill="#DFF0D8 " class="s_link"></path>
                    <path d="M32,315.5 C32,311.357865 35.3578654,308 39.5,308 C43.6421346,308 47,311.357865 47,315.5 C47,319.642135 43.6421346,323 39.5,323 C35.3578654,323 32,319.642135 32,315.5 L32,315.5 Z" id="Fill-35" stroke="#9B9B9B" stroke-width="0.5" fill="#DFF0D8 "></path>
                    <path d="M190,237.500001 C190,223.416741 201.640591,212 216.000001,212 C230.359403,212 242.000002,223.416741 242.000002,237.500001 C242.000002,251.583261 230.359403,263.000002 216.000001,263.000002 C201.640591,263.000002 190,251.583261 190,237.500001 L190,237.500001 Z" id="Stroke-36" stroke="#4774AB" stroke-width="25400" stroke-linejoin="round"></path>
                    <text id="Engage" font-family="HelveticaNeue, Helvetica Neue" font-size="8" font-weight="normal" letter-spacing="0.014" fill="#000000">
                        <tspan x="202.6393" y="239.098434">Engage</tspan>
                    </text>
                </a>
                <a xlink:href="../CareConnectAPI/explore.html" target="_top">
                    <path d="M122,260 C122,245.64059 133.4167,234 147.5,234 C161.5833,234 173,245.64059 173,260 C173,274.3594 161.5833,286 147.5,286 C133.4167,286 122,274.3594 122,260 L122,260 Z" id="Fill-37" stroke="#9B9B9B" fill="#DFF0D8 " class="s_link"></path>
                    <path d="M122,260.000001 C122,245.640591 133.416733,234 147.500001,234 C161.583253,234 173.000002,245.640591 173.000002,260.000001 C173.000002,274.359403 161.583253,286.000002 147.500001,286.000002 C133.416733,286.000002 122,274.359403 122,260.000001 L122,260.000001 Z" id="Stroke-38" stroke="#4774AB" stroke-width="25400" stroke-linejoin="round"></path>
                    <text id="API-Docs" font-family="HelveticaNeue, Helvetica Neue" font-size="8" font-weight="normal" letter-spacing="-0.023" fill="#000000">
                        <tspan x="129.826" y="261.457184">API Docs</tspan>
                    </text>
                </a>
                <path d="M53,237.5 C53,223.41674 64.4167,212 78.5,212 C92.5833,212 104,223.41674 104,237.5 C104,251.58326 92.5833,263 78.5,263 C64.4167,263 53,251.58326 53,237.5 L53,237.5 Z" id="Fill-39" stroke="#9B9B9B" fill="#c3c6ca"></path>
                <path d="M198,315.5 C198,311.357865 201.357853,308 205.5,308 C209.642147,308 213,311.357865 213,315.5 C213,319.642135 209.642147,323 205.5,323 C201.357853,323 198,319.642135 198,315.5 L198,315.5 Z" id="Fill-39" fill="#c3c6ca"></path>
                <path d="M53,237.500001 C53,223.416741 64.4167326,212 78.5000008,212 C92.5832532,212 104.000002,223.416741 104.000002,237.500001 C104.000002,251.583261 92.5832532,263.000002 78.5000008,263.000002 C64.4167326,263.000002 53,251.583261 53,237.500001 L53,237.500001 Z" id="Stroke-40" stroke="#4774AB" stroke-width="25400" stroke-linejoin="round"></path>
                <text id="Report-&amp;-" font-family="HelveticaNeue, Helvetica Neue" font-size="8" font-weight="normal" letter-spacing="-0.06" fill="#000000">
                    <tspan x="62.0127" y="236.803434">Report &amp;</tspan>
                </text>
                <text id="Monitor" font-family="HelveticaNeue, Helvetica Neue" font-size="8" font-weight="normal" letter-spacing="0.004" fill="#000000">
                    <tspan x="64.0127" y="245.803434">Monitor</tspan>
                </text>
                <a xlink:href="../CareConnectAPI/design_patterns.html" target="_top">
                    <path d="M10,179.5 C10,165.4167 21.4167,154 35.5,154 C49.5833,154 61,165.4167 61,179.5 C61,193.58326 49.5833,205 35.5,205 C21.4167,205 10,193.58326 10,179.5 L10,179.5 Z" id="Fill-41" stroke="#9B9B9B" fill="#FFFFFF" class="s_link"></path>
                    <path d="M108,315.5 C108,311.357853 111.357853,308 115.5,308 C119.642147,308 123,311.357853 123,315.5 C123,319.642135 119.642147,323 115.5,323 C111.357853,323 108,319.642135 108,315.5 L108,315.5 Z" id="Fill-41" fill="#FFFFFF"></path>
                    <path d="M10,179.500001 C10,165.416741 21.4167405,154 35.5000008,154 C49.5832532,154 61.0000016,165.416741 61.0000016,179.500001 C61.0000016,193.583261 49.5832532,205.000002 35.5000008,205.000002 C21.4167405,205.000002 10,193.583261 10,179.500001 L10,179.500001 Z" id="Stroke-42" stroke="#4774AB" stroke-width="25400" stroke-linejoin="round"></path>
                    <text id="Topology-" font-family="HelveticaNeue, Helvetica Neue" font-size="8" font-weight="normal" letter-spacing="0.408" fill="#000000">
                        <tspan x="18.4837" y="175.972354">Patterns</tspan>
                    </text>
                    <text id="Patterns" font-family="HelveticaNeue, Helvetica Neue" font-size="8" font-weight="normal" letter-spacing="-0.023" fill="#000000">
                        <tspan x="18.4837" y="185.972304">/ Topology</tspan>
                    </text>
                </a>
                <a xlink:href="../CareConnectAPI/design_access.html" target="_top">
                    <path d="M10,106.5 C10,92.4167 21.4167,81 35.5,81 C49.5833,81 61,92.4167 61,106.5 C61,120.5833 49.5833,132 35.5,132 C21.4167,132 10,120.5833 10,106.5 L10,106.5 Z" id="Fill-43" stroke="#9B9B9B" fill="#FFFFFF" class="s_link"></path>
                    <path d="M10,106.500001 C10,92.4167326 21.4167405,81 35.5000008,81 C49.5832532,81 61.0000016,92.4167326 61.0000016,106.500001 C61.0000016,120.583253 49.5832532,132.000002 35.5000008,132.000002 C21.4167405,132.000002 10,120.583253 10,106.500001 L10,106.500001 Z" id="Stroke-44" stroke="#4774AB" stroke-width="25400" stroke-linejoin="round"></path>
                    <text id="Access" font-family="HelveticaNeue, Helvetica Neue" font-size="8" font-weight="normal" letter-spacing="-0.184" fill="#000000">
                        <tspan x="23.4837" y="108.207754">Access</tspan>
                    </text>
                </a>
                <path d="M53,48.5 C53,34.4167 64.4167,23 78.5,23 C92.5833,23 104,34.4167 104,48.5 C104,62.5833 92.5833,74 78.5,74 C64.4167,74 53,62.5833 53,48.5 L53,48.5 Z" id="Fill-45" stroke="#9B9B9B" fill="#c3c6ca"></path>
                <path d="M53,48.5000008 C53,34.4167326 64.4167326,23 78.5000008,23 C92.5832532,23 104.000002,34.4167326 104.000002,48.5000008 C104.000002,62.5832532 92.5832532,74.0000016 78.5000008,74.0000016 C64.4167326,74.0000016 53,62.5832532 53,48.5000008 L53,48.5000008 Z" id="Stroke-46" stroke="#4774AB" stroke-width="25400" stroke-linejoin="round"></path>
                <text id="Endpoint" font-family="HelveticaNeue, Helvetica Neue" font-size="8" font-weight="normal" letter-spacing="0.014" fill="#000000">
                    <tspan x="62.0152" y="49.6715537">Endpoint</tspan>
                </text>
            </g>
        </g>
    </g>
</svg>
